<?xml version="1.0" standalone="no"?>
<!DOCTYPE svg PUBLIC "-//W3C//DTD SVG 20010904//EN"
 "http://www.w3.org/TR/2001/REC-SVG-20010904/DTD/svg10.dtd">
<svg version="1.0" xmlns="http://www.w3.org/2000/svg"
 width="252.000000pt" height="235.000000pt" viewBox="0 0 252.000000 235.000000"
 preserveAspectRatio="xMidYMid meet">

<g transform="translate(0.000000,235.000000) scale(0.100000,-0.100000)"
fill="#000000" stroke="none">
<path d="M485 2066 c-253 -151 -465 -283 -471 -293 -13 -22 1 -1059 15 -1096
6 -16 83 -63 270 -166 144 -79 264 -141 267 -139 2 3 -1 250 -6 549 l-11 544
24 20 c13 11 229 142 480 290 251 149 457 273 457 276 0 12 -506 284 -535 287
-24 2 -117 -49 -490 -272z"/>
<path d="M1555 1774 c-16 -8 -196 -115 -400 -237 l-370 -222 4 -455 c2 -361 6
-459 17 -477 11 -17 419 -253 439 -253 3 0 3 208 -1 463 l-7 463 29 21 c16 11
191 116 389 233 198 117 368 218 377 225 15 10 -13 29 -205 133 -122 67 -227
122 -232 122 -6 0 -23 -7 -40 -16z"/>
</g>
</svg>
