<?xml version="1.0" encoding="utf-8"?>
<!DOCTYPE svg PUBLIC "-//W3C//DTD SVG 1.0//EN" "http://www.w3.org/TR/2001/REC-SVG-20010904/DTD/svg10.dtd">
<svg version="1.0" xmlns="http://www.w3.org/2000/svg" width="1524px" height="1524px" viewBox="0 0 1524 1420" preserveAspectRatio="xMidYMid meet">
 <g fill="#002333">
  <path d="M324 1192.2 c-21.4 -10.8 -28.3 -14.5 -68.5 -36.4 -39.2 -21.5 -125 -69.7 -153 -86 -6.6 -3.9 -16.7 -9.8 -22.5 -13.1 -38.3 -22.2 -62.4 -37.3 -68.5 -43.2 l-3.2 -3 -0.7 -35.5 c-0.3 -19.5 -0.9 -95.1 -1.2 -168 -0.4 -72.9 -1.8 -203.9 -3.3 -291.2 l-2.6 -158.8 2.4 -4.9 c2.2 -4.5 3.8 -5.9 16 -13.9 68.2 -44.7 451.4 -275.3 537 -323.2 25.8 -14.4 29.7 -14.5 60 -0.6 11.2 5.1 54.9 27.9 76.1 39.6 37.2 20.6 73.3 40.1 93.5 50.5 65.7 33.9 128.4 68.3 131.6 72.1 2 2.5 -3.7 7 -25.6 20.4 -57.7 35.1 -265.9 159.4 -427.3 255 l-122.3 72.5 0.6 160.5 c0.4 94.1 1.2 183.9 2 217 3.1 119.4 3.7 156.7 3.8 222 0.2 62 -0.3 79 -2.1 79 -0.4 0 -10.4 -4.9 -22.2 -10.8z"/>
 </g>
 <g fill="#08898e">
  <path d="M741.2 1339.5 c-18.2 -8.9 -38.3 -19.5 -90.7 -48.1 -97.8 -53.2 -160.3 -90.2 -170.7 -101 l-3.7 -3.9 -1 -51.5 c-0.6 -28.3 -1.5 -88.2 -2.1 -133 -0.5 -44.8 -1.9 -145.1 -3.1 -222.7 l-2.1 -141.2 3.8 -6.3 c3.5 -5.6 5.4 -7.3 16.9 -15.1 16 -10.7 83.9 -53.3 122.5 -76.7 61.1 -37.1 333.2 -199.6 339.9 -202.9 6.3 -3.2 13.4 -3.7 20.1 -1.4 3 1 39.3 20.3 80.5 42.9 41.3 22.6 82.4 45 91.5 49.9 48.8 26.1 94 51.1 101.9 56.4 1 0.7 -0.1 1.8 -4.5 4.6 -9.4 6.1 -85.2 51.4 -144.4 86.5 -30 17.7 -57.6 34.2 -61.5 36.5 -3.8 2.3 -13.7 8.2 -22 13 -43.6 25.6 -157.7 93.9 -209.2 125.3 -34.4 20.9 -41.9 26 -47.6 32.2 l-5.5 5.9 0.4 15.3 c0.4 13.2 2.7 128.7 6.4 329.3 0.5 29.2 1.3 89.1 1.7 133.3 0.5 69.5 0.4 80.2 -0.8 80.2 -0.8 0 -8.3 -3.4 -16.7 -7.5z"/>
 </g>
 <g fill="#03c686">
  <path d="M1118 1410.6 c-35.5 -15.7 -141.7 -74.7 -200.6 -111.3 -28.5 -17.7 -32.7 -21 -36.3 -28 l-2.9 -5.8 -4.2 -195.9 -4.2 -195.8 4.8 -4.9 c6.5 -6.6 24.9 -18.3 96.4 -61.4 21.7 -13.1 47.6 -28.6 57.5 -34.5 9.9 -5.8 54.5 -32.4 99 -59 44.6 -26.5 83.5 -49.4 86.5 -50.8 9.6 -4.3 21.3 -4 30.9 0.7 4.9 2.4 111.2 60.4 128.1 69.9 45.2 25.3 85.1 49.3 97.9 58.7 5.3 3.9 6.1 4.9 5 5.9 -3 2.8 -55.2 34.2 -111.9 67.6 -16.2 9.5 -38.9 22.9 -50.5 29.8 -28.4 16.9 -34.4 20.4 -53 31.4 -62.5 36.9 -127.7 76.5 -131.4 79.7 l-4.4 3.8 1.2 80.4 c0.7 44.2 1.7 85.1 2.2 90.9 1.2 12.8 2.2 199.2 1.1 218 -0.6 10.8 -1 13.5 -2.2 13.7 -0.8 0.2 -4.9 -1.2 -9 -3.1z"/>
 </g>
 <g fill="#9ff025">
  <path d="M1260.6 1336.7 c-0.4 -8.4 -1.5 -31.2 -2.6 -50.7 -3 -54.2 -4.1 -92.4 -4.9 -163 -0.4 -35.5 -0.7 -64.6 -0.6 -64.7 0.1 -0.4 161.6 82.2 190 97.1 51.4 27.1 74.5 40.1 74.5 41.7 0 1.3 -47.2 30.9 -96.5 60.6 -29.7 17.8 -153 91 -157.1 93.1 -2.1 1.1 -2.1 1 -2.8 -14.1z"/>
 </g>
</svg>
