<?xml version="1.0" encoding="UTF-8"?><svg id="Layer_2" xmlns="http://www.w3.org/2000/svg" viewBox="0 0 452 522.69"><defs><style>.cls-1{fill:#f2f2f2;}.cls-2{fill:#fff;}.cls-3{fill:#fdb833;}.cls-4{fill:#6c757d;}.cls-5{fill:#d8d8d8;}.cls-6{fill:#ccc;}.cls-7,.cls-8{fill:#17c1ff;}.cls-9{fill:#5b6268;}.cls-10{fill:#4d4d4d;}.cls-8,.cls-11,.cls-12{fill-rule:evenodd;}.cls-11{fill:#13b7f3;}.cls-12{fill:#30c6fd;}</style></defs><g id="Silver"><g><g><g><g><g><path class="cls-2" d="M226,508.79c-84.39-32.17-137.66-83.73-167.53-121.39-30.44-38.38-43.41-70.49-45.06-74.74l-.41-181.27,88.19-38.34,81.53-35.22V20.74l27.92,12,15.34-13.45,14.88,13.05,28.42-12.45V57.92l69.17,29.81,12.34,5.32,88.19,38.34-.41,181.27c-1.64,4.25-14.62,36.36-45.06,74.74-29.87,37.66-83.15,89.21-167.53,121.39Z"/><path class="cls-2" d="M226,23.28l11.46,10.06,2.87,2.52,3.5-1.53,22.47-9.85V59.9l3.63,1.56,45.48,19.6,21.74,9.37,.07,.03,.05,.02,12.34,5.32,86.39,37.56-.4,178.74c-2.26,5.71-15.27,36.76-44.57,73.64-18.94,23.84-40.89,45.43-65.24,64.17-29.84,22.96-63.4,41.68-99.79,55.67-36.38-13.99-69.95-32.71-99.79-55.67-24.35-18.74-46.3-40.32-65.24-64.17-29.3-36.89-42.31-67.94-44.57-73.64l-.4-178.74,86.37-37.55,79.73-34.44,3.62-1.56V25.3l22,9.45,3.48,1.49,2.85-2.5,11.94-10.47m46.3-7.98l-30.88,13.53-15.42-13.53-15.9,13.94-30.37-13.05V55.86l-79.73,34.44L10,129.43v.88l.41,182.91s49.59,136,215.59,198.78c166-62.78,215.59-198.78,215.59-198.78l.41-182.91v-.88l-90-39.13-12.43-5.36-.05-.02-21.74-9.37-45.48-19.6V15.3h0Z"/></g><path class="cls-2" d="M276.3,9.18V53.32l3.63,1.56,73.64,31.74,92.43,40.19v3.49l-.41,183.63-.24,.66c-.52,1.41-13,35.09-46.17,76.96-30.56,38.58-85.16,91.44-171.77,124.19l-1.42,.54-1.42-.54c-86.61-32.75-141.21-85.61-171.77-124.19C19.65,349.68,7.17,316,6.65,314.59l-.24-.66-.41-184.5v-2.62l92.39-40.17,73.72-31.84,3.62-1.56V10.12l30.15,12.96,3.48,1.49,2.85-2.5,13.79-12.09,13.27,11.65,2.87,2.52,3.5-1.53,30.66-13.43m6-9.18l-39.07,17.12L226,2l-17.75,15.56L169.73,1.01V49.29l-73.72,31.84L0,122.87v6.56l.41,185.57,.6,1.65c.53,1.45,13.34,36.01,47.1,78.63,31.03,39.17,86.46,92.84,174.35,126.08l3.54,1.34,3.54-1.34c87.89-33.24,143.32-86.91,174.35-126.08,33.76-42.62,46.57-77.18,47.1-78.63l.6-1.65,.41-184.69v-7.44l-96.04-41.76-73.66-31.75V0h0Z"/></g><g><path class="cls-1" d="M226,508.79c-84.39-32.17-137.66-83.73-167.53-121.39-30.44-38.38-43.41-70.49-45.06-74.74l-.41-181.27,84.02-36.53,.29,48.83,126.4,118.49,2.27,2.18,2.31-2.2,126.38-118.48,.29-48.83,84.03,36.53-.41,181.27c-1.64,4.25-14.62,36.36-45.06,74.74-29.87,37.66-83.15,89.21-167.53,121.39Z"/><path class="cls-5" d="M94.05,99.43l.26,43,.02,2.58,1.88,1.76,125.44,117.59,.21,.2,4.15,3.97,4.15-3.97,.21-.2,125.44-117.59,1.88-1.76,.02-2.58,.26-43,78.05,33.93-.4,178.74c-2.24,5.68-15.09,36.42-44.25,73.24-18.94,23.91-40.91,45.57-65.29,64.36-29.91,23.06-63.56,41.85-100.05,55.88-36.38-13.99-69.95-32.71-99.79-55.67-24.35-18.74-46.3-40.32-65.24-64.17-25.16-31.67-39.89-61.39-44.57-73.61l-.4-178.77,78.05-33.93m257.95-9.13l-.31,52.09-125.46,117.61-.23,.22-.23-.22-125.46-117.61-.31-52.09L10,129.43v.88l.41,182.91s49.59,136,215.59,198.78c166-62.78,215.59-198.78,215.59-198.78l.41-182.91v-.88l-90-39.13h0Z"/></g><path class="cls-2" d="M53.89,158.66c17.38,14.53,33.46,30.38,49.24,46.57,15.68,16.29,30.98,32.89,44.93,50.74-17.39-14.52-33.47-30.37-49.24-46.57-15.67-16.3-30.97-32.9-44.93-50.74h0Z"/><path class="cls-2" d="M45.37,208.39c11.26,27.56,21.07,56.98,30.23,85.36,9.06,28.81,17.68,57.72,24.52,87.17-11.39-28-21.02-56.6-30.23-85.36-8.88-28.49-17.82-58.14-24.52-87.17h0Z"/><g><line class="cls-3" x1="398.11" y1="158.66" x2="303.94" y2="255.97"/><path class="cls-6" d="M398.11,158.66c-13.96,17.84-29.26,34.44-44.93,50.74-15.77,16.2-31.86,32.05-49.24,46.57,13.95-17.85,29.26-34.45,44.93-50.74,15.78-16.19,31.86-32.04,49.24-46.57h0Z"/></g><g><line class="cls-3" x1="402.88" y1="176.2" x2="340" y2="294.35"/><path class="cls-6" d="M402.88,176.2c-8.36,20.77-18.36,40.72-28.79,60.48-10.56,19.69-21.51,39.13-34.09,57.66,8.35-20.78,18.35-40.72,28.79-60.48,10.57-19.69,21.53-39.13,34.09-57.66h0Z"/></g><g><line class="cls-3" x1="406.63" y1="208.39" x2="351.88" y2="380.92"/><path class="cls-6" d="M406.63,208.39c-6.69,29.01-15.64,58.7-24.52,87.17-9.21,28.76-18.84,57.36-30.23,85.36,6.84-29.45,15.46-58.37,24.52-87.17,9.17-28.4,18.96-57.78,30.23-85.36h0Z"/></g><path class="cls-2" d="M48.66,176.2c12.56,18.53,23.52,37.97,34.09,57.66,10.44,19.76,20.44,39.7,28.79,60.48-12.57-18.53-23.53-37.97-34.09-57.66-10.43-19.76-20.43-39.71-28.79-60.48h0Z"/></g><g><path class="cls-12" d="M112.37,85.35l41.92,31.27-.09,58.63-41.83-38.72v-51.19Z"/><path class="cls-8" d="M112.37,85.35l57.66-25.13,43.93,24.85-59.67,31.55-41.92-31.27Z"/><path class="cls-12" d="M166.37,125.28l59.95,45.7v70.73l-59.86-55.19v-61.24h-.09Z"/><path class="cls-8" d="M225.95,91.77l60.22,33.51-59.95,45.7-59.95-45.7,59.67-33.51Z"/><path class="cls-11" d="M226.32,241.71l59.76-55.19,.18-61.24-59.95,45.7v70.73Z"/><path class="cls-8" d="M238.04,85.35l43.75-25.13,57.84,24.66-41.83,31.74-59.76-31.27Z"/><path class="cls-11" d="M297.71,116.62l-.09,59.29,41.92-39.28v-51.75l-41.83,31.74Z"/></g></g><g><polygon class="cls-4" points="182.71 54.2 182.71 20.87 210.64 32.87 225.98 19.42 240.86 32.47 269.29 20.02 269.29 54.29 225.99 77.69 182.71 54.2"/><path class="cls-9" d="M225.98,23.41l11.46,10.06,2.87,2.52,3.5-1.53,22.47-9.85v27.89l-40.29,21.78-40.28-21.87V25.42l22,9.45,3.48,1.49,2.85-2.5,11.94-10.47m46.3-7.98l-30.88,13.53-15.42-13.53-15.9,13.94-30.37-13.05V55.99l46.27,25.12,46.3-25.03V15.43h0Z"/></g><path class="cls-4" d="M133.81,398.2c30.23-2.4,61.81-2.85,92.19-3,30.76,.08,61.49,.61,92.19,3-30.7,2.39-61.43,2.92-92.19,3-30.39-.15-61.94-.6-92.19-3h0Z"/><g><path class="cls-10" d="M161.39,349.04c-.75-1.44-1.87-2.59-3.34-3.43-1.43-.82-3.21-1.23-5.27-1.23h-9.71v28.45h5.32v-9.73h4.43c2.05,0,3.82-.41,5.25-1.23,1.46-.84,2.58-1.99,3.33-3.44,.72-1.4,1.08-2.98,1.08-4.7s-.36-3.3-1.09-4.69Zm-4.69,6.99c-.3,.61-.75,1.07-1.37,1.43-.64,.37-1.51,.55-2.57,.55h-4.37v-8.54h4.33c1.08,0,1.96,.18,2.61,.55,.62,.35,1.07,.81,1.37,1.41,.34,.67,.5,1.42,.5,2.3s-.16,1.64-.5,2.3Z"/><path class="cls-10" d="M176.01,344.38h-4.58l-10.35,28.45h5.63l2.73-7.67h8.56l2.73,7.67h5.64l-10.36-28.45Zm-4.76,15.7l2.47-6.95,2.47,6.95h-4.94Z"/><path class="cls-10" d="M204.04,361.27c1.35-.76,2.39-1.81,3.11-3.13,.73-1.35,1.11-2.91,1.11-4.64s-.38-3.3-1.11-4.66c-.76-1.41-1.89-2.52-3.36-3.31-1.43-.76-3.19-1.15-5.24-1.15h-9.71v28.45h5.32v-10.29h4.53l5.55,10.29h6.11l-6.31-11.56Zm-9.88-11.8h4.33c1.09,0,1.99,.17,2.65,.51,.61,.32,1.05,.74,1.34,1.3,.32,.61,.49,1.36,.49,2.22s-.16,1.59-.48,2.17c-.28,.54-.72,.95-1.32,1.25-.67,.33-1.56,.5-2.64,.5h-4.37v-7.95Z"/><polygon class="cls-10" points="232.59 344.38 232.59 349.47 224.52 349.47 224.52 372.83 219.2 372.83 219.2 349.47 211.13 349.47 211.13 344.38 232.59 344.38"/><polygon class="cls-10" points="259.38 344.38 259.38 372.83 254.84 372.83 241.88 354.46 241.88 372.83 236.56 372.83 236.56 344.38 241.08 344.38 254.1 362.78 254.1 344.38 259.38 344.38"/><polygon class="cls-10" points="282.91 367.75 282.91 372.83 264.89 372.83 264.89 344.38 282.66 344.38 282.66 349.47 270.22 349.47 270.22 356.05 281.88 356.05 281.88 361.14 270.22 361.14 270.22 367.75 282.91 367.75"/><path class="cls-10" d="M302.62,361.27c1.35-.76,2.39-1.81,3.1-3.13,.74-1.35,1.11-2.91,1.11-4.64s-.37-3.3-1.11-4.66c-.75-1.41-1.88-2.52-3.35-3.31-1.43-.76-3.19-1.15-5.24-1.15h-9.72v28.45h5.33v-10.29h4.52l5.56,10.29h6.11l-6.31-11.56Zm-9.88-11.8h4.33c1.09,0,1.98,.17,2.64,.51,.61,.32,1.05,.74,1.35,1.3,.32,.61,.48,1.36,.48,2.22s-.16,1.59-.47,2.17c-.29,.54-.72,.94-1.32,1.25-.67,.33-1.56,.5-2.65,.5h-4.36v-7.95Z"/></g><g><path class="cls-7" d="M177.64,435.02h3.01l-.1,.58c-.19,1.05-.55,2.05-1.06,2.96-.51,.91-1.17,1.71-1.96,2.39-.79,.69-1.71,1.23-2.73,1.61-1.03,.38-2.17,.57-3.39,.57-1.92,0-3.65-.49-5.15-1.46-1.49-.96-2.67-2.34-3.52-4.1-.83-1.73-1.26-3.8-1.26-6.15s.43-4.41,1.26-6.15c.85-1.75,2.03-3.13,3.52-4.09,1.5-.97,3.23-1.46,5.15-1.46,1.22,0,2.36,.19,3.38,.57,1.03,.37,1.95,.91,2.74,1.6,.79,.68,1.45,1.49,1.96,2.39,.51,.91,.87,1.91,1.06,2.97l.1,.58h-3.01l-.08-.4c-.14-.68-.39-1.32-.74-1.91-.36-.58-.81-1.1-1.34-1.54-.54-.43-1.16-.78-1.84-1.02s-1.43-.37-2.23-.37c-1.27,0-2.45,.34-3.49,1-1.05,.66-1.91,1.66-2.54,2.96-.64,1.31-.97,2.95-.97,4.87s.33,3.59,.97,4.9c.63,1.29,1.49,2.28,2.53,2.94,1.05,.66,2.23,1,3.5,1,.8,0,1.55-.13,2.23-.37s1.3-.58,1.84-1.02c.53-.43,.98-.95,1.34-1.54,.35-.59,.6-1.23,.74-1.91l.08-.4Z"/><path class="cls-7" d="M199.59,433.78c0-1.43-.21-2.69-.61-3.74-.41-1.07-.97-1.97-1.67-2.68-.7-.71-1.51-1.25-2.4-1.59-.87-.35-1.8-.52-2.75-.52-1.5,0-2.86,.39-4.01,1.17-1.15,.78-2.05,1.86-2.7,3.22-.63,1.34-.96,2.89-.96,4.61s.33,3.27,.96,4.6c.65,1.34,1.58,2.41,2.77,3.17,1.19,.77,2.61,1.15,4.23,1.15,1.16,0,2.2-.19,3.1-.56,.9-.38,1.66-.89,2.27-1.52,.61-.63,1.06-1.33,1.33-2.08l.18-.49-2.73-.88-.18,.42c-.18,.43-.45,.83-.8,1.19-.36,.36-.8,.65-1.32,.86-.52,.22-1.14,.33-1.85,.33-1.03,0-1.93-.24-2.68-.72s-1.33-1.17-1.74-2.05c-.33-.71-.53-1.53-.6-2.45h12.16v-1.44Zm-11.56-3.06c.4-.83,.97-1.51,1.68-2.01,.71-.5,1.51-.74,2.45-.74,.89,0,1.65,.22,2.33,.66,.66,.43,1.2,1.04,1.58,1.8,.32,.63,.51,1.34,.56,2.11h-9.16c.09-.64,.28-1.26,.56-1.82Z"/><path class="cls-7" d="M212.72,425.28v2.99l-.58-.09c-.08,0-.22-.04-.43-.06-.19-.03-.4-.04-.63-.04-.76,0-1.45,.16-2.04,.48-.59,.31-1.04,.74-1.38,1.3-.33,.55-.5,1.19-.5,1.91v11.06h-2.9v-17.36h2.85v1.49c.3-.34,.66-.64,1.08-.9,.89-.55,1.91-.83,3.03-.83,.16,0,.34,0,.54,.01l.96,.04Z"/><path class="cls-7" d="M225.53,442.6l-.41,.16c-.2,.08-.45,.15-.75,.22-.31,.07-.68,.1-1.11,.1-.77,0-1.52-.17-2.23-.51-.72-.34-1.32-.86-1.78-1.53-.46-.69-.7-1.54-.7-2.53v-10.39h-2.44v-2.65h2.44v-3.92h2.9v3.92h3.47v2.65h-3.47v9.94c0,.59,.1,1.04,.28,1.35,.18,.29,.41,.5,.69,.61,.5,.22,1.15,.24,1.56,.16,.16-.02,.3-.06,.43-.09l.49-.13,.63,2.64Z"/><g><rect class="cls-7" x="229.59" y="425.47" width="2.91" height="17.36"/><path class="cls-7" d="M232.98,421.79c0,.52-.19,.97-.58,1.33-.37,.36-.82,.54-1.34,.54s-.97-.18-1.35-.54c-.37-.37-.56-.81-.56-1.33s.19-.96,.57-1.32c.76-.72,1.95-.71,2.69,0,.38,.36,.57,.81,.57,1.32Z"/></g><path class="cls-7" d="M241.24,423.97v1.5h3.62v2.65h-3.62v14.71h-2.91v-14.71h-2.51v-2.65h2.51v-1.9c0-.98,.24-1.82,.7-2.5,.46-.68,1.06-1.2,1.8-1.55,.73-.34,1.51-.52,2.32-.52,.53,0,.99,.05,1.36,.14,.36,.09,.64,.18,.85,.26l.43,.18-.85,2.57-.47-.14c-.14-.05-.31-.09-.51-.15-.16-.04-.38-.07-.64-.07-.69,0-1.2,.18-1.55,.54-.36,.37-.53,.9-.53,1.64Z"/><g><path class="cls-7" d="M252.56,421.79c0,.52-.19,.97-.58,1.33-.37,.36-.82,.54-1.34,.54s-.97-.18-1.34-.54c-.38-.37-.57-.81-.57-1.33s.19-.96,.57-1.32c.76-.72,1.95-.71,2.69,0,.38,.36,.57,.81,.57,1.32Z"/><rect class="cls-7" x="249.18" y="425.47" width="2.91" height="17.36"/></g><path class="cls-7" d="M271.86,433.78c0-1.43-.2-2.69-.61-3.74-.4-1.07-.97-1.97-1.67-2.68s-1.51-1.25-2.39-1.59c-.88-.35-1.8-.52-2.75-.52-1.51,0-2.86,.39-4.02,1.17-1.14,.78-2.05,1.86-2.69,3.22-.64,1.34-.96,2.89-.96,4.61s.32,3.27,.96,4.6c.64,1.34,1.57,2.41,2.76,3.17,1.19,.77,2.62,1.15,4.24,1.15,1.15,0,2.19-.19,3.09-.56,.9-.38,1.67-.89,2.28-1.52,.61-.63,1.06-1.33,1.33-2.08l.17-.49-2.73-.88-.17,.42c-.18,.43-.45,.83-.81,1.19-.35,.36-.8,.65-1.31,.86-.53,.22-1.15,.33-1.85,.33-1.04,0-1.94-.24-2.69-.72-.74-.48-1.33-1.17-1.73-2.05-.34-.71-.54-1.53-.61-2.45h12.16v-1.44Zm-11.56-3.06c.41-.83,.97-1.51,1.69-2.01,.71-.5,1.51-.74,2.45-.74,.89,0,1.65,.22,2.32,.66,.67,.43,1.2,1.04,1.58,1.8,.32,.63,.51,1.34,.57,2.11h-9.17c.1-.64,.28-1.26,.56-1.82Z"/><path class="cls-7" d="M287.62,420.02v7.52c-.07-.09-.13-.18-.2-.27-.44-.57-1.03-1.05-1.75-1.44-.73-.39-1.65-.58-2.72-.58-1.45,0-2.74,.38-3.83,1.15-1.09,.75-1.94,1.82-2.54,3.16-.59,1.33-.89,2.89-.89,4.63s.3,3.32,.89,4.65c.6,1.35,1.45,2.42,2.53,3.18s2.37,1.15,3.81,1.15c1.07,0,1.99-.2,2.72-.59,.73-.38,1.32-.87,1.77-1.45,.09-.12,.18-.24,.26-.36v2.06h2.85v-22.81h-2.9Zm.03,14.14c0,1.26-.19,2.38-.56,3.33-.36,.93-.88,1.66-1.55,2.19-.66,.51-1.44,.76-2.4,.76s-1.77-.26-2.44-.79c-.67-.54-1.2-1.29-1.55-2.23-.37-.96-.56-2.05-.56-3.26s.19-2.27,.55-3.22c.35-.92,.87-1.65,1.55-2.19,.66-.52,1.47-.78,2.45-.78s1.75,.25,2.42,.76c.66,.51,1.18,1.23,1.54,2.15,.36,.94,.55,2.04,.55,3.28Z"/></g><g><path class="cls-4" d="M157.07,311.53c-.01,2.73-.7,5.08-2.06,6.98-1.36,1.89-3.31,3.35-5.8,4.33-2.47,.97-5.46,1.46-8.89,1.46s-6.64-.53-9.27-1.58c-2.67-1.06-4.77-2.72-6.25-4.94-1.47-2.21-2.23-5.08-2.24-8.51v-.5h11.29l.02,.47c.06,1.13,.34,2.09,.84,2.84,.49,.75,1.19,1.32,2.09,1.71,.93,.4,2.06,.61,3.37,.61,1.09,0,2.01-.14,2.74-.4,.68-.26,1.21-.6,1.55-1.04,.34-.42,.51-.89,.52-1.43-.01-.48-.17-.91-.48-1.29-.33-.39-.9-.77-1.7-1.1-.84-.36-2-.71-3.44-1.02l-3.99-.86c-3.61-.78-6.5-2.12-8.59-3.97-2.14-1.9-3.22-4.51-3.21-7.77-.01-2.63,.71-4.97,2.14-6.96,1.42-1.97,3.41-3.53,5.93-4.63,2.49-1.09,5.39-1.64,8.61-1.64s6.17,.56,8.58,1.66c2.44,1.12,4.34,2.71,5.67,4.74,1.33,2.04,2.01,4.44,2.03,7.14v.5h-11.36l-.03-.46c-.1-1.17-.51-2.06-1.28-2.7-.77-.65-1.99-.98-3.61-.98-1.06,0-1.92,.13-2.57,.37-.62,.23-1.07,.54-1.35,.91-.28,.38-.42,.8-.43,1.28-.02,.41,.05,.75,.21,1.06,.16,.31,.43,.59,.81,.85,.4,.28,.94,.54,1.58,.77,.67,.24,1.47,.46,2.39,.65l3.29,.7c2.24,.48,4.19,1.11,5.8,1.9,1.62,.79,2.97,1.73,4,2.8,1.05,1.08,1.83,2.32,2.33,3.66,.49,1.34,.75,2.82,.76,4.39Z"/><rect class="cls-4" x="162.96" y="282.83" width="11.86" height="41"/><polygon class="cls-4" points="209.76 314.08 209.76 323.83 181.73 323.83 181.73 282.83 193.59 282.83 193.59 314.08 209.76 314.08"/><polygon class="cls-4" points="252.31 282.83 238.78 323.83 223.21 323.83 209.68 282.83 223.01 282.83 231 310.28 238.98 282.83 252.31 282.83"/><polygon class="cls-4" points="269.56 292.58 269.56 298.46 286.04 298.46 286.04 308.21 269.56 308.21 269.56 314.08 287.45 314.08 287.45 323.83 257.7 323.83 257.7 282.83 287.53 282.83 287.53 292.58 269.56 292.58"/><path class="cls-4" d="M321.17,308.64c1.93-1.02,3.48-2.43,4.62-4.2,1.32-2.03,1.98-4.56,1.98-7.51s-.64-5.47-1.92-7.57c-1.28-2.1-3.1-3.74-5.41-4.86-2.28-1.1-4.98-1.67-8.01-1.67h-17.77v41h11.86v-13.2h2.96l7.02,13.2h12.94l-8.27-15.19Zm-14.65-16.13h3.33c1.21,0,2.25,.16,3.1,.48,.81,.31,1.42,.77,1.85,1.41,.43,.64,.65,1.49,.65,2.53s-.22,1.85-.65,2.47c-.43,.62-1.03,1.06-1.84,1.34-.85,.3-1.89,.45-3.11,.45h-3.33v-8.68Z"/></g></g></g></svg>