<svg xmlns="http://www.w3.org/2000/svg" width="252" height="235" viewBox="0 0 252 235" version="1.1"><path d="M 95 0.717 C 94.175 1.013, 72.681 13.634, 47.235 28.765 C 13.849 48.616, 0.823 56.862, 0.443 58.387 C 0.154 59.549, 0.273 84.415, 0.708 113.645 C 1.452 163.576, 1.613 166.916, 3.375 168.862 C 4.818 170.456, 39.185 189.887, 54.864 197.973 L 57.227 199.192 56.486 143.271 L 55.744 87.350 102.622 59.593 C 128.405 44.326, 150.070 31.286, 150.767 30.615 C 151.774 29.645, 146.749 26.503, 126.267 15.297 C 99.849 0.844, 97.585 -0.212, 95 0.717 M 118.459 78.616 C 97.582 91.055, 79.747 101.894, 78.826 102.702 C 77.299 104.043, 77.192 107.616, 77.609 143.336 C 78.078 183.515, 78.583 195.708, 79.866 197.783 C 80.651 199.053, 123.659 223, 125.154 223 C 125.984 223, 125.646 183.372, 124.496 145.897 C 124.068 131.946, 124.202 130.134, 125.759 128.784 C 126.716 127.953, 144.825 117.042, 166 104.537 C 187.175 92.032, 204.876 81.446, 205.336 81.014 C 206.610 79.816, 162.807 56, 159.330 56 C 157.319 56, 144.673 62.998, 118.459 78.616" stroke="none" fill="#044f58" fill-rule="evenodd"/><path d="M 199.500 110.466 C 197.850 111.229, 184.800 118.810, 170.500 127.311 L 144.500 142.769 144.700 175.984 C 144.862 202.960, 145.170 209.602, 146.338 211.349 C 147.737 213.442, 183.881 234, 186.161 234 C 187.004 234, 187.159 225.393, 186.755 201.049 C 186.356 177.048, 186.519 167.710, 187.354 166.671 C 187.984 165.886, 200.428 158.231, 215.007 149.660 C 229.586 141.089, 242.360 133.457, 243.394 132.701 C 245.112 131.445, 243.947 130.590, 229.887 122.785 C 212.683 113.235, 204.448 108.981, 203.283 109.039 C 202.852 109.061, 201.150 109.703, 199.500 110.466 M 207.099 194.167 C 207.153 204.800, 207.491 215.890, 207.849 218.812 L 208.500 224.124 229.750 211.444 C 241.438 204.470, 251 198.386, 251 197.924 C 251 197.307, 213.794 177.714, 207.786 175.167 C 207.354 174.983, 207.045 183.533, 207.099 194.167" stroke="none" fill="#1ccb73" fill-rule="evenodd"/></svg>