<?xml version="1.0" encoding="UTF-8"?> <svg xmlns="http://www.w3.org/2000/svg" xmlns:xlink="http://www.w3.org/1999/xlink" width="1200" height="1200" viewBox="0 0 1200 1200"><defs><linearGradient id="linear-gradient" y1="0.5" x2="0.999" y2="0.5" gradientUnits="objectBoundingBox"><stop offset="0" stop-color="#00d2f6"></stop><stop offset="1" stop-color="#1d96ff"></stop></linearGradient><clipPath id="clip-Tile_icon"><rect width="1200" height="1200"></rect></clipPath></defs><g id="Tile_icon" data-name="Tile icon" clip-path="url(#clip-Tile_icon)"><rect width="1200" height="1200" fill="#fff"></rect><g id="Sendcloud_icon_rgb" transform="translate(600 600)"><g id="Sendcloud_icon_rgb-2" data-name="Sendcloud_icon_rgb" transform="translate(-600 -600)"><path id="Path_1" data-name="Path 1" d="M467.616,108.5H949.384c124.862,0,170.166,13.26,215.469,37.569s81.768,59.669,106.077,106.077c24.309,45.3,37.569,90.608,37.569,215.47V949.384c0,124.862-13.26,170.166-37.569,215.469s-59.668,81.768-106.077,106.077c-45.3,24.309-90.608,37.569-215.469,37.569H467.616c-124.862,0-170.166-13.26-215.47-37.569s-81.768-59.668-106.077-106.077c-24.309-45.3-37.569-90.608-37.569-215.469V467.616c0-124.862,13.26-170.166,37.569-215.47s59.669-81.768,106.077-106.077C297.45,121.76,342.754,108.5,467.616,108.5Z" transform="translate(-108.5 -108.5)" fill-rule="evenodd" fill="url(#linear-gradient)"></path><path id="Path_2" data-name="Path 2" d="M936.95,502.046c0-95.028-72.928-174.586-165.746-184.53C757.944,270,729.215,225.8,690.541,193.758A250.855,250.855,0,0,0,531.425,136.3a246.928,246.928,0,0,0-159.116,57.458c-38.674,32.044-66.3,75.138-80.663,123.757-92.818,9.945-165.746,88.4-165.746,184.53h0c0,8.84,1.1,74.033,49.724,124.862,37.569,38.674,90.608,57.459,160.221,57.459,66.3,0,131.492-11.05,194.475-34.254,19.89,6.63,39.779,13.26,59.669,17.68a553.767,553.767,0,0,0,133.7,16.575c69.613,0,122.652-19.89,160.221-57.459,51.934-50.829,53.039-114.917,53.039-124.862Zm-49.724,0h0s1.105,51.933-36.464,89.5c-27.624,27.624-68.508,41.989-122.652,41.989-92.818,0-166.851-25.415-213.26-46.409-44.2-19.889-71.823-39.779-78.453-45.3-1.1,0-1.1-1.105-1.1-2.21V431.328c0-2.21,1.1-3.315,3.315-4.42l95.028-48.619a3.361,3.361,0,0,1,4.42,0l95.028,48.619c2.21,1.105,3.315,2.21,3.315,4.42V537.4a11.129,11.129,0,0,1-1.1,3.315,442.564,442.564,0,0,1-46.409,29.834,417.809,417.809,0,0,0,70.718,15.47c5.525-4.42,8.84-6.63,8.84-6.63h0A55.827,55.827,0,0,0,687.226,537.4V431.328c0-20.995-12.155-39.779-29.834-49.724l-95.028-48.619a58.57,58.57,0,0,0-50.829,0L416.507,381.6a55.518,55.518,0,0,0-29.834,49.724V537.4a57.844,57.844,0,0,0,18.784,41.989h0c1.105,1.105,22.1,17.68,60.773,38.674-40.884,9.945-81.768,14.365-123.757,14.365-54.144,0-96.133-14.365-122.652-41.989-36.464-37.569-36.464-88.4-36.464-89.5h0v-1.1c0-74.033,60.773-134.807,134.807-134.807h20.994l4.42-20.994a201.614,201.614,0,0,1,67.4-113.812c35.359-29.834,80.663-45.3,125.967-45.3s90.608,16.575,125.967,45.3,58.563,69.613,67.4,113.812l4.42,20.994h20.994c70.719,2.21,131.492,61.879,131.492,137.017Z" transform="translate(66.365 170.882)" fill="#fff"></path></g></g></g></svg> 