<svg xmlns="http://www.w3.org/2000/svg" width="55.59259" height="56.25544" viewBox="0 0 55.59259 56.25544" creator="Katerina Limpitsouni"><path d="M24.81048,46.2293c-5.83304,3.20429-12.09918,5.31562-18.82194,4.98942l1.76777,4.26777c3.93218-3.53092,6.75979-7.61027,8.57262-12.57778,.48758-1.33606-.55936-2.6505-1.7461-3.0753-6.73816-2.41192-10.65947-10.46305-9.41863-17.34103,1.43661-7.96316,7.95791-14.25419,15.57926-16.50325,8.57917-2.53172,18.05152-.32338,24.17155,6.30351,5.58661,6.04929,7.33043,14.85931,4.0522,22.48266-1.85497,4.31365-5.14936,7.74961-9.36703,9.79513-4.1063,1.99151-8.4482,2.13786-12.86331,1.40685-1.33051-.22029-2.69124,.34835-3.0753,1.7461-.32868,1.19619,.40651,2.8535,1.7461,3.0753,2.32306,.38463,4.59262,.76049,6.95899,.62869,2.63963-.14702,5.2643-.68054,7.72394-1.65425,4.85537-1.92212,8.94309-5.24063,11.71176-9.68483,5.41151-8.6864,4.9778-20.09828-.97747-28.39303C44.38201,2.72135,33.55487-1.37524,22.72181,.40995,12.89893,2.02867,3.97621,9.10026,.95027,18.70567c-3.23181,10.25892,2.00364,22.26237,12.30336,25.94914l-1.7461-3.0753c-1.51597,4.15406-4.01471,7.4333-7.28676,10.37145-1.70215,1.52845-.27097,4.16884,1.76777,4.26777,7.57794,.36769,14.77482-2.06254,21.34553-5.67207,2.82098-1.54966,.30106-5.86903-2.5236-4.31735Z" fill="#05c787" origin="undraw"/></svg>