<svg xmlns="http://www.w3.org/2000/svg" width="57.24873" height="60.27232" viewBox="0 0 57.24873 60.27232" creator="Katerina Limpitsouni"><path d="M2.41707,35.98623c17.18287,5.17294,35.86368,4.99469,52.93808-.53181l-3.0753-3.0753c-2.75507,6.69069-3.14413,13.98006-4.25154,21.04985l1.1489-1.49408c-.9919,.70425-1.1761,.68061-2.41804,1-1.734,.44593-3.48359,.83094-5.24458,1.15426-3.45792,.63488-6.956,1.00035-10.46888,1.13256-7.10975,.26757-14.19362-.46247-21.09725-2.1771l1.8354,2.4107c-.3447-3.73365-1.37745-7.4763-2.47649-11.0515-1.2556-4.08447-2.8469-8.06301-4.6947-11.91483l-1.49408,3.6725,.62767-.17525c3.09472-.86405,1.78012-5.68952-1.3292-4.8214l-.62767,.17525c-1.65389,.46177-2.18514,2.23194-1.49408,3.6725,1.66318,3.46699,3.06063,7.04446,4.19066,10.72043,.56226,1.82902,1.06002,3.67802,1.48953,5.54271,.34229,1.48604,.69945,2.99994,.80836,4.17959,.1002,1.08538,.70401,2.1297,1.8354,2.4107,9.05543,2.24907,18.50095,2.95996,27.78319,1.9702,2.38866-.2547,4.77095-.60035,7.12975-1.05565,2.2236-.4292,4.81364-.76067,6.88309-1.70159,.43302-.19688,.80204-.47463,1.18721-.75693,1.08147-.79263,1.27624-1.70815,1.46111-2.96539,.32579-2.21555,.59248-4.43905,.89868-6.65726,.61017-4.42021,1.43279-8.84766,3.13895-12.99107,.73002-1.77285-1.40137-3.6171-3.0753-3.0753-16.2786,5.26892-33.89421,5.46469-50.27968,.53181-3.0878-.92959-4.40737,3.89471-1.3292,4.8214Z" fill="#05c787" origin="undraw"/><path d="M45.86554,29.03707c.37759,.36426,.73392,.74706,1.05527,1.16215l-.39091-.50597c.29659,.39301,.55705,.80663,.75261,1.25934l-.25202-.5972c.13932,.33988,.24006,.68838,.29314,1.05208l-.0893-.6646c.03222,.26223,.03818,.52165,.01005,.78454l.0893-.6646c-.03037,.22327-.08469,.4365-.17045,.64493l.25202-.5972c-.07141,.15759-.15598,.30083-.26042,.4388l.39091-.50597c-.07991,.09753-.16499,.18601-.25895,.26994-.46168,.4124-.73223,1.16331-.73223,1.76777,0,.61317,.27235,1.3456,.73223,1.76777,.47644,.43736,1.10194,.76206,1.76777,.73223,.68412-.03064,1.25389-.27321,1.76777-.73223,1.40204-1.25238,1.68981-3.31581,1.22437-5.05688-.42594-1.59333-1.47674-2.9628-2.64563-4.09043-.46668-.45021-1.11487-.73223-1.76777-.73223-.61317,0-1.3456,.27235-1.76777,.73223-.43736,.47644-.76206,1.10194-.73223,1.76777,.02939,.65623,.2483,1.30092,.73223,1.76777h0Z" fill="#05c787"/><path d="M10.44773,33.01297c-.04801-.39327-.04456-.78394,.00175-1.17725l-.0893,.6646c.07529-.55912,.23318-1.09645,.44897-1.61697l-.25202,.5972c.31535-.73487,.73518-1.41343,1.22247-2.04625l-.39091,.50597c.2672-.34059,.55159-.66541,.85239-.97669,.45036-.46605,.73223-1.11543,.73223-1.76777,0-.61317-.27235-1.3456-.73223-1.76777-.47644-.43736-1.10194-.76206-1.76777-.73223-.65656,.02941-1.30036,.24855-1.76777,.73223-.94711,.98009-1.829,2.11071-2.39209,3.36006-.59332,1.31642-1.04442,2.76101-.86572,4.22487-.01298,.3442,.05879,.66527,.21531,.9632,.10082,.30994,.27313,.57813,.51692,.80457,.43361,.43361,1.14502,.76013,1.76777,.73223,.64656-.02896,1.31714-.24134,1.76777-.73223,.41683-.45408,.81058-1.12598,.73223-1.76777h0Z" fill="#05c787"/><path d="M37.99589,15.35142c2.15572-.40362,4.32877-.99677,5.92815-2.59498,1.57432-1.57316,2.19044-3.7829,1.60176-5.93654-1.18731-4.34372-5.87753-5.64881-9.77385-6.32417-8.03574-1.39285-17.50251-.15008-21.92795,7.60728l.89688-.89688c-5.11375,2.29912-9.92739,6.93646-9.30315,13.01954,.30483,2.97052,1.84567,5.44679,4.37165,7.04932,2.32974,1.47803,5.13598,2.00261,7.81328,2.44492,6.69524,1.1061,13.49807,1.49736,20.27249,1.06359,5.06211-.32413,14.71137-.50525,14.52595-7.77405-.08875-3.47891-2.93629-5.95931-5.8988-7.2359-1.53287-.66054-3.10033-1.21727-4.62463-1.89919-1.00052-.4476-1.98646-.7262-2.13569-1.59824-.2279-1.33179-1.86623-2.07837-3.0753-1.7461-1.40909,.38724-1.97466,1.73964-1.7461,3.0753,.59954,3.50356,4.71809,4.83735,7.59725,5.94567,1.23318,.47471,6.79101,2.55285,4.31807,4.61047-1.15561,.96153-2.98775,1.04206-4.42127,1.21035-2.06526,.24244-4.13915,.40985-6.21653,.50239-4.1548,.18508-8.32259,.07063-12.46096-.34231-3.35281-.33456-7.1783-.59516-10.30047-1.96468-2.77125-1.21559-3.77635-3.91-2.55897-6.70649,.55297-1.27025,1.5702-2.37031,2.64771-3.21551,.61049-.47887,1.29216-.88605,1.97027-1.26041,.94407-.5212,2.01901-.82583,2.64565-1.75818,1.7189-2.55751,3.9064-4.26136,6.91708-5.10829,4.04593-1.13815,8.59755-.62441,12.59515,.4983,1.05874,.29734,3.31313,1.07842,3.11059,2.55578-.20581,1.50128-3.00009,1.75217-4.09748,1.95763-1.32791,.24863-2.08237,1.85168-1.7461,3.0753,.38281,1.39297,1.74357,1.99544,3.0753,1.7461h0Z" fill="#05c787"/><path d="M26.99898,13.09907c3.21726,0,3.22259-5,0-5-3.21726,0-3.22259,5,0,5h0Z" fill="#05c787"/><path d="M19.35053,20.74751c3.21726,0,3.22259-5,0-5-3.21726,0-3.22259,5,0,5h0Z" fill="#05c787"/><path d="M31.65455,21.08005c3.21726,0,3.22259-5,0-5-3.21726,0-3.22259,5,0,5h0Z" fill="#05c787"/></svg>