<svg xmlns="http://www.w3.org/2000/svg" width="29.76171" height="62.40695" viewBox="0 0 29.76171 62.40695" creator="Katerina Limpitsouni"><path d="M14.99188,34.20139c-4.92798-2.00542-6.88974-8.09656-8.44637-12.6771-1.54843-4.55642-3.04939-10.9746,1.43428-14.44841,3.54588-2.74724,9.50338-2.93835,13.02618-.09116,4.04953,3.2729,4.60268,8.97769,2.77897,13.59135-1.15786,2.92917-3.22703,5.46718-5.10543,7.95801-1.06283,1.40934-2.09642,2.84838-3.19183,4.23247-.28183,.35611-.57225,.6485-.9217,.92858-.25378,.2034-.47665,.35713-.69997,.57286-.1173,.11331-.87562,.73375-.41725,.47095l1.2618-.34132-.14938,.01417,1.2618,.34132-.12899-.0881,.89688,.89688-.1049-.2116c-1.42926-2.88302-5.74338-.3529-4.31735,2.5236,.94526,1.90672,3.24788,1.87042,4.65485,.54125,.65687-.62055,.49694-.48902,1.25449-1.12275,.74392-.62233,1.29069-1.42525,1.87217-2.19463,2.29558-3.03732,4.78481-6.01659,6.75467-9.28135,3.66624-6.07627,4.46218-14.07809,.01038-19.99639C22.32587-.01517,14.42154-1.42615,7.86638,1.42314,4.62102,2.83379,2.14924,5.36369,.90184,8.68329-.34628,12.00481-.1602,15.68183,.62094,19.08629c.92877,4.04791,2.4656,8.28784,4.45222,11.93771,1.95338,3.58879,4.78291,6.4497,8.58953,7.99878,1.25111,.50913,2.74752-.55319,3.0753-1.7461,.39316-1.43088-.49034-2.56427-1.7461-3.0753h0Z" fill="#05c787" origin="undraw"/><path d="M10.42004,6.99815c-.85741,.7504-1.59846,1.68112-2.1637,2.66888-.56711,.99103-1.00518,2.09744-1.21862,3.22144-.1272,.66986-.1021,1.32126,.25202,1.9264,.30347,.51858,.89808,1.01315,1.49408,1.1489,.63997,.14576,1.35833,.11422,1.9264-.25202,.52203-.33656,1.02865-.86082,1.1489-1.49408,.1104-.58138,.28036-1.14617,.50674-1.69287l-.25202,.5972c.29191-.68713,.66782-1.33056,1.12322-1.92215l-.39091,.50597c.33337-.42495,.70295-.8164,1.10942-1.17214,.46295-.40517,.73223-1.16976,.73223-1.76777,0-.61317-.27235-1.3456-.73223-1.76777-.47644-.43736-1.10194-.76206-1.76777-.73223-.68776,.03081-1.24773,.2771-1.76777,.73223h0Z" fill="#05c787"/><path d="M9.54305,37.57658l-.36943,.98947c-.27267,.73032-.00334,1.59587,.44748,2.17938,.4687,.60666,1.17602,1.0031,1.96322,.98522,2.06849-.04698,4.13697-.09396,6.20546-.14095,.88701-.02015,1.70593-.46452,2.15868-1.2382,.41693-.71248,.51147-1.82096,0-2.5236-.29479-.40497-.58957-.80993-.88436-1.2149-.39444-.54187-.82516-.96469-1.49408-1.1489-.59843-.16479-1.39529-.09039-1.9264,.25202-.53381,.34415-1.00371,.85662-1.1489,1.49408-.14074,.61791-.13731,1.39154,.25202,1.9264,.29479,.40497,.58957,.80993,.88436,1.2149l2.15868-3.7618c-2.06849,.04698-4.13697,.09396-6.20546,.14095l2.4107,3.1646,.36943-.98947c.2151-.57612,.04782-1.41401-.25202-1.9264-.30347-.51858-.89808-1.01315-1.49408-1.1489-.63997-.14576-1.35833-.11422-1.9264,.25202-.57444,.37035-.90996,.8541-1.1489,1.49408h0Z" fill="#05c787"/><path d="M12.19264,38.5946c-.00373,7.13247-.00746,14.26494-.01118,21.39741-.00168,3.21733,4.99832,3.22252,5,0,.00373-7.13247,.00746-14.26494,.01118-21.39741,.00168-3.21733-4.99832-3.22252-5,0h0Z" fill="#05c787"/></svg>