<svg xmlns="http://www.w3.org/2000/svg" width="59.81473" height="41.92549" viewBox="0 0 59.81473 41.92549" creator="Katerina Limpitsouni"><path d="M8.27225,8.95955c-.01691,5.25229,.05176,10.64624,2.13695,15.55747,1.90036,4.47588,5.34037,8.08301,10.07607,9.49385,2.45148,.73033,5.07143,.89011,7.61582,.92944,2.56876,.0397,5.19648-.06008,7.69404-.71362,4.66953-1.22188,8.30723-4.65635,10.30718-8.99075,2.51423-5.44898,2.49749-11.45605,2.32924-17.33606-.04198-1.46712-1.58934-3.03675-3.1646-2.4107-10.64211,4.22948-22.47696,4.14129-33.0606-.22917-1.24853-.51557-2.74881,.5579-3.0753,1.7461-.39465,1.43628,.49288,2.55779,1.7461,3.0753,11.28001,4.65802,24.37907,4.73598,35.71899,.22917l-3.1646-2.4107c.20241,7.07398,.4631,17.69574-7.45789,21.01888-1.87049,.78474-3.93164,.97353-5.93732,1.01865-2.08851,.04699-4.2485,.04896-6.31194-.30468-3.87622-.66432-6.62848-2.80564-8.38801-6.29843-2.2121-4.39116-2.07953-9.58789-2.06412-14.37474,.01036-3.21767-4.98963-3.22211-5,0h0Z" fill="#05c787" origin="undraw"/><path d="M48.20129,16.51091c-.4096,.33068,.32208-.16953,.40902-.22332,.26121-.12495,.2637-.13095,.00749-.01798,.10334-.03939,.20809-.07443,.31427-.10514,.11896-.03619,.88519-.182,.3078-.11139,.25553-.03125,.51475-.03627,.77169-.02617,.1104,.00272,.22051,.01023,.33033,.02252-.29636-.03949-.30359-.03242-.0217,.02121,.11387,.03982,.91396,.35845,.39434,.09956,.18888,.09411,.36649,.20985,.55398,.30473,.23232,.16198,.23506,.15444,.00824-.0226,.10935,.08853,.21503,.18125,.31705,.27813,.15279,.14517,.29718,.29956,.43146,.46198-.35964-.43503,.13446,.26913,.19223,.36977,.30748,.53567-.07578-.38353,.08417,.20826,.03051,.11287,.21435,1.00465,.13692,.39655,.0275,.21597,.03684,.43551,.03771,.65318,.00049,.12363-.10558,1.01432-.00139,.42898-.03877,.21779-.084,.43402-.14154,.64767-.02662,.09886-.33759,.94861-.11924,.44558-.20411,.47023-.47397,.91785-.77863,1.32937,.31377-.42383-.16577,.17003-.23974,.24884-.1747,.18611-.35699,.36454-.54688,.53516-.10874,.0976-.21965,.19266-.33274,.28519,.21922-.16367,.21342-.16048-.0174,.00957-.18256,.1238-.36222,.2507-.54914,.3682-.43859,.27568-.89642,.50843-1.36047,.73668-.26496,.11772-.26855,.12191-.01075,.01255-.13611,.05536-.27305,.10861-.41081,.15974-.2472,.09177-.49693,.17702-.74813,.25714-.58588,.18685-1.18182,.34137-1.7818,.47562-1.29018,.2887-2.59994,.47738-3.90759,.66626-1.29885,.18761-2.12573,1.90221-1.7461,3.0753,.45996,1.42133,1.68325,1.94717,3.0753,1.7461,4.82524-.69698,9.76244-1.83252,12.82746-5.96548,2.92453-3.94352,2.21371-10.28458-2.54466-12.47308-2.91314-1.33983-6.00853-.82641-8.47625,1.1658-1.02206,.82512-.92283,2.68839,0,3.53553,1.08527,.99625,2.4452,.88023,3.53553,0h0Z" fill="#05c787"/><path d="M13.11394,8.9216c3.18895-4.64085,10.73532-3.925,15.5968-3.92211,5.51403,.00327,11.52372,.65877,15.39796,5.03093,2.13834,2.41317,5.66383-1.13371,3.53553-3.53553C42.77797,1.0032,35.16923-.02972,28.23009,.00064c-6.97031,.03049-15.05029,.01852-19.4335,6.39737-.76501,1.11331-.20814,2.77415,.89688,3.42047,1.239,.72469,2.65369,.21902,3.42047-.89688h0Z" fill="#05c787"/><path d="M12.88245,24.57309c-3.6178-.43535-7.44993-.51518-10.3626,2.02051C.00703,28.78119-.88388,32.48566,1.0396,35.35728c1.61625,2.41295,4.51333,3.55856,7.23249,4.2063,3.71546,.88507,7.5153,1.47139,11.31177,1.87324,7.3986,.78313,14.848,.60743,22.21512-.40106,3.52029-.48189,7.14712-1.05028,10.54657-2.11252,2.92037-.91254,5.86018-2.50708,7.0274-5.50475,1.35341-3.47584-.56737-7.06739-3.52507-8.9713-3.65594-2.35338-8.21965-1.41493-12.14601-.40577-3.11421,.80042-1.79421,5.62418,1.3292,4.8214,2.34358-.60235,5.33342-1.55389,7.67341-.45376,1.35269,.63595,2.742,2.18986,1.8015,3.64159-.90999,1.40463-3.08929,1.97849-4.64762,2.37514-2.78281,.70832-5.61767,1.24389-8.45844,1.65778-5.81234,.84684-11.7431,1.04201-17.60373,.69914-2.90295-.16984-5.79715-.47562-8.66661-.94832-2.53577-.41773-5.23453-.79106-7.64669-1.71366-1.41606-.54162-3.31541-1.66013-2.1145-3.29845,1.62496-2.21684,5.20157-1.52746,7.51406-1.24918,1.34272,.16158,2.5-1.26468,2.5-2.5,0-1.4855-1.15336-2.33795-2.5-2.5h0Z" fill="#05c787"/></svg>