<svg xmlns="http://www.w3.org/2000/svg" width="38.67258" height="46.06185" viewBox="0 0 38.67258 46.06185" creator="Katerina Limpitsouni"><path d="M21.80088,45.33602c3.58974-4.38591,6.94814-8.95969,10.00375-13.73404,2.86574-4.47768,5.81646-9.27804,6.63859-14.62174,.73327-4.76619-.24381-9.90652-3.62485-13.51203C31.86184,.3154,27.08696-.858,23.0146,.65737c-2.17098,.80784-4.12471,2.29627-5.14654,4.41999-1.47908,3.07408-1.04556,6.39616-.49073,9.63746l4.56937-1.9264c-1.62023-3.70349-3.75608-7.572-7.86667-8.88482-3.77491-1.20561-8.11046,.30736-10.76739,3.13326C.17625,10.37272-.49135,15.10445,.30993,19.46737c.84114,4.57994,3.53759,8.51025,6.35773,12.10143,3.59938,4.58347,7.36162,9.04609,11.04794,13.55984,.85468,1.04652,2.64838,.88715,3.53553,0,1.03483-1.03483,.8568-2.48641,0-3.53553-2.78553-3.41077-5.57106-6.82154-8.35658-10.23231-2.40199-2.94115-4.87894-5.87361-6.52722-9.32514-1.37629-2.88196-2.01165-6.53576-.73129-9.56713,.98421-2.33022,3.45364-4.15895,6.01491-3.97726,3.28471,.23301,4.83431,4.20557,5.97841,6.82074,.49198,1.12456,2.09897,1.47253,3.12188,1.02289,1.2099-.53184,1.66396-1.68474,1.4475-2.94929-.31358-1.83195-.74253-3.99665-.01331-5.78466,.45475-1.11501,1.42193-1.85923,2.43997-2.22431,2.58585-.92733,5.40517-.15643,7.16385,2.22539,5.06337,6.85745-.62648,15.75519-4.42618,21.67044-2.79186,4.34627-5.82598,8.53065-9.09771,12.52801-.85449,1.04401-1.0215,2.51403,0,3.53553,.88184,.88184,2.67611,1.05004,3.53553,0h0Z" fill="#05c787" origin="undraw"/></svg>