<svg xmlns="http://www.w3.org/2000/svg" width="53.43132" height="56.83095" viewBox="0 0 53.43132 56.83095" creator="Katerina Limpitsouni"><g><path d="M29.90544,8.78436C28.3829,2.62885,21.38077-1.63498,15.26087,.6043c-2.88266,1.05477-5.36074,3.19887-6.68926,5.98692-.69328,1.45495-1.08392,2.9874-1.13807,4.60133-.03357,1.00066,.30926,2.61333-.35626,3.20617-2.00421,1.78532,.16872,4.62435,2.43237,4.17846,1.41494-.27871,2.82987-.55741,4.24481-.83612l-3.1646-2.4107c.13503,6.78355,1.57975,13.63088,6.08573,18.90804,4.11221,4.816,10.96246,7.37021,17.10403,5.23507l-3.1646-2.4107c.72482,5.99991,3.21754,11.90741,7.63229,16.14631,2.12121,2.03672,4.84557,3.61718,7.8595,3.62184,2.82323,.00437,5.51907-1.33867,6.99296-3.77556,.53979-.89247,.42801-2.31632-.39091-3.02956-6.63893-5.7822-6.66472-15.46077-8.99297-23.31496-2.42139-8.16837-7.7081-15.16643-14.94574-19.67361-2.73921-1.70582-5.25227,2.61809-2.5236,4.31735,6.91801,4.30813,11.29753,11.05768,13.24335,18.88598,2.03318,8.17978,2.90608,17.41803,9.68343,23.32078l-.39091-3.02956c-.64355,1.06403-2.00371,1.43363-3.16802,1.28744-2.02098-.25376-3.67547-1.86225-4.94615-3.32199-2.7446-3.15295-4.55211-7.28637-5.05322-11.43445-.17955-1.48626-1.46838-3.00039-3.1646-2.4107-4.69256,1.63138-9.49853-.49045-12.4861-4.2447-3.37235-4.23776-4.26965-9.812-4.37446-15.07702-.03414-1.71528-1.56343-2.72609-3.1646-2.4107-1.41494,.27871-2.82987,.55741-4.24481,.83612l2.43237,4.17846c2.24061-1.9959,1.52021-4.6567,1.85154-7.26165,.24612-1.93499,1.52396-3.72989,3.17255-4.74323,3.69303-2.27,8.44084,.11583,9.44713,4.18418,.7722,3.12194,5.59528,1.79955,4.8214-1.3292h0Z" fill="#05c787" origin="undraw"/><path d="M19.29683,35.6656c-.18448,1.91852-.36896,3.83704-.55344,5.75556-.05784,.60146,.32056,1.35609,.73223,1.76777,.43361,.43361,1.14502,.76013,1.76777,.73223,.64656-.02896,1.31714-.24134,1.76777-.73223,.47244-.51465,.66546-1.0734,.73223-1.76777,.18448-1.91852,.36896-3.83704,.55344-5.75556,.05784-.60146-.32056-1.35609-.73223-1.76777-.43361-.43361-1.14502-.76013-1.76777-.73223-.64656,.02896-1.31714,.24134-1.76777,.73223-.47244,.51465-.66546,1.0734-.73223,1.76777h0Z" fill="#05c787"/><path d="M21.69289,36.77886c-.18448,1.91852-.36896,3.83704-.55344,5.75556-.05784,.60146,.32056,1.35609,.73223,1.76777,.43361,.43361,1.14502,.76013,1.76777,.73223,.64656-.02896,1.31714-.24134,1.76777-.73223,.47244-.51465,.66546-1.0734,.73223-1.76777,.18448-1.91852,.36896-3.83704,.55344-5.75556,.05784-.60146-.32056-1.35609-.73223-1.76777-.43361-.43361-1.14502-.76013-1.76777-.73223-.64656,.02896-1.31714,.24134-1.76777,.73223-.47244,.51465-.66546,1.0734-.73223,1.76777h0Z" fill="#05c787"/></g><path d="M2.41402,45.015l24.9408,.48724c3.21874,.06288,3.21864-4.93712,0-5l-24.9408-.48724c-3.21874-.06288-3.21864,4.93712,0,5h0Z" fill="#05c787"/><path d="M16.6584,12.12129c3.21726,0,3.22259-5,0-5-3.21726,0-3.22259,5,0,5h0Z" fill="#05c787"/></svg>