<svg xmlns="http://www.w3.org/2000/svg" width="39.59972" height="34.57601" viewBox="0 0 39.59972 34.57601" creator="Katerina Limpitsouni"><path d="M8.8336,6.09849c6.82294,8.82076,15.11294,16.4165,24.43098,22.53766,2.69717,1.77181,5.2049-2.55597,2.5236-4.31735C26.82337,18.42969,18.93001,11.04492,12.36914,2.56296c-.82683-1.06893-2.66609-.86945-3.53553,0-1.05498,1.05498-.82901,2.46378,0,3.53553h0Z" fill="#05c787" origin="undraw"/><path d="M35.34005,.7126C23.80141,10.58436,12.26277,20.45612,.72414,30.32787c-1.02654,.87825-.90249,2.63304,0,3.53553,1.01739,1.01739,2.50645,.88042,3.53553,0C15.79831,23.99165,27.33695,14.11989,38.87559,4.24814c1.02654-.87825,.90249-2.63304,0-3.53553-1.01739-1.01739-2.50645-.88042-3.53553,0h0Z" fill="#05c787"/></svg>