<svg xmlns="http://www.w3.org/2000/svg" width="39.17975" height="50.21196" viewBox="0 0 39.17975 50.21196" creator="Katerina Limpitsouni"><path d="M4.54886,33.87506C12.74097,24.99536,20.93307,16.11566,29.12517,7.23597c.74988-.81282,1.45767-1.6084,2.40037-2.19705,.4478-.27961,.20113,.0842,.11498-.10882,.08737,.19576,.28254,.53082,.3731,.85774,.64419,2.32554,.79267,4.87974,1.05261,7.27165,.59436,5.46904,.91211,10.96735,1.03691,16.4664,.13766,6.06559,.0344,12.13571-.29072,18.19394l3.1646-2.4107c-11.8896-2.96368-23.10371-8.04037-33.19344-14.99245l.89688,3.42047,.25931-.36806c.77804-1.10437,.19857-2.77975-.89688-3.42047-1.25004-.73115-2.64063-.21005-3.42047,.89688l-.25931,.36806c-.81842,1.16167-.13804,2.70739,.89688,3.42047,10.4125,7.17448,22.11893,12.43826,34.38784,15.49649,1.63973,.40873,3.07664-.77171,3.1646-2.4107,.63865-11.90054,.50228-23.90636-.86869-35.75323-.30594-2.64373-.39908-5.61796-1.31094-8.13762-1.03332-2.85526-3.77473-4.62322-6.78455-3.47392-2.8837,1.10114-4.92726,4.07015-6.95189,6.26473l-6.73324,7.29838C11.11318,19.39195,6.06326,24.86574,1.01333,30.33953c-2.17916,2.36207,1.34795,5.90673,3.53553,3.53553Z" fill="#05c787" origin="undraw"/></svg>