<svg xmlns="http://www.w3.org/2000/svg" width="55.59259" height="56.25544" viewBox="0 0 55.59259 56.25544" creator="Katerina Limpitsouni"><path d="M24.81048,46.2293c-5.83304,3.20429-12.09918,5.31562-18.82194,4.98942l1.76777,4.26777c3.93218-3.53092,6.75979-7.61027,8.57262-12.57778,.48758-1.33606-.55936-2.6505-1.7461-3.0753-6.73816-2.41192-10.65947-10.46305-9.41863-17.34103,1.43661-7.96316,7.95791-14.25419,15.57926-16.50325,8.57917-2.53172,18.05152-.32338,24.17155,6.30351,5.58661,6.04929,7.33043,14.85931,4.0522,22.48266-1.85497,4.31365-5.14936,7.74961-9.36703,9.79513-4.1063,1.99151-8.4482,2.13786-12.86331,1.40685-1.33051-.22029-2.69124,.34835-3.0753,1.7461-.32868,1.19619,.40651,2.8535,1.7461,3.0753,2.32306,.38463,4.59262,.76049,6.95899,.62869,2.63963-.14702,5.2643-.68054,7.72394-1.65425,4.85537-1.92212,8.94309-5.24063,11.71176-9.68483,5.41151-8.6864,4.9778-20.09828-.97747-28.39303C44.38201,2.72135,33.55487-1.37524,22.72181,.40995,12.89893,2.02867,3.97621,9.10026,.95027,18.70567c-3.23181,10.25892,2.00364,22.26237,12.30336,25.94914l-1.7461-3.0753c-1.51597,4.15406-4.01471,7.4333-7.28676,10.37145-1.70215,1.52845-.27097,4.16884,1.76777,4.26777,7.57794,.36769,14.77482-2.06254,21.34553-5.67207,2.82098-1.54966,.30106-5.86903-2.5236-4.31735Z" fill="#05c787" origin="undraw"/><path d="M17.45896,22.28694l1.05436-2.82127-4.17846,1.10317c2.16802,2.28509,4.62419,4.72525,7.80455,5.46013,3.06155,.70743,6.46744-.04779,8.40965-2.64809,.14555-.19487,.84172-1.21788,.84815-1.21213l-1.06598,.2653c-.33484-.22228-.33803-.19033-.00956,.09583,.0997,.18081,.27682,.40748,.39765,.57593,1.04972,1.46341,2.40735,2.53747,4.29278,2.5399,3.75427,.00484,5.56117-3.36846,6.49853-6.49638,.92566-3.0889-3.89852-4.40879-4.8214-1.3292-.24985,.83376-.49987,2.20341-1.30305,2.71166-.46013,.29117-.40568-.0497-.7286-.50182-.8434-1.18085-1.84007-2.16776-3.31046-2.46888-1.65993-.33994-3.10694,.49314-4.0731,1.78993-.5342,.71701-.80164,1.4077-1.62391,1.74289-.55442,.22601-1.37788,.26046-2.0214,.14667-2.38103-.42103-4.18307-2.54697-5.75833-4.20729-1.39161-1.46676-3.55086-.57618-4.17846,1.10317l-1.05436,2.82127c-.47274,1.26496,.52668,2.74024,1.7461,3.0753,1.40054,.38483,2.60084-.47655,3.0753-1.7461h0Z" fill="#05c787"/><path d="M21.90764,30.57096c.45499,.65582,.16253,1.79621-.50883,2.18429-.41879,.24208-.94933,.23911-1.37539,.02043,.45191,.23195-.22319-.31324,.11771,.09021,.09474,.09731,.18525,.1984,.27153,.30328-.16033-.2131-.18903-.25175-.08609-.11594,.23514,.0932,.47838,.63359,.67753,.87018,.11934,.14178,.24354,.27826,.37836,.40566,.51315,.48494,1.16931,.92134,1.85667,1.10768,1.94638,.52765,3.56062-.43888,4.90681-1.75014,.21639-.21077,.42827-.42641,.65236-.62911,.05006-.04614,.1009-.09139,.15255-.13576,.19976-.16575,.13449-.11808-.19581,.14301-.00869-.01473,.30529-.19456,.3191-.2063,.33088-.2813-.5426,.17121-.15293,.06429,.25603-.05834,.15149-.04801-.31362,.03099,.26072,.00378,.16231-.01701-.29524-.06238l.16637,.0423c-.20962-.0487-.38482-.15426-.52562-.31668,.06554,.05446,.12682,.11326,.18384,.17639,.12278,.13431,.08461,.07798-.1145-.16899,.2593,.16238,.48179,.82717,.61707,1.09148,.16547,.32329,.34837,.62814,.56286,.92164,.89004,1.21789,2.02906,1.99012,3.57715,2.05543,1.30827,.05519,2.5587-1.18933,2.5-2.5-.06278-1.40171-1.09842-2.44087-2.5-2.5,.22513,.00481,.43109,.0698,.61788,.19495-.22734-.13691-.19702-.10115,.09097,.10728-.08728-.07774-.16919-.1608-.24571-.24916,.20176,.27404,.22407,.29818,.06691,.07241-.23254-.41715-.4462-.8463-.68279-1.26123-.66567-1.16741-1.64966-2.14809-2.98524-2.48722-2.1894-.55594-3.77557,.89878-5.23188,2.27492-.12541,.11851-.29976,.2301-.40675,.36353,.33532-.25107,.39965-.3026,.19299-.15459-.06945,.04736-.14078,.09169-.214,.13297-.31269,.26164,.56464-.17353,.15258-.06251-.25593,.05914-.15149,.04937,.3133-.02932-.2608-.00279-.16251,.01864,.29486,.06432-.26721-.07552-.23402-.0537,.09957,.06546-.22662-.14766-.20137-.12473,.07577,.0688-.10103,.00214-.44492-.46375-.49565-.55047,.20669,.2666,.22135,.28481,.04399,.05464l-.39091-.50597c-.16937-.21242-.34483-.41591-.54394-.60129-1.27612-1.18813-3.08158-1.63597-4.65627-.75255-1.56356,.87718-2.3592,3.10817-1.28492,4.65666,.74388,1.07224,2.22487,1.6677,3.42047,.89688,1.06589-.68719,1.69411-2.27133,.89688-3.42047h0Z" fill="#05c787"/></svg>