<svg xmlns="http://www.w3.org/2000/svg" width="46.76928" height="25.96246" viewBox="0 0 46.76928 25.96246" creator="Katerina Limpitsouni"><path d="M2.88114,4.31514c3.74727,4.03459,7.49455,8.06917,11.24182,12.10376l1.10317-4.17846c-5.44399,2.13773-10.36664,5.289-14.49489,9.44635-2.26983,2.28583,1.26405,5.82303,3.53553,3.53553,3.49076-3.51537,7.66813-6.34615,12.28856-8.16049,1.7493-.68691,2.47519-2.70124,1.10317-4.17846C13.91122,8.84877,10.16394,4.81419,6.41667,.7796,4.22213-1.5832,.69254,1.95874,2.88114,4.31514h0Z" fill="#05c787" origin="undraw"/><path d="M17.31914,25.95455h27.03519c3.21726,0,3.22259-5,0-5H17.31914c-3.21726,0-3.22259,5,0,5h0Z" fill="#05c787"/></svg>