<svg xmlns="http://www.w3.org/2000/svg" width="58.02589" height="26.60658" viewBox="0 0 58.02589 26.60658" creator="Katerina Limpitsouni"><path d="M2.41118,6.6878c14.19251-.5618,28.38501-1.1236,42.57752-1.6854,3.20675-.12694,3.22305-5.12758,0-5C30.79619,.5642,16.60368,1.126,2.41118,1.6878c-3.20675,.12694-3.22305,5.12758,0,5h0Z" fill="#05c787" origin="undraw"/><path d="M17.48464,16.40381l19.28969-.83323c1.34932-.05828,2.5-1.1073,2.5-2.5,0-1.30902-1.14461-2.55855-2.5-2.5l-19.28969,.83323c-1.34932,.05828-2.5,1.1073-2.5,2.5,0,1.30902,1.14461,2.55855,2.5,2.5h0Z" fill="#05c787"/><path d="M9.51605,26.60099c15.36792-.9339,30.73584-1.86779,46.10377-2.80169,3.19703-.19428,3.21916-5.19563,0-5-15.36792,.9339-30.73584,1.86779-46.10377,2.80169-3.19703,.19428-3.21916,5.19563,0,5h0Z" fill="#05c787"/></svg>