<svg xmlns="http://www.w3.org/2000/svg" width="61.89406" height="44.66259" viewBox="0 0 61.89406 44.66259" creator="Katerina Limpitsouni"><path d="M2.5,5H59.39406l-2.5-2.5V42.16264c0,3.21726,5,3.22259,5,0v-.00005c0-1.35145-1.14541-2.5-2.5-2.5H2.5C1.14855,39.66259,0,40.808,0,42.16259v.00005c0,3.21726,5,3.22259,5,0V2.64227C5-.57499,0-.58032,0,2.64227V42.16264H5v-.00005c-.83333,.83333-1.66667,1.66667-2.5,2.5H59.39406l-2.5-2.5v.00005c0,3.21726,5,3.22259,5,0V2.5c0-1.35145-1.14541-2.5-2.5-2.5H2.5C-.71726,0-.72259,5,2.5,5h0Z" fill="#05c787" origin="undraw"/><path d="M1.32796,1.8354C-.19237,8.14945,5.74164,12.93552,9.63913,16.97497c4.2488,4.40354,8.62678,8.68242,13.12662,12.8291,2.02056,1.86198,4.1908,3.99715,7.00471,4.49962,3.09008,.55178,5.5036-1.05852,7.70264-3.03067,4.54401-4.07519,8.92559-8.34191,13.17764-12.71984,2.36459-2.43459,4.70727-4.89884,6.96446-7.43379,2.15481-2.41996,4.17737-5.66622,2.79134-8.99889-.5181-1.24575-1.65666-2.13596-3.0753-1.7461-1.17649,.32332-2.26783,1.82081-1.7461,3.0753,.82676,1.98792-1.04333,3.63118-2.2758,4.98379-1.76252,1.93434-3.55162,3.84449-5.36711,5.72921-3.63102,3.76948-7.36592,7.43867-11.19931,11.00215-.92919,.86377-1.8615,1.72488-2.80537,2.57263-.69217,.62169-1.46636,1.39891-2.39684,1.63385-1.83839,.46417-3.69763-1.68598-4.88855-2.77995-3.86262-3.54815-7.63554-7.19406-11.31457-10.93222-2.00674-2.03899-3.98597-4.10518-5.93557-6.19888-1.52515-1.63787-3.85118-3.81009-3.25269-6.29568C6.90225,.03772,2.08207-1.29652,1.32796,1.8354h0Z" fill="#05c787"/></svg>