<svg xmlns="http://www.w3.org/2000/svg" width="55.12815" height="55.0258" viewBox="0 0 55.12815 55.0258" creator="Katerina Limpitsouni"><path d="M39.04474,7.70666c4.74467-.94545,9.48934-1.8909,14.23401-2.83635l-3.1646-2.4107c-.56835,4.97633-1.1367,9.95267-1.70505,14.929-.14893,1.304,1.25617,2.55571,2.5,2.5,1.48174-.06637,2.34044-1.10297,2.5-2.5,.56835-4.97633,1.1367-9.95267,1.70505-14.929,.19814-1.73488-1.74745-2.69309-3.1646-2.4107l-14.23401,2.83635c-1.28491,.25604-2.14107,1.85479-1.7461,3.0753,.44179,1.36517,1.69866,2.02041,3.0753,1.7461h0Z" fill="#05c787" origin="undraw"/><path d="M39.35781,19.15638c3.96007-3.82309,7.92015-7.64619,11.88022-11.46928,.94263-.91002,.98301-2.63315,0-3.53553-1.01247-.92943-2.52982-.97093-3.53553,0-3.96007,3.82309-7.92015,7.64619-11.88022,11.46928-.94263,.91002-.98301,2.63315,0,3.53553,1.01247,.92943,2.52982,.97093,3.53553,0h0Z" fill="#05c787"/><path d="M21.80777,36.83521c3.96007-3.82309,7.92015-7.64619,11.88022-11.46928,.94263-.91002,.98301-2.63315,0-3.53553-1.01247-.92943-2.52982-.97093-3.53553,0-3.96007,3.82309-7.92015,7.64619-11.88022,11.46928-.94263,.91002-.98301,2.63315,0,3.53553,1.01247,.92943,2.52982,.97093,3.53553,0h0Z" fill="#05c787"/><path d="M4.25773,54.31308c3.96007-3.82309,7.92015-7.64619,11.88022-11.46928,.94263-.91002,.98301-2.63315,0-3.53553-1.01247-.92943-2.52982-.97093-3.53553,0-3.96007,3.82309-7.92015,7.64619-11.88022,11.46928-.94263,.91002-.98301,2.63315,0,3.53553,1.01247,.92943,2.52982,.97093,3.53553,0h0Z" fill="#05c787"/></svg>