<svg xmlns="http://www.w3.org/2000/svg" width="33.81058" height="48.19435" viewBox="0 0 33.81058 48.19435" creator="Katerina Limpitsouni"><path d="M6.62968,22.49499c5.1387,7.33487,9.13401,15.37464,11.80592,23.92392,.8552,2.73636,4.74498,2.1497,4.9107-.6646,.48633-8.25894,1.86803-16.41136,4.08903-24.38048,.56013-2.00979-1.2657-3.34147-3.0753-3.0753-4.6913,.69003-9.52718,.51961-14.16807-.426-1.32175-.26932-2.70055,.38226-3.0753,1.7461-.33939,1.23518,.41682,2.80445,1.7461,3.0753,5.58844,1.13868,11.18988,1.25508,16.82647,.426l-3.0753-3.0753c-2.3379,8.38858-3.75576,17.01696-4.26763,25.70967l4.9107-.6646c-2.79549-8.94469-6.93203-17.44197-12.30996-25.11831-.77369-1.10435-2.18715-1.61826-3.42047-.89688-1.09277,.63917-1.67548,2.30912-.89688,3.42047h0Z" fill="#05c787" origin="undraw"/><path d="M23.36016,12.05542c3.13222-.59035,6.45606-2.59301,5.80685-6.29275-.6061-3.45405-3.9432-4.77638-7.00905-5.34658C16.17956-.6958,9.23334,.18838,5.90266,5.93169l.89688-.89688C3.09041,6.71871-.27557,10.07119,.01787,14.44938c.31394,4.68406,4.33217,6.65516,8.44991,7.37166,4.83896,.84199,9.7663,1.15624,14.6697,.83651,3.90644-.25472,11.03502-.63753,10.65879-6.23946-.16797-2.50094-1.99509-4.42366-4.19561-5.41596-.99996-.45092-2.04529-.78736-3.04301-1.24131-.43687-.19877-.8682-.42416-1.30624-.61678-.58247-.25613-.03712-.0118-.10988-.02539-.23748-.26167-.26746-.26669-.08993-.01507,.14457,.27996,.1628,.23881,.05467-.12345-.25693-1.32626-1.84583-2.08397-3.0753-1.7461-1.3865,.38103-2.00377,1.74522-1.7461,3.0753,.44408,2.29231,2.50439,3.23596,4.43033,4.0797,.56951,.24949,4.3711,1.32125,4.06481,2.29245-.1618,.51306-1.87336,.60612-2.26466,.65823-1.44,.19177-2.89529,.30175-4.34579,.373-2.74359,.13477-5.49673,.07615-8.23249-.16974-2.32273-.20877-4.88999-.39948-7.08506-1.24691-1.61194-.62231-2.29122-1.98007-1.5773-3.6348,.83893-1.94447,2.78331-2.34581,4.30142-3.50456,.82991-.63345,1.24278-1.73602,2.08294-2.42414,.64862-.53125,1.43586-.95644,2.22817-1.22832,2.60505-.89392,5.43232-.63782,8.07368-.0334,.64945,.14861,2.23613,.37581,2.33078,1.26177-.04049-.37905-.09215-.10248-.46593,.07096-.5362,.24881-1.22193,.32249-1.7948,.43046-1.32759,.25022-2.08268,1.85055-1.7461,3.0753,.38247,1.39173,1.74388,1.99704,3.0753,1.7461h0Z" fill="#05c787"/></svg>