<svg xmlns="http://www.w3.org/2000/svg" width="70.44136" height="48.259" viewBox="0 0 70.44136 48.259" creator="Katerina Limpitsouni"><path d="M12.03164,24.75888c-5.02026,.74629-9.70553,3.97902-11.42026,8.8642-1.73932,4.95521,.32753,10.6106,4.99251,13.08537,4.56034,2.41926,10.41734,1.96679,14.58751-1.0726,4.13-3.0101,6.15428-8.11539,4.85599-13.12601-1.42909-5.51543-7.4889-9.80139-13.17681-7.76634-1.27068,.45463-2.12306,1.70362-1.7461,3.0753,.3377,1.22884,1.79797,2.2031,3.0753,1.7461,1.43432-.51318,2.72233-.38157,4.0382,.34462,.75661,.41755,1.03223,.63011,1.61678,1.26717,.35794,.3901,.30665,.3383,.58252,.79069,.09343,.15322,.18282,.30964,.26696,.46824-.0021-.00397,.33544,.72858,.19363,.38086,.63931,1.56768,.70943,3.05558,.35494,4.49331-.39373,1.59692-1.04723,2.64175-2.34849,3.79643-1.07459,.95354-2.56146,1.64331-4.14592,1.99036-1.40685,.30815-3.14023,.22702-4.74242-.31899-1.48619-.50648-2.61916-1.45975-3.42454-2.82455-.65348-1.1074-.73419-2.87588-.39788-4.20627,.90557-3.58226,4.37712-5.60308,8.16728-6.16651,1.3367-.19871,2.07276-1.88662,1.7461-3.0753-.39345-1.43169-1.73455-1.94541-3.0753-1.7461h0Z" fill="#05c787" origin="undraw"/><path d="M57.03552,24.75888c-5.02026,.74629-9.70553,3.97902-11.42026,8.8642-1.73932,4.95521,.32753,10.6106,4.99251,13.08537,4.56034,2.41926,10.41734,1.96679,14.58751-1.0726,4.13-3.0101,6.15428-8.11539,4.85599-13.12601-1.42909-5.51543-7.4889-9.80139-13.17681-7.76634-1.27068,.45463-2.12306,1.70362-1.7461,3.0753,.3377,1.22884,1.79797,2.2031,3.0753,1.7461,1.43432-.51318,2.72233-.38157,4.0382,.34462,.75661,.41755,1.03223,.63011,1.61678,1.26717,.35794,.3901,.30665,.3383,.58252,.79069,.09343,.15322,.18282,.30964,.26696,.46824-.0021-.00397,.33544,.72858,.19363,.38086,.63931,1.56768,.70943,3.05558,.35494,4.49331-.39373,1.59692-1.04723,2.64175-2.34849,3.79643-1.07459,.95354-2.56146,1.64331-4.14592,1.99036-1.40685,.30815-3.14023,.22702-4.74242-.31899-1.48619-.50648-2.61916-1.45975-3.42454-2.82455-.65348-1.1074-.73419-2.87588-.39788-4.20627,.90557-3.58226,4.37712-5.60308,8.16728-6.16651,1.3367-.19871,2.07276-1.88662,1.7461-3.0753-.39345-1.43169-1.73455-1.94541-3.0753-1.7461h0Z" fill="#05c787"/><path d="M14.88228,36.77285c2.9369-5.26803,5.1649-10.98048,7.30463-16.60697,2.10575-5.53712,4.19116-11.19341,5.46876-16.98987,.31591-1.43329-.70089-3.34109-2.4107-3.1646-3.68116,.37997-6.44135,3.56322-5.46106,7.34839,.44606,1.72238,1.74535,3.11668,3.3945,3.73829,1.66133,.62619,3.40885,.38671,5.11296,.10112,1.3326-.22333,2.07749-1.86943,1.7461-3.0753-.38821-1.41263-1.73881-1.97008-3.0753-1.7461-.61185,.10254-2.0053,.4651-2.33914-.25498-.20305-.43798,.13292-1.06094,.62195-1.11141l-2.4107-3.1646c-1.25245,5.68234-3.28719,11.22708-5.34309,16.65864-2.02198,5.34195-4.13958,10.74522-6.92626,15.7438-1.5684,2.8133,2.74859,5.33755,4.31735,2.5236h0Z" fill="#05c787"/><path d="M22.72866,17.60421c7.38185,.26512,14.76369,.53025,22.14554,.79537,3.21809,.11558,3.21345-4.88459,0-5-7.38185-.26512-14.76369-.53025-22.14554-.79537-3.21809-.11558-3.21345,4.88459,0,5h0Z" fill="#05c787"/><path d="M41.33594,32.21833c2.87474-7.95509,5.74948-15.91019,8.62422-23.86528,.3386-.93699-.20581-2.40359-1.1489-2.82328-.74432-.33124-1.43118-.5731-2.23242-.72287-.35259-.06591-.71636-.09344-1.06153-.19437-.06845-.02001-.51928-.21516-.55038-.21141,.23189-.02796,.13009,1.439,.00108,1.33406-.06069,.12272-.09976,.15638-.1172,.101-.02866-.07379,.04383-.08657,.21747-.03834,.14685,.10314,.83205,.03821,.97974,.06393,.2819,.0491,.50974,.16683,.78323,.23762,.82418,.21334,1.65419,.03477,2.47394-.11113,.3958-.07044,.78949-.15233,1.18538-.22227,.17554-.03101,.38297-.03365,.55171-.09224l-.29656,.04493c.49266-.01149,.21165-.11338-.84304-.30567l-1.1489-1.49408,.01734,.04286c.50605,1.25077,1.66563,2.1335,3.0753,1.7461,1.1865-.32607,2.2555-1.81623,1.7461-3.0753-.90481-2.23637-2.82581-1.98539-4.78717-1.62219-.31427,.0582-.62833,.11788-.94241,.17706-.69089,.13018-.04939,.10004,.04519,.0575,.30774,.06267,.33485,.0499,.08135-.03828-.11126-.0575-.22884-.09534-.35276-.11353-.28773-.07543-.59122-.1016-.88513-.14124-.71282-.09612-1.40943-.18454-2.12944-.12257-2.6166,.22519-4.99996,2.49296-4.23301,5.27396,.33177,1.203,1.26638,2.20723,2.35437,2.78658,1.13174,.60265,2.4213,.45754,3.54416,.95723l-1.1489-2.82328c-2.87474,7.95509-5.74948,15.91019-8.62422,23.86528-.45891,1.26992,.51666,2.73748,1.7461,3.0753,1.38909,.38168,2.61472-.47158,3.0753-1.7461h0Z" fill="#05c787"/><path d="M59.35183,35.00275c-3.50572-5.96644-7.01144-11.93289-10.51716-17.89933-.50184-.85408-1.00367-1.70816-1.50551-2.56225-1.62911-2.77261-5.95258-.25943-4.31735,2.5236,3.50572,5.96644,7.01144,11.93289,10.51716,17.89933,.50184,.85408,1.00367,1.70816,1.50551,2.56225,1.62911,2.77261,5.95258,.25943,4.31735-2.5236h0Z" fill="#05c787"/><path d="M20.31919,20.95354c5.06953,3.72927,10.13905,7.45854,15.20858,11.18782l2.13567,1.57105c1.08834,.80061,2.78953,.18185,3.42047-.89688,.74243-1.26934,.19403-2.61797-.89688-3.42047-5.06953-3.72927-10.13905-7.45854-15.20858-11.18782l-2.13567-1.57105c-1.08834-.80061-2.78953-.18185-3.42047,.89688-.74243,1.26934-.19403,2.61797,.89688,3.42047h0Z" fill="#05c787"/><path d="M36.79858,33.33179c.08702,.1066,.1727,.21416,.25713,.32282l-.39091-.50597c.73864,.96238,1.34926,2.01287,1.82123,3.13043l-.25202-.5972c.17955,.4323,.33816,.87206,.47563,1.31953l2.4107-3.1646c-.959,.00739-1.91801,.01478-2.87701,.02216-.6441,.00496-1.31096,.27543-1.76777,.73223-.43361,.43361-.76013,1.14502-.73223,1.76777,.02896,.64656,.24134,1.31714,.73223,1.76777,.48697,.44703,1.09223,.73744,1.76777,.73223,.959-.00739,1.91801-.01478,2.87701-.02216,1.58244-.01219,2.89342-1.59324,2.4107-3.1646-.32883-1.07041-.76643-2.12157-1.29478-3.10893-.53069-.99173-1.19172-1.8968-1.90214-2.76701-.38105-.46676-1.19129-.73223-1.76777-.73223-.61317,0-1.3456,.27235-1.76777,.73223-.43736,.47644-.76206,1.10194-.73223,1.76777l.0893,.6646c.11878,.42351,.33309,.79123,.64293,1.10317h0Z" fill="#05c787"/></svg>