<svg xmlns="http://www.w3.org/2000/svg" width="41.60446" height="62.92115" viewBox="0 0 41.60446 62.92115" creator="Katerina Limpitsouni"><path d="M37.37888,6.73356c-11.18602-1.68187-23.50156,1.53495-30.84736,10.57909C2.97324,21.69359,.72691,26.90155,.12764,32.52216c-.58256,5.46391,.86649,10.92842,3.58128,15.66077,3.16011,5.50862,7.83584,10.00323,12.67488,14.03237,1.03685,.86332,2.51966,1.01587,3.53553,0,.88828-.88828,1.04253-2.66749,0-3.53553-7.14262-5.94718-14.84138-13.56455-14.92223-23.52673-.07733-9.52872,6.26506-18.01583,14.89996-21.64202,5.03434-2.11415,10.76003-2.76686,16.15263-1.95606,1.33353,.2005,2.6875-.33475,3.0753-1.7461,.32437-1.18052-.40277-2.87332-1.7461-3.0753h0Z" fill="#05c787" origin="undraw"/><path d="M27.72791,4.66572c3.37158,2.29309,6.74317,4.58619,10.11475,6.87928V7.22765c-3.20603,1.39124-5.90456,3.85894-7.72241,6.82982-.6834,1.11688-.2803,2.79852,.89688,3.42047,1.21851,.6438,2.69099,.29531,3.42047-.89688,.19133-.31268,.39021-.61983,.60281-.91854,.14528-.20412,.23839-.31973,.02782-.05395,.12409-.15663,.25024-.31149,.3801-.46339,.47611-.55693,.99396-1.07802,1.54666-1.55897,.12556-.10926,.25827-.21079,.38268-.32111,.22317-.1979-.33621,.23774,.04689-.03734,.32494-.23332,.65242-.46085,.99278-.67144,.624-.38607,1.27605-.71935,1.94891-1.01133,.77994-.33845,1.2382-1.35999,1.2382-2.15868,0-.92823-.49509-1.65327-1.2382-2.15868-3.37158-2.29309-6.74317-4.58619-10.11475-6.87928-1.08419-.73738-2.81921-.24114-3.42047,.89688-.66919,1.26658-.26019,2.63352,.89688,3.42047h0Z" fill="#05c787"/></svg>