<svg xmlns="http://www.w3.org/2000/svg" width="62.22555" height="57.88495" viewBox="0 0 62.22555 57.88495" creator="Katerina Limpitsouni"><path d="M18.58129,2.01493C7.46318,6.36266-.35098,17.31997,.01215,29.39644c.18677,6.21116,2.34932,12.26756,6.17289,17.16272,3.85513,4.93558,9.4232,8.4673,15.43312,10.15966,12.25327,3.45045,25.88996-.91953,33.73527-10.94716,7.28405-9.31024,9.28783-22.32824,3.52619-32.92515-3.22511-5.93168-8.79029-10.00702-15.29424-11.68265C36.79065-.58668,29.66101-.02279,22.76342,.6659c-1.34344,.13414-2.5,1.053-2.5,2.5,0,1.24788,1.14827,2.63497,2.5,2.5,10.04139-1.00259,22.28997-2.09194,29.58052,6.40519,6.35541,7.40723,6.16692,18.65048,1.59953,26.86017-5.27337,9.47867-15.61876,14.81591-26.4016,13.84035-5.30664-.48011-10.58965-2.70689-14.57034-6.25965-3.89431-3.47566-6.4612-8.08115-7.50874-13.18642C3.21915,22.39097,9.50067,10.90708,19.91049,6.83633c1.25668-.49142,2.13051-1.67648,1.7461-3.0753-.3294-1.19861-1.81083-2.24057-3.0753-1.7461h0Z" fill="#05c787" origin="undraw"/><path d="M28.41032,17.4787l-1.60326,11.99337c-.17401,1.30172,1.27401,2.55491,2.5,2.5,1.50314-.06733,2.31354-1.10519,2.5-2.5l1.60326-11.99337c.17401-1.30172-1.27401-2.55491-2.5-2.5-1.50314,.06733-2.31354,1.10519-2.5,2.5h0Z" fill="#05c787"/><path d="M27.86575,31.67358c4.05284,4.49755,8.10568,8.9951,12.15852,13.49265,.87798,.97431,2.6546,.95964,3.53553,0,.95536-1.04072,.93652-2.49625,0-3.53553-4.05284-4.49755-8.10568-8.9951-12.15852-13.49265-.87798-.97431-2.6546-.95964-3.53553,0-.95536,1.04072-.93652,2.49625,0,3.53553h0Z" fill="#05c787"/></svg>