<svg xmlns="http://www.w3.org/2000/svg" width="27.65182" height="28.4169" viewBox="0 0 27.65182 28.4169" creator="Katerina Limpitsouni"><path d="M13.5504,19.26321c2.52209-4.57641,5.04418-9.15282,7.56627-13.72923,.63116-1.14525,.31724-2.779-.89688-3.42047-1.17314-.61982-2.74636-.32632-3.42047,.89688-2.52209,4.57641-5.04418,9.15282-7.56627,13.72923-.63116,1.14525-.31724,2.779,.89688,3.42047,1.17314,.61982,2.74636,.32632,3.42047-.89688h0Z" fill="#05c787" origin="undraw"/><path d="M4.63518,17.46454c2.52209-4.57641,5.04418-9.15282,7.56627-13.72923,.63116-1.14525,.31724-2.779-.89688-3.42047-1.17314-.61982-2.74636-.32632-3.42047,.89688C5.36201,5.78813,2.83991,10.36454,.31782,14.94095c-.63116,1.14525-.31724,2.779,.89688,3.42047,1.17314,.61982,2.74636,.32632,3.42047-.89688h0Z" fill="#05c787"/><path d="M19.76772,27.20518c2.52209-4.57641,5.04418-9.15282,7.56627-13.72923,.63116-1.14525,.31724-2.779-.89688-3.42047-1.17314-.61982-2.74636-.32632-3.42047,.89688-2.52209,4.57641-5.04418,9.15282-7.56627,13.72923-.63116,1.14525-.31724,2.779,.89688,3.42047,1.17314,.61982,2.74636,.32632,3.42047-.89688h0Z" fill="#05c787"/></svg>