<svg xmlns="http://www.w3.org/2000/svg" width="49.48193" height="65.15591" viewBox="0 0 49.48193 65.15591" creator="Katerina Limpitsouni"><path d="M11.71729,35.0685c.2733,6.79034,.66039,13.57571,1.16958,20.35248,.12268,1.63274,.24443,3.26614,.38885,4.89713,.14638,1.65314,.51491,3.27938,2.07928,4.16255,1.3119,.74064,3.1084,.69402,4.57349,.65889,1.72608-.04139,3.45679-.29154,5.13488-.69145,1.05421-.25123,1.84547-1.34269,1.8354-2.4107-.07369-7.8142-.14737-15.62841-.22106-23.44261-.03032-3.21567-5.0304-3.22362-5,0,.07369,7.8142,.14737,15.62841,.22106,23.44261l1.8354-2.4107c-1.18538,.28249-2.36117,.46347-3.57982,.50512-.67477,.02306-1.35951,.02948-2.03281-.03083-1.24527-.11153,.3487,.38136,.17467,.46188,.18619-.08614-.30249-3.74072-.33488-4.16221-.11292-1.46944-.22022-2.9393-.32192-4.40955-.38985-5.63609-.6949-11.27765-.9221-16.92261-.12906-3.20649-5.12972-3.22297-5,0h0Z" fill="#05c787" origin="undraw"/><path d="M24.75472,36.52204c-4.13043-3.0518-8.90607-5.06657-13.06927-8.06378-3.21794-2.31669-6.48174-5.83145-6.70818-10.00438-.23787-4.38366,2.37187-8.99511,5.71175-11.73617,1.58856-1.30375,3.75639-1.91196,5.79339-1.71285,2.10452,.20572,4.01143,1.43821,5.85035,2.39143,4.76684,2.47094,9.36905,5.26043,12.8252,9.44858l1.10317-4.17846c-4.89854,1.6295-10.03573,3.83655-12.68709,8.55876-2.6991,4.80725-2.22218,10.51933-1.53697,15.77232,.1746,1.33856,1.02403,2.5,2.5,2.5,1.21515,0,2.67588-1.15165,2.5-2.5-.5339-4.09308-1.34207-9.06963,.66838-12.90358,1.96834-3.75364,6.07872-5.33998,9.88488-6.6061,1.89025-.62879,2.31816-2.70615,1.10317-4.17846-3.5645-4.31944-8.3754-7.36294-13.28389-9.94207-2.35495-1.23739-4.80196-2.73326-7.45735-3.17957-2.96753-.49877-5.96498,.00078-8.60805,1.44712-2.51469,1.37609-4.48319,3.75933-6.07057,6.09988C1.7244,10.019,.57007,12.66456,.16352,15.40304c-.84659,5.70259,1.67032,10.9124,5.7856,14.76623,4.79338,4.48885,11.04859,6.80337,16.28201,10.67012,1.08667,.8029,2.79053,.18014,3.42047-.89688,.74359-1.27131,.19237-2.61567-.89688-3.42047h0Z" fill="#05c787"/><path d="M35.28263,18.24224c3.45434,1.00479,6.85475,2.16301,8.43296,5.69239,1.48336,3.31726,.75374,7.17153-1.14663,10.15703-1.65487,2.59982-4.53482,4.70687-7.71784,4.62313-3.20912-.08443-6.04868-2.38569-7.81799-4.90622-.7747-1.10363-2.18639-1.61871-3.42047-.89688-1.09191,.63867-1.67652,2.30981-.89688,3.42047,2.16803,3.08855,5.06302,5.65807,8.71105,6.81877,3.63649,1.15703,7.67028,.43786,10.79719-1.70975,6.53837-4.49065,9.48216-13.81744,5.35154-20.89398-2.41312-4.13413-6.5711-5.84865-10.96373-7.12636-3.09569-.90046-4.41767,3.92303-1.3292,4.8214h0Z" fill="#05c787"/><path d="M40.88493,24.56031c-1.60753,.89163-2.94115,2.48796-3.70089,4.1496-.86533,1.89257-1.23632,3.97656-.6509,6.0171,.28979,1.0101,.80303,2.0207,1.53713,2.78246,1.27582,1.3239,3.27259,1.16256,4.53732-.05345,1.31048-1.25999,2.27066-2.91348,2.97151-4.57424,.93242-2.20951,1.22426-4.6134,.08825-6.81216-.60135-1.16391-2.32644-1.60222-3.42047-.89688-1.18655,.76499-1.54008,2.17555-.89688,3.42047,.11908,.23989,.09835,.17842-.06219-.18442,.03543,.09348,.06675,.18833,.09395,.28453,.02713,.09598,.05029,.19291,.06949,.29078,.04605,.26921,.03676,.19621-.02787-.219-.05697,.11771,.01583,.46587,.00932,.60622l-.00947,.15284c-.02705,.27285-.01526,.20448,.03537-.2051-.08339,.15004-.08221,.43915-.12496,.61005-.05053,.20199-.10969,.4018-.17537,.59936-.05708,.17169-.12452,.33898-.18625,.50887-.07,.17465-.03599,.09597,.10204-.23604-.04169,.09612-.08453,.19174-.12851,.28684-.32977,.71297-.72375,1.39675-1.1807,2.03588-.06088,.08516-.12286,.16951-.18596,.25304,.23235-.29778,.26553-.34309,.09955-.13593-.12021,.13833-.23584,.28017-.35883,.41618-.18946,.20952-.52546,.37164,.06466,.03393,.77176-.37423,1.51228-.28,2.22154,.28268-.1713-.19044-.12968-.1323,.12484,.17442,.00485-.09367-.24962-.42193-.3035-.51394-.25189-.43014,.14919,.49371,.0184,.04823-.05641-.19215-.12104-.37914-.16501-.57511-.02187-.09765-.04093-.19584-.05718-.29458,.05067,.41705,.06225,.48941,.03475,.21708-.00613-.20112-.02105-.39978-.01531-.60141,.00389-.13675,.05834-.32144,.03089-.44973-.0599,.41221-.06691,.48163-.02101,.20825,.01929-.10189,.04111-.20323,.06545-.30404,.04858-.20152,.1072-.40058,.17455-.59662,.03376-.09812,.06968-.19544,.10777-.29196l-.13146,.30988c.09274-.04902,.22125-.45749,.27683-.55945,.09979-.18304,.20681-.36211,.32005-.53714,.07763-.11999,.34086-.37759,.35798-.51233-.22064,.28157-.27218,.35007-.15462,.20549,.04755-.05869,.09617-.11648,.14587-.17338,.13199-.15204,.27003-.29908,.41515-.43869,.07231-.06975,.14639-.13757,.22224-.20345,.20267-.16821,.15164-.13136-.15309,.11054,.11086-.00214,.40163-.25871,.50915-.31835,1.14464-.63488,1.61714-2.30329,.89688-3.42047-.74727-1.15907-2.19597-1.57606-3.42047-.89688h0Z" fill="#05c787"/><path d="M21.59168,15.83696c-2.10189-1.92904-4.492-3.55537-7.10159-4.71404-.63492-.28191-1.22911-.44404-1.9264-.25202-.5799,.15969-1.20833,.60807-1.49408,1.1489-.30655,.5802-.46021,1.28308-.25202,1.9264,.18758,.57965,.56717,1.23579,1.1489,1.49408,1.78665,.79328,3.46923,1.79661,5.01787,2.98945l-.50597-.39091c.54403,.42319,1.06995,.86764,1.57775,1.33368,.48531,.4454,1.09824,.73223,1.76777,.73223,.61317,0,1.3456-.27235,1.76777-.73223,.88379-.96276,1.02906-2.5911,0-3.53553h0Z" fill="#05c787"/></svg>