<svg xmlns="http://www.w3.org/2000/svg" width="66.8879" height="37.07522" viewBox="0 0 66.8879 37.07522" creator="Katerina Limpitsouni"><path d="M54.13106,.78493c-13.55939,.21141-27.12944,.2816-40.68572,.63722-2.83711,.07443-5.84046,.38687-8.23003,2.0628C2.80683,5.17413,1.26859,7.84644,.60606,10.68141-.12773,13.82127-.02743,17.14357,.06125,20.34547c.08479,3.06134,.44092,6.10993,1.67894,8.9356,1.12837,2.57539,3.04863,4.87738,5.61448,6.10871,2.75365,1.32146,5.82953,1.4533,8.82962,1.56033,6.6847,.23847,13.38157,.13588,20.05587-.30647,5.76787-.38227,11.8713-.65249,17.44829-2.29534,5.34019-1.57309,9.62014-4.83118,11.50352-10.20102,1.07701-3.07074,1.36225-6.47073,1.61632-9.69632,.25346-3.21781-.01749-6.62902-2.00801-9.30041-1.87224-2.51264-4.79751-4.05343-7.86315-4.55195-3.59388-.58441-7.41568-.91805-10.99964-.1539-3.1453,.67062-1.81426,5.49162,1.3292,4.8214,2.66747-.56874,5.58988-.2109,8.26918,.15314,1.8787,.25526,3.87195,.96112,5.10515,2.48081,1.38367,1.7051,1.33541,4.0655,1.1977,6.13783-.15953,2.40074-.40764,4.85374-.99575,7.19094-.54552,2.16795-1.47829,4.10985-3.16966,5.61079-1.45001,1.28676-3.3016,2.07882-5.13865,2.63567-4.75699,1.44194-9.9034,1.70242-14.8298,2.06581-5.77598,.42606-11.57071,.59731-17.36177,.51323-2.65909-.03861-5.42547,.04126-8.06033-.36032-2.17541-.33156-4.04947-1.21207-5.26286-3.1028-1.23143-1.91883-1.71154-4.1617-1.87338-6.41164-.19672-2.73485-.2512-5.58247-.01418-8.31566,.18456-2.12816,.82093-4.52731,2.5161-5.96842,1.68193-1.42986,4.11676-1.43996,6.20652-1.48205,13.42379-.27036,26.85119-.41918,40.27609-.6285,3.21432-.05012,3.22398-5.05027,0-5h0Z" fill="#05c787" origin="undraw"/><path d="M18.11793,20.70733c1.9835,.29432,3.82605-.13955,5.34891-1.49376,1.26439-1.12436,2.02156-2.83822,1.93309-4.5351-.20461-3.92473-4.01193-6.69272-7.80508-5.58394-3.78521,1.10646-5.48625,4.81272-5.84668,8.45155-.35777,3.61186,.9077,7.29529,3.8794,9.48237,3.26094,2.39995,7.98045,1.67527,10.21051-1.73602,.71708-1.09691,.25599-2.81136-.89688-3.42047-1.24835-.65956-2.65517-.27379-3.42047,.89688-.02794,.04274-.22228,.30694-.03379,.06846,.20246-.25614-.07041,.06014-.12735,.11648-.06975,.06901-.14644,.1306-.21591,.19961,.03258-.03236,.34882-.21628,.11296-.09716-.20459,.10332-.39569,.23381-.60328,.33483,.04437-.02159,.39389-.1195,.13491-.07231-.15837,.02886-.32301,.08904-.4799,.13219-.4543,.12495,.34499,.01384-.12633,.01468-.08298,.00015-.80006-.01876-.46325,.00965,.32088,.02707,.00274-.00094-.06039-.01831-.1369-.03767-.27648-.07397-.41367-.1096-.03493-.00907-.37818-.12048-.10092-.02194,.27143,.09647-.13282-.06841-.18489-.09592-.22218-.11736-.42513-.25576-.63561-.3912,.37598,.24193-.10715-.10715-.23226-.22991-.15456-.15166-.29223-.31573-.43792-.47526-.24534-.26866,.16979,.31119,.00123-.01076-.06557-.12524-.15884-.24178-.23105-.3641-.13181-.22328-.25723-.45519-.35813-.6942,.14776,.35-.0531-.20651-.08556-.31364-.08226-.27143-.14842-.54752-.20263-.82583-.02326-.11939-.04591-.23933-.06327-.35976,.0526,.36494,.00924-.01985-.0014-.18498-.0341-.52951-.02753-1.06129,.01415-1.59022,.01251-.15881,.10416-.71713,.02219-.27773,.05661-.30343,.109-.60573,.18411-.90542,.06542-.26105,.14254-.51904,.23137-.77305,.03787-.10829,.07612-.21706,.11976-.3232-.04413,.1073-.19507,.38055,.03081-.02817,.11063-.20018,.22309-.39651,.34217-.59183,.01186-.01945,.2293-.3253,.07143-.11664-.1756,.23209,.20239-.21839,.24447-.2607,.11495-.11556,.50608-.39617,.16823-.17739,.21877-.14166,.44075-.26223,.66587-.39155,.24514-.14082-.04538,.02759-.09096,.03913,.13676-.03463,.28228-.08237,.4187-.12378,.0447-.01357,.39751-.06768,.09471-.02964-.34066,.0428,.30603,.00687,.31342,.00687,.4508,.00007-.23968-.10329,.1896,.04792,.05919,.02085,.33932,.15081,.0677,.0137-.30143-.15217,.06111,.06742,.13441,.09843,.23195,.09811-.07002-.06323-.11181-.10321,.07092,.06783,.14556,.13048,.21511,.19989,.058,.05788,.32053,.37871,.12491,.11795-.18885-.25173,.05154,.10183,.08114,.15275,.04946,.08508,.08975,.17535,.13951,.26001-.25306-.43048-.05731-.11997-.012,.04586,.02589,.09476,.04305,.19079,.06726,.28584-.0787-.30893-.08677-.29072-.03143,.01543,.04485,.2481,.03298-.11535,.04647-.17783-.02779,.12867-.06016,.25489-.09059,.38283-.04839,.20347-.2027,.26012,.02969-.05493-.07173,.09725-.14444,.22764-.19998,.33527,.02066-.04005,.28699-.29832,.08864-.12179-.11948,.10634-.23666,.22907-.35009,.34335,.03485-.03511,.34721-.21082,.11207-.09704-.139,.06726-.29614,.1641-.42696,.24337,.04123-.02498,.40153-.11855,.14243-.0686-.11942,.02302-.26224,.06349-.37746,.10277-.32238,.10991,.42134,.02401,.08417-.016-.13179-.01564-.6135-.0449-.01843,.0434-1.28792-.19111-2.75056,.32035-3.0753,1.7461-.27049,1.18758,.36273,2.87003,1.7461,3.0753h0Z" fill="#05c787"/><path d="M36.38901,9.37505c-2.29627-.51581-5.03651-.94063-7.0684,.58165-2.00998,1.50586-3.1014,4.27477-1.68497,6.57496,.67534,1.0967,1.833,1.79043,3.05865,2.10551,.81602,.20978,1.6523,.29687,2.46629,.52051,.26877,.07384-.23138-.07243-.21964-.09192,.007-.01162,.24881,.14068,.28549,.15882,.22639,.11202,.08378-.01508,.01494-.00923l-.12205-.09798c.06382,.05119,.1254,.10491,.18474,.16116,.05058,.05048,.41358,.35981,.39334,.4167-.02345,.06592-.23961-.45969-.14725-.17535,.03296,.10148,.15704,.26686,.21253,.35215,.15345,.23583,.04391,.00613,.01596-.00169l-.05928-.14815c.03097,.07625,.05896,.15355,.08397,.23192,.015,.05117,.14202,.55517,.14468,.55542-.04094-.00389-.0139-.53158-.0358-.25929-.00626,.07785,.01175,.16595,.01315,.24461-.00046-.0261-.00878,.32607-.00818,.32629-.04562-.01625,.13312-.57817,.02233-.17899-.02829,.10191-.05951,.21405-.08257,.31836-.08946,.40465,.03987-.16032,.07249-.13871,.12938,.0857-.62923,.72272-.23721,.43728,.24282-.1768,.05975-.07038-.01389-.00212-.09616,.08915-.21268,.18499-.2936,.28547-.18279,.22698,.1815-.1819,.18593-.13384,.00422,.04574-.30993,.20375-.34475,.22419-.07084,.04159-.14611,.07677-.21605,.11958-.37545,.22981,.34247-.07619,.06846-.02486-.19947,.03737-.4416,.10799-.63319,.16967-.26119,.08409,.24774-.06591,.25955-.03506,.00085,.00223-.36605,.00733-.40783,.00959-.0222,.0012-.23826-.02535-.24445-.01426,.36622,.05625,.45303,.06489,.26044,.02593-.08077-.01601-.16061-.03584-.23955-.05949-1.26261-.33491-2.77353,.42119-3.0753,1.7461-.29859,1.31093,.39355,2.71652,1.7461,3.0753,2.22404,.58994,4.55886-.07736,6.23765-1.62164,1.67017-1.53635,2.27459-3.90899,1.73462-6.08342-.54394-2.19043-2.2427-3.981-4.38556-4.65697-.80466-.25383-1.66092-.27702-2.47034-.51136-.07414-.02147-.16139-.06665-.23718-.07653-.32689-.04262,.4588,.16034,.15232,.05522-.01565-.00537-.20671-.12173-.20485-.12478,.02034-.03337,.47133,.42473,.14249,.07137-.00349-.00375,.29745,.40198,.1566,.1772-.14384-.22956,.10344,.25155,.1014,.2459-.14893-.41128,.06692,.17857,.01458,.21904,.00658-.00509,.01602-.29143,.00838-.30451,.02305,.03948-.05175,.58327,.00283,.20733,.05838-.40213-.00982,.18221-.07368,.15216-.01064-.00501,.1431-.24779,.16164-.28277,.21103-.39822-.21097,.29753-.03551,.05327,.01004-.01398,.16967-.17874,.17577-.17426-.01546-.01136-.50079,.33395-.0457,.04893,.03038-.01903,.17956-.12637,.21381-.11725l-.24894,.11088c.10025-.0354,.20204-.06542,.30537-.09007,.1027-.02649,.20592-.04588,.30944-.06862-.34487,.07575-.1931,.02434,.07239,.01625,.28822-.00878,.57055,.02463,.85776,.03148,.28952,.0069-.08539-.01633-.12514-.02266,.18002,.02865,.35936,.05926,.53839,.09343,.32046,.06117,.6389,.13203,.95719,.20352,1.27306,.28597,2.76564-.38659,3.0753-1.7461,.28896-1.26868-.38144-2.76875-1.7461-3.0753h0Z" fill="#05c787"/><path d="M47.99491,8.97278c-2.41193,.26914-4.63617,1.31768-6.18412,3.23369-1.64891,2.04098-2.33353,4.46338-1.92905,7.0607,.36535,2.34606,1.79633,4.41539,3.67691,5.81135,2.15028,1.59617,4.83324,1.75092,7.4153,1.69329,1.30647-.02916,2.56141-1.12901,2.5-2.5-.05955-1.32951-1.09928-2.53127-2.5-2.5-.55074,.01229-1.10196,.02506-1.65279,.01032-.23556-.0063-.47114-.01625-.70611-.03426-.06946-.00532-.7749-.13054-.26617-.02122-.22876-.04916-.45892-.08688-.68543-.14691-.0763-.02022-.85735-.25705-.48651-.13825,.36155,.11583-.2717-.14199-.34823-.18505-.15663-.08813-.30409-.18938-.45647-.28422-.49153-.30591,.3601,.34975-.06186-.04741-.13098-.12328-.26661-.2406-.39268-.36917-.04706-.04799-.54201-.56868-.27823-.28864,.25307,.26866-.17715-.26145-.2227-.33354-.09624-.15231-.18678-.30843-.27051-.46795-.0829-.15793-.38764-.53096-.04925-.05664-.19461-.27279-.26859-.80016-.33279-1.11757-.01862-.08773-.03474-.17594-.04834-.26461,.04195,.33923,.05398,.41245,.03609,.21965-.00236-.20937-.02496-.4172-.02029-.62742,.00357-.16094-.02202-.39238,.03715-.53873-.04767,.33668-.05394,.41001-.01881,.21998,.01649-.08832,.03569-.17607,.0576-.26323,.04264-.17474,.10614-.34277,.15189-.51606,.1264-.47876-.22485,.42764,.05971-.14654,.14972-.3021,.35065-.76403,.60895-.99509-.44904,.40168-.03147,.05915,.06783-.04916,.12176-.1328,.24922-.2606,.38121-.38324,.08803-.0818,.17815-.16122,.27036-.23828-.24828,.18435-.29855,.22244-.15083,.11428,.17449-.11741,.34385-.23948,.52506-.34706,.15477-.09188,.31581-.17053,.4741-.25579,.51132-.27542-.49166,.14189,.0642-.02504,.1719-.05162,.34039-.11191,.51454-.15641,.15422-.03941,.95055-.14726,.22029-.06577,1.29533-.14454,2.56511-1.04623,2.5-2.5-.0551-1.23015-1.10805-2.65532-2.5-2.5h0Z" fill="#05c787"/></svg>