<svg xmlns="http://www.w3.org/2000/svg" width="25.25043" height="36.01148" viewBox="0 0 25.25043 36.01148" creator="Katerina Limpitsouni"><path d="M.72631,24.21616c3.57388,2.88513,5.98476,6.72945,8.36008,10.59783,1.1555,1.88182,3.90432,1.44264,4.56937-.5972,3.42082-10.49231,7.24416-20.84858,11.46186-31.0467,.51625-1.24826-.5584-2.74895-1.7461-3.0753-1.43684-.3948-2.55711,.49315-3.0753,1.7461-4.2177,10.19812-8.04104,20.55439-11.46186,31.0467l4.56937-.5972c-2.57773-4.19801-5.26462-8.47971-9.1419-11.60977-1.04968-.84738-2.50953-1.026-3.53553,0-.87669,.87669-1.056,2.68304,0,3.53553H.72631Z" fill="#05c787" origin="undraw"/></svg>