<svg xmlns="http://www.w3.org/2000/svg" width="61.19203" height="33.86125" viewBox="0 0 61.19203 33.86125" creator="Katerina Limpitsouni"><path d="M4.26247,32.71595c5.2714-4.25087,9.82617-9.36645,13.46186-15.08085,1.74234-2.73851,3.36991-5.69721,3.61969-8.9971,.2397-3.16666-1.31481-6.3633-4.24701-7.75039C10.76404-2.10825,4.68314,2.95133,3.10934,9.01681c-.9126,3.51718-.73591,7.35084-.24264,10.91859,.45119,3.26341,1.5457,6.49861,3.88801,8.90408,4.29857,4.4145,11.82023,5.35322,16.95472,1.87378,2.64899-1.79511,.14988-6.12906-2.5236-4.31735-3.00894,2.03904-7.13393,1.92314-10.06359-.33498-3.72657-2.87236-3.85777-8.88097-3.58683-13.1653,.21138-3.34249,2.50994-9.34011,6.9988-7.68397,4.60025,1.69725-.32197,8.71739-1.82731,10.97443-3.28737,4.92892-7.37199,9.27846-11.97996,12.99433-1.05184,.8482-.883,2.65254,0,3.53553,1.03956,1.03956,2.48105,.85034,3.53553,0h0Z" fill="#05c787" origin="undraw"/><path d="M26.96466,16.59519c-3.08154,1.7088-6.15027,3.74119-7.26015,7.28003-.57517,1.83392-.44253,3.82658,.42353,5.54236,.79421,1.57343,2.30558,2.62867,3.93561,3.18774,2.94188,1.009,6.48021,.18408,9.03907-1.44352,3.19192-2.03027,5.16201-5.56912,4.45103-9.38884-.36357-1.95326-1.6298-3.70325-3.35554-4.68277-1.95455-1.1094-4.09693-1.1395-6.12775-.25683-1.20387,.52325-1.56849,2.37876-.89688,3.42047,.80506,1.24871,2.13246,1.4567,3.42047,.89688-.58689,.25509-.22303,.10164-.06067,.05749,.4596-.12496,.02773,.1071-.10946-.01522,.06645,.05925,.53011-.01142,.6456-.01235,.53767-.00431-.43039-.11086-.10103-.01221,.13009,.03896,.26593,.06066,.39644,.10058,.094,.02875,.21873,.09595,.31059,.10778-.31673-.13872-.39016-.16699-.22031-.08479,.0745,.03588,.14763,.07439,.2194,.11553,.09611,.05433,.18612,.11909,.28211,.17309,.46824,.2634-.28248-.27972-.04533-.04014,.15353,.15511,.34118,.40556,.51908,.53108-.32021-.22592-.21689-.31407-.1009-.10552,.05602,.10072,.11568,.20955,.17727,.3077,.30993,.49386-.07557-.32831,.01128,.00917,.04684,.18203,.11528,.35806,.15768,.54227l.02111,.0918c.05023,.28165,.04922,.24657-.00303-.10525,.03544,.06751,.02292,.32333,.02462,.3779,.00394,.12636,.00348,.25351-.001,.37993-.00116,.03262-.05762,.65442-.00658,.23741,.05092-.41597-.04713,.19961-.0548,.23299-.02861,.12451-.06125,.24864-.09745,.37109-.03643,.12324-.08199,.24222-.12006,.36464-.16296,.52401,.20768-.32615-.05353,.10595-.11754,.19443-.28894,.6813-.49034,.80386,.03865-.02352,.36758-.43026,.05289-.07004-.08065,.09232-.15978,.1854-.24319,.27524-.2101,.22629-.43906,.42445-.66437,.63442-.28468,.26528,.07406-.03449,.07283-.04695,.00351,.0357-.42361,.29574-.45559,.31654-.23338,.15178-.47384,.29239-.71956,.42319-.13679,.07281-.27828,.13667-.41504,.2092-.34992,.18559,.08594-.01852,.08703-.02633-.01062,.07634-.72455,.2682-.78377,.28739-.28864,.09356-.58106,.17352-.87783,.23697-.24371,.05211-.82482,.03269-.15332,.04511-.24511-.00454-.49992,.04602-.74617,.05206-.24776,.00608-.49577,.00128-.74298-.01675-.00813-.00059-.29632-.04927-.32595-.03121,.39529,.05599,.45656,.06068,.1838,.01407l-.15756-.03285c-.05915-.01317-.74393-.24125-.76142-.2249,.02809-.02625,.56178,.28484,.16631,.06675-.09069-.05001-.18434-.09365-.27419-.14533-.10794-.06208-.21354-.1558-.32572-.20749-.27789-.12806,.41957,.4215,.08376,.05323-.06656-.07299-.14953-.15414-.22083-.21948-.36842-.33761,.25791,.44702-.00154,.00796-.05941-.10054-.12112-.21382-.18638-.31198-.3068-.46152,.0783,.34346,.00341,.02229-.03272-.14032-.07831-.29105-.12203-.42824-.08942-.28057,.10919-.16196,.00378,.13571,.06852-.19351-.0257-.60293-.01227-.81143l.00587-.09076c.02901-.28232,.02334-.24226-.017,.12017-.04801-.08988,.10163-.4556,.12527-.53977,.03355-.11945,.07493-.23584,.11126-.35444,.177-.57783-.24433,.44666,.03257-.09107,.14252-.27676,.29973-.53864,.46175-.80424,.22872-.37495-.01141-.01631-.05303,.04966,.10321-.1636,.25912-.30966,.39111-.45189,.24792-.26717,.51295-.51795,.78922-.75553,.12593-.10829,.25409-.21372,.38445-.31665-.33793,.26684-.03788,.03717,.13715-.08521,.2748-.19215,.556-.37513,.84071-.55223,.62764-.39042,1.27386-.7498,1.92012-1.10817,1.14471-.63477,1.61709-2.30337,.89688-3.42047-.74733-1.15916-2.1959-1.57594-3.42047-.89688h0Z" fill="#05c787"/><path d="M36.23325,19.25684c1.40864,4.00438,2.81727,8.00875,4.22591,12.01313,.35444,1.00758,1.26731,1.88661,2.4107,1.8354,1.19663-.0536,1.97362-.76532,2.4107-1.8354,.05191-.12814,.10456-.25598,.15793-.38352-.11744,.27884-.11975,.28731-.00693,.02539,.11475-.25159,.22507-.50507,.34194-.75572,.23368-.5012,.47877-.99708,.73495-1.48716,.51237-.98019,1.0691-1.93718,1.66775-2.86717,.29933-.465,.60914-.92326,.92913-1.3743,.15999-.22552,.32253-.44923,.48757-.67107,.08252-.11092,.16567-.22138,.24944-.33136-.18042,.23182-.18368,.23658-.00977,.01427,.69313-.86358,1.41051-1.70238,2.17043-2.50816,.8977-.95188,1.01488-2.6039,0-3.53553-.97392-.89404-2.5771-1.01627-3.53553,0-3.45447,3.66294-6.10792,7.89253-8.0083,12.54515h4.8214c-1.40864-4.00438-2.81727-8.00875-4.22591-12.01313-.43292-1.23068-1.72839-2.18198-3.0753-1.7461-1.2156,.39338-2.21073,1.75447-1.7461,3.0753h0Z" fill="#05c787"/><path d="M56.59573,26.3997c3.16475-.46049,5.14422-3.78646,4.46179-6.80034-.72336-3.19467-4.12609-4.85259-7.17759-4.05348-2.79801,.73273-4.7293,3.39845-5.16647,6.16589-.43654,2.76349,.00898,6.12188,1.61426,8.48185,1.90869,2.80604,5.07078,3.75563,8.33757,3.66131,1.30599-.03771,2.56168-1.12289,2.5-2.5-.05922-1.32218-1.09963-2.54043-2.5-2.5-.4079,.01178-.81571,.01315-1.22329-.01003-.20479-.01165-.40807-.03443-.61232-.05179,.51026,.04337-.03429-.01523-.23904-.06053-.19697-.04358-.39197-.09438-.5847-.154-.09763-.0302-.6199-.24938-.35594-.11815,.27184,.13515-.24232-.14061-.32135-.18765-.0856-.05095-.16846-.10522-.25227-.15902-.23634-.15174-.09955-.12158,.03024,.02402-.13143-.14745-.28884-.27941-.42578-.42322-.31639-.33227,.14437,.26652-.09177-.12695-.10311-.1718-.20999-.33976-.30339-.51736-.04658-.08858-.08494-.18315-.13365-.27035-.17083-.30587,.12085,.37514,.01585,.03891-.12168-.38964-.26009-.76841-.35665-1.16638-.04782-.1971-.09027-.39534-.12841-.59453-.02797-.14608-.10824-.81372-.06809-.36404-.04187-.46893-.07798-.93497-.06591-1.4064,.00597-.23347,.02056-.46737,.04636-.69952-.05082,.4572,.06213-.22171,.10057-.36797,.05924-.22541,.13865-.43999,.21255-.66021-.13635,.40636-.04102,.1075,.07415-.10135,.09296-.16858,.21173-.32264,.30438-.4903-.01352,.02446-.28889,.32514-.09872,.12656,.08794-.09183,.1677-.19119,.25734-.28187,.07559-.07647,.5014-.40304,.24941-.24041-.26606,.17171,.23562-.11276,.30736-.1644,.25464-.18332-.17139,.0911-.16031,.05476,.00877-.02873,.24342-.08001,.27463-.08896,.01856-.00532,.27918-.07518,.28038-.07023,.00426,.0175-.52904,.02095-.09147,.01525,.04659-.00061,.57744-.00216,.57575,.01276-.00627,.05562-.47621-.12652-.19435-.00988,.01844,.00763,.2766,.06367,.2747,.07557-.00357,.02231-.41655-.22875-.16021-.07219,.07934,.04845,.16675,.09118,.24831,.13651,.0853,.04741,.23167,.22863,.05222,.0297-.26305-.29161,.26143,.20201-.05235-.05426-.32109-.26224,.30772,.31712,.20289,.36738-.05129,.02459-.12442-.46034-.08687-.16488,.01057,.08318,.16275,.45353,.05385,.12004-.14536-.44517,.04468,.44551-.01385,.40636-.04767-.03189,.12516-.4683,.01377-.2084-.02459,.05737-.15934,.45628-.0236,.13888,.12857-.30062-.00487-.01934-.03401,.03466-.19824,.36741,.0625-.0655,.07102-.05323,.05104,.07347-.62686,.50854-.28964,.30703,.27536-.16455-.00509-.01441-.05307,.01365-.36495,.21346,.08702-.03771,.09544-.01357,.01251,.03584-.68005,.16769-.71892,.17335-1.29861,.18896-2.12603,1.90128-1.7461,3.0753,.45961,1.42023,1.68353,1.94861,3.0753,1.7461h0Z" fill="#05c787"/></svg>