<svg xmlns="http://www.w3.org/2000/svg" width="47.39725" height="61.34826" viewBox="0 0 47.39725 61.34826" creator="Katerina Limpitsouni"><path d="M43.65669,.34967C29.8088,8.2614,14.09156,14.87657,5.13455,28.83159,.84,35.52249-1.79641,44.23632,1.44697,51.89672c1.37575,3.24932,3.7663,6.20149,6.95015,7.82452,3.74238,1.90776,7.97398,1.96751,12.00377,1.05371,3.79111-.85969,7.50911-2.52631,10.84344-4.50935,3.16749-1.88381,6.02245-4.24698,8.21263-7.22465,3.84526-5.22785,4.592-12.87679,.71379-18.33015-2.07304-2.91501-5.13158-4.66064-8.69991-4.97707-3.86588-.34282-7.7969,1.27899-10.93425,3.41995-3.12578,2.13307-6.24892,4.94394-7.96424,8.37315-1.76356,3.52565-2.12104,8.05418,.31074,11.37865,2.2795,3.11628,6.20021,4.43742,9.95509,3.89284,3.99539-.57946,7.62163-3.11695,10.03492-6.28916,2.28841-3.00805,3.1866-7.16048,.95556-10.47273-2.19945-3.26536-6.7678-4.06889-9.57249-1.03629-1.31885,1.42601-1.92674,3.43668-1.29536,5.31481,1.02002,3.03423,5.85077,1.73287,4.8214-1.3292-.11214-.33358-.23106-.13708,.0095-.45008,.18812-.24477,.5088-.48173,.82334-.50686,.46816-.03741,1.07909,.67636,1.31537,1.24541,.98148,2.36377-1.30897,4.82757-2.97655,6.24764-1.97204,1.67933-4.68974,2.9162-7.30467,2.22987-2.46009-.64569-3.71696-2.68531-3.48543-5.18949,.25978-2.8097,2.26066-5.09165,4.23652-6.93224,2.09392-1.95057,4.56016-3.6738,7.32845-4.49421,2.36113-.69975,5.00126-.64777,7.00578,.94523,1.51533,1.20424,2.38337,3.13615,2.81697,5.10573,1.07056,4.86296-1.8182,9.41096-5.54995,12.50578-2.15204,1.78474-4.68623,3.14815-7.22015,4.3051-2.82577,1.29021-5.94611,2.3343-9.07808,2.37804-5.68032,.07933-9.76134-4.14542-10.57858-9.61321-.92936-6.21793,2.10807-12.50571,5.68882-17.38743C19.49335,17.54167,33.83728,11.71897,46.18028,4.66702c2.79352-1.59602,.27753-5.91773-2.5236-4.31735h0Z" fill="#05c787" origin="undraw"/></svg>