<svg xmlns="http://www.w3.org/2000/svg" width="29.64371" height="39.7404" viewBox="0 0 29.64371 39.7404" creator="Katerina Limpitsouni"><path d="M1.25681,13.09569c7.26897,5.96325,14.53794,11.9265,21.80691,17.88976,1.04305,.85568,2.51479,1.02074,3.53553,0,.88271-.88271,1.04903-2.67494,0-3.53553-7.26897-5.96325-14.53794-11.9265-21.80691-17.88976-1.04305-.85568-2.51479-1.02074-3.53553,0-.88271,.88271-1.04903,2.67494,0,3.53553h0Z" fill="#05c787" origin="undraw"/><path d="M4.27997,33.18738C12.48641,25.09936,20.69284,17.01134,28.89928,8.92332c2.29534-2.26222-1.24063-5.79733-3.53553-3.53553C17.15731,13.47581,8.95087,21.56383,.74444,29.65185c-2.29534,2.26222,1.24063,5.79733,3.53553,3.53553h0Z" fill="#05c787"/><path d="M11.63176,2.41394c-.23669,11.6375-.47337,23.27501-.71006,34.91251-.06546,3.21875,4.93454,3.21843,5,0,.23669-11.6375,.47337-23.27501,.71006-34.91251,.06546-3.21875-4.93454-3.21843-5,0h0Z" fill="#05c787"/></svg>