<svg xmlns="http://www.w3.org/2000/svg" width="25.67976" height="50.45487" viewBox="0 0 25.67976 50.45487" creator="Katerina Limpitsouni"><path d="M4.68693,9.66747c3.08091-5.16971,10.85858-6.52926,14.61671-1.24359,1.69718,2.38702,1.87753,5.75594,.37486,8.28121-.8344,1.40222-2.15318,2.45045-3.33775,3.54408-1.31821,1.21702-2.58213,2.54746-3.43763,4.14014-2.01182,3.74538-2.01362,8.09135-1.85145,12.22747,.12574,3.2069,5.12637,3.22309,5,0-.14015-3.57442-.43244-7.82662,1.88061-10.84131,1.25213-1.63195,3.01218-2.81829,4.38943-4.33737,1.40097-1.54524,2.46783-3.34948,2.97469-5.38491,1.01423-4.0729-.01166-8.37496-2.74906-11.54442C19.91777,1.46419,15.60789-.29805,11.59907,.04161,6.9229,.4378,2.76566,3.12328,.36957,7.14387c-1.65122,2.77071,2.66977,5.28821,4.31735,2.5236h0Z" fill="#05c787" origin="undraw"/><path d="M15.38521,45.54231l-.56034-.12494c-.3323-.10419-.6646-.11907-.9969-.04465-.33271,.01509-.64254,.11398-.9295,.29667-.29134,.1571-.52515,.37173-.70142,.64389-.22097,.24146-.37013,.52485-.44748,.85018l-.0893,.6646c.0014,.45127,.11518,.87187,.34132,1.2618l.39091,.50597c.31193,.30984,.67966,.52415,1.10317,.64293l.56034,.12494c.3323,.10419,.6646,.11907,.9969,.04465,.33271-.01509,.64254-.11398,.9295-.29667,.29134-.1571,.52515-.37173,.70142-.64389,.22097-.24146,.37013-.52485,.44748-.85018l.0893-.6646c-.0014-.45127-.11518-.87187-.34132-1.2618l-.39091-.50597c-.31193-.30984-.67966-.52415-1.10317-.64293h0Z" fill="#05c787"/></svg>