<svg xmlns="http://www.w3.org/2000/svg" width="53.27381" height="56.81342" viewBox="0 0 53.27381 56.81342" creator="Katerina Limpitsouni"><path d="M.25516,32.1441c.45104,7.33847,.90209,14.67694,1.35313,22.01541,.08734,1.42104,1.07841,2.40184,2.5,2.5,3.68811,.25466,7.37704,.19328,11.05464-.18395,1.23917-.12711,2.64395-1.04634,2.5-2.5-.76975-7.77319-1.39691-15.55949-1.88123-23.35567-.07898-1.27141-1.08343-2.60528-2.5-2.5-3.5939,.26711-7.18781,.53421-10.78171,.80132-1.34661,.10008-2.5,1.07737-2.5,2.5,0,1.27536,1.14619,2.60062,2.5,2.5,3.5939-.26711,7.18781-.53421,10.78171-.80132l-2.5-2.5c.48432,7.79618,1.11148,15.58248,1.88123,23.35567l2.5-2.5c-3.67759,.37723-7.36653,.43862-11.05464,.18395l2.5,2.5c-.45104-7.33847-.90209-14.67694-1.35313-22.01541-.08284-1.34788-1.08971-2.5-2.5-2.5-1.28925,0-2.58326,1.14541-2.5,2.5H.25516Z" fill="#05c787" origin="undraw"/><path d="M17.20285,20.03513c.45104,11.34505,.90209,22.6901,1.35313,34.03515,.05802,1.4594,1.10627,2.35157,2.5,2.5,3.92865,.41839,7.82124,.24346,11.71924-.37369,1.01325-.16042,1.8995-1.41126,1.8354-2.4107-.77136-12.02777-1.39823-24.06435-1.88123-36.10715-.04944-1.23264-1.11111-2.65958-2.5-2.5-3.5939,.41294-7.18781,.82588-10.78171,1.23881-1.34119,.1541-2.5,1.03871-2.5,2.5,0,1.23174,1.14981,2.65514,2.5,2.5,3.5939-.41294,7.18781-.82588,10.78171-1.23881l-2.5-2.5c.483,12.0428,1.10987,24.07938,1.88123,36.10715l1.8354-2.4107c-3.43603,.54401-6.93493,.56304-10.39004,.19508l2.5,2.5c-.45104-11.34505-.90209-22.6901-1.35313-34.03515-.12749-3.20668-5.12814-3.22303-5,0h0Z" fill="#05c787"/><path d="M35.86414,5.79039c.45104,16.05831,.90209,32.11661,1.35313,48.17492,.02782,.99032,.74909,2.24695,1.8354,2.4107,4.16862,.62838,8.26348,.52084,12.38384-.40253,1.02439-.22957,1.88306-1.35951,1.8354-2.4107-.77219-17.03023-1.39895-34.06682-1.88123-51.10772-.04972-1.75692-1.54973-2.67333-3.1646-2.4107-3.5939,.58449-7.18781,1.16898-10.78171,1.75347-1.33372,.21691-2.07625,1.87392-1.7461,3.0753,.38958,1.41761,1.73766,1.96364,3.0753,1.7461,3.5939-.58449,7.18781-1.16898,10.78171-1.75347l-3.1646-2.4107c.48227,17.0409,1.10903,34.07749,1.88123,51.10772l1.8354-2.4107c-3.18414,.71357-6.49093,.89011-9.72544,.40253l1.8354,2.4107c-.45104-16.05831-.90209-32.11661-1.35313-48.17492-.09019-3.21083-5.09055-3.22395-5,0h0Z" fill="#05c787"/></svg>