<svg xmlns="http://www.w3.org/2000/svg" width="54.24162" height="54.25067" viewBox="0 0 54.24162 54.25067" creator="Katerina Limpitsouni"><path d="M27.29089,0C16.18698,.00697,5.79939,7.1105,1.74566,17.43221c-4.00454,10.19646-.94432,22.97618,7.38637,30.12533,8.46219,7.262,21.14353,8.91509,30.98112,3.47386,9.72221-5.37742,15.42368-16.64268,13.87681-27.63107-.90582-6.4346-4.2057-12.65092-9.24236-16.80245C39.50313,2.27506,32.76565-.05357,25.9559,.3624c-3.19687,.19528-3.21908,5.19664,0,5,10.10303-.61714,19.45675,5.73162,22.3754,15.47694,2.64921,8.84568-.67825,18.49264-7.98985,24.09341-7.27974,5.57636-17.49303,5.63748-25.20105,.87464-7.77707-4.8055-11.58621-14.64856-9.64369-23.51329C7.68547,12.30565,17.12274,5.00638,27.29089,5,30.50807,4.99798,30.51357-.00202,27.29089,0h0Z" fill="#05c787" origin="undraw"/><path d="M14.21582,36.23455c3.33384,3.39724,7.9581,5.32315,12.70473,5.4571,4.97916,.14051,9.71371-1.90238,13.16941-5.45701,2.24426-2.3085-1.28762-5.8478-3.53553-3.53553-2.5888,2.6629-5.93909,4.09681-9.63388,3.99254-3.42549-.09667-6.7513-1.52875-9.1692-3.99263-2.25744-2.30038-5.79214,1.23602-3.53553,3.53553h0Z" fill="#05c787"/><path d="M18.66776,16.08048c-.50997,.13014-.92078,.39687-1.29933,.75362-.17631,.16616-.33228,.36921-.44889,.58262-.06279,.11491-.09593,.21313-.1537,.35001-.04123,.0977-.11827,.24836-.15292,.37228-.07033,.25157-.11175,.52189-.10752,.78096,.00043,.02651,.00224,.05165,.00379,.07824,.01058,.18215,.04678,.52917,.09627,.70309,.06499,.22839,.1771,.48657,.28731,.69513,.12254,.2319,.29575,.44142,.47408,.63116,.2137,.22737,.47133,.43243,.75517,.56428,.22194,.10309,.46251,.22751,.70235,.28571,.1276,.03097,.27889,.04177,.39711,.05766,.12861,.01728,.288,.04955,.42885,.05261,.34287,.00744,.70172-.04263,1.0277-.15241,.2863-.09641,.65341-.23658,.92552-.41794,.53036-.35349,1.05586-.80952,1.33367-1.39822,.24714-.5237,.39751-.9338,.39098-1.53022-.00129-.11753-.0419-.33196-.04817-.3786-.01442-.10734-.0269-.27458-.05725-.40098-.06215-.2588-.17683-.51802-.30874-.74427-.01549-.02656-.03193-.05059-.0488-.07603-.11352-.17107-.28144-.38996-.41913-.54154-.17058-.18778-.42174-.35267-.60379-.48679-.04366-.03216-.08589-.06304-.13411-.08856-.11385-.06025-.25065-.10951-.36063-.15592-.12242-.05166-.26034-.12054-.3945-.16008-.65735-.19375-1.43668-.16181-2.08985,.02861-.06233,.01817-.1228,.04057-.18319,.06426-.24387,.09566-.49638,.1909-.72874,.31379-.04975,.02631-.09792,.05552-.14415,.08759-.21741,.15082-.44214,.31631-.63756,.49535-.04775,.04375-.08942,.09173-.13049,.14158-.15812,.19192-.33144,.39135-.45845,.60671-.16822,.28525-.31074,.60898-.37609,.93662-.04347,.21797-.07975,.49093-.09562,.71223-.0023,.03207-.00489,.06331-.00465,.09562,.00182,.2538,.05187,.53587,.0996,.78348,.03149,.16334,.10177,.29625,.16876,.45499,.06434,.15247,.11611,.30679,.20479,.44569,.27021,.42324,.45343,.60482,.81416,.88352,.39449,.30478,.59871,.4067,1.10652,.59842,.20669,.07803,.40003,.09539,.62374,.12545,.25624,.03443,.47376,.07106,.72663,.04258,.33903-.03819,.69047-.06755,1.01823-.1717,.33984-.10799,.66736-.26133,.99232-.40575,.23303-.10356,.46629-.21449,.67542-.3617,.24917-.17539,.51068-.35782,.72743-.5749,.11006-.11023,.20088-.24337,.29472-.36483,.09308-.12048,.21224-.25129,.28562-.39278,.26672-.51429,.39058-.96083,.42444-1.53902,.01957-.33416-.02499-.68785-.1416-1.00185-.20495-.55187-.39775-.91579-.809-1.35413-.22498-.2398-.49986-.45181-.79061-.60582-.2805-.14858-.59618-.30306-.91528-.36468-.27369-.05286-.56518-.09658-.84426-.11023-.08501-.00416-.17016-.00094-.25479,.00776-.37115,.03817-.75221,.07634-1.11231,.18197-.17579,.05157-.34726,.11639-.51833,.18162-.32533,.07735-.60873,.22651-.85018,.44748-.27216,.17628-.48679,.41009-.64389,.70142-.18269,.28696-.28158,.59679-.29667,.9295-.07442,.3323-.05953,.6646,.04465,.9969,.19576,.60492,.57063,1.18855,1.1489,1.49408l.5972,.25202c.44307,.11907,.88613,.11907,1.3292,0,.2877-.1097,.57637-.21478,.8815-.26387l-.6646,.0893c.15186-.0202,.30058-.02461,.45302-.00811l-.6646-.0893c.1055,.01586,.20373,.04367,.30237,.08424l-.5972-.25202c.08307,.03799,.15979,.08239,.23391,.13588l-.50597-.39091c.07045,.05535,.13258,.1153,.18932,.18475l-.39091-.50597c.04333,.05858,.07901,.11828,.10916,.18453l-.25202-.5972c.02093,.05395,.03624,.10688,.04712,.16372l-.0893-.6646c.00928,.07327,.009,.14264-.00006,.21578l.0893-.6646c-.01014,.05532-.02432,.10728-.04362,.1601l.25202-.5972c-.0331,.0775-.0742,.14697-.12443,.21466l.39091-.50597c-.07353,.0912-.15668,.16968-.24833,.24244l.50597-.39091c-.25868,.19536-.55507,.3333-.85185,.46024l.5972-.25202c-.20896,.08643-.42067,.15665-.64474,.19099l.6646-.0893c-.13245,.01598-.26196,.01931-.39433,.00207l.6646,.0893c-.101-.01677-.19627-.04303-.29144-.0808l.5972,.25202c-.09252-.04074-.1762-.08926-.25634-.15094l.50597,.39091c-.05394-.04545-.10163-.09366-.14589-.14849l.39091,.50597c-.0416-.05735-.07506-.11575-.10316-.1807l.25202,.5972c-.02172-.05933-.0365-.11762-.04656-.17999l.0893,.6646c-.00797-.081-.00621-.158,.00448-.23854l-.0893,.6646c.0151-.08051,.03756-.15566,.0685-.23139l-.25202,.5972c.03472-.07443,.07482-.14244,.1231-.20877l-.39091,.50597c.06113-.07591,.12813-.1421,.20386-.20351l-.50597,.39091c.10418-.07806,.21452-.1402,.33392-.19187l-.5972,.25202c.14364-.05723,.29037-.09653,.44313-.12022l-.6646,.0893c.1131-.01351,.22307-.0165,.33661-.00583l-.6646-.0893c.09029,.01315,.17511,.03394,.26,.06725l-.5972-.25202c.07097,.0326,.13438,.07086,.19614,.11847l-.50597-.39091c.04673,.04059,.08756,.08295,.12604,.13144l-.39091-.50597c.02636,.03813,.04823,.07488,.06902,.11631l-.25202-.5972c.02391,.05795,.03939,.11353,.04909,.17546l-.0893-.6646c.0036,.04737,.00355,.09046-.00018,.13781l.0893-.6646c-.00943,.06163-.02445,.11841-.04597,.17691l.25202-.5972c-.03209,.07334-.07065,.13938-.11711,.20441l.39091-.50597c-.07136,.09091-.15049,.16868-.24085,.24063l.50597-.39091c-.11137,.08248-.22965,.14915-.3572,.20331l.5972-.25202c-.08389,.03178-.16703,.05564-.25526,.07148l.6646-.0893c-.08592,.01073-.1684,.01267-.25435,.0026l.6646,.0893c-.05891-.01059-.1139-.02573-.16996-.0467l.5972,.25202c-.05455-.02423-.10406-.05183-.15316-.08577l.50597,.39091c-.04627-.03671-.0859-.07525-.12338-.12091l.39091,.50597c-.02559-.03657-.04586-.07113-.06518-.11137l.25202,.5972c-.0151-.03985-.02532-.07509-.0329-.11694l.0893,.6646c-.00369-.04052-.00389-.07687-.0008-.11744l-.0893,.6646c.00835-.05315,.02173-.10106,.04214-.15084l-.25202,.5972c.0181-.03586,.03685-.0667,.06052-.09915l-.39091,.50597c.02611-.03002,.05116-.05414,.08231-.07887l-.50597,.39091c.02058-.01481,.04247-.02736,.06565-.03763l-.5972,.25202c.02359-.01042,.04804-.01812,.07334-.02309,.32533-.07735,.60873-.22651,.85018-.44748,.27216-.17628,.48679-.41009,.64389-.70142,.18269-.28696,.28158-.59679,.29667-.9295,.07442-.3323,.05953-.6646-.04465-.9969-.19576-.60492-.57063-1.18855-1.1489-1.49408-.60173-.31792-1.25672-.42293-1.9264-.25202h0Z" fill="#05c787"/><path d="M32.76182,16.08048c-.50997,.13014-.92078,.39687-1.29933,.75362-.17631,.16616-.33228,.36921-.44889,.58262-.06279,.11491-.09593,.21313-.1537,.35001-.04123,.0977-.11827,.24836-.15292,.37228-.07033,.25157-.11175,.52189-.10752,.78096,.00043,.02651,.00224,.05165,.00379,.07824,.01058,.18215,.04678,.52917,.09627,.70309,.06499,.22839,.1771,.48657,.28731,.69513,.12254,.2319,.29575,.44142,.47408,.63116,.2137,.22737,.47133,.43243,.75517,.56428,.22194,.10309,.46251,.22751,.70235,.28571,.1276,.03097,.27889,.04177,.39711,.05766,.12861,.01728,.288,.04955,.42885,.05261,.34287,.00744,.70172-.04263,1.0277-.15241,.2863-.09641,.65341-.23658,.92552-.41794,.53036-.35349,1.05586-.80952,1.33367-1.39822,.24714-.5237,.39751-.9338,.39098-1.53022-.00129-.11753-.0419-.33196-.04817-.3786-.01442-.10734-.0269-.27458-.05725-.40098-.06215-.2588-.17683-.51802-.30874-.74427-.01549-.02656-.03193-.05059-.0488-.07603-.11352-.17107-.28144-.38996-.41913-.54154-.17058-.18778-.42174-.35267-.60379-.48679-.04366-.03216-.08589-.06304-.13411-.08856-.11385-.06025-.25065-.10951-.36063-.15592-.12242-.05166-.26034-.12054-.3945-.16008-.65735-.19375-1.43668-.16181-2.08985,.02861-.06233,.01817-.1228,.04057-.18319,.06426-.24387,.09566-.49638,.1909-.72874,.31379-.04975,.02631-.09792,.05552-.14415,.08759-.21741,.15082-.44214,.31631-.63756,.49535-.04775,.04375-.08942,.09173-.13049,.14158-.15812,.19192-.33144,.39135-.45845,.60671-.16822,.28525-.31074,.60898-.37609,.93662-.04347,.21797-.07975,.49093-.09562,.71223-.0023,.03207-.00489,.06331-.00465,.09562,.00182,.2538,.05187,.53587,.0996,.78348,.03149,.16334,.10177,.29625,.16876,.45499,.06434,.15247,.11611,.30679,.20479,.44569,.27021,.42324,.45343,.60482,.81416,.88352,.39449,.30478,.59871,.4067,1.10652,.59842,.20669,.07803,.40003,.09539,.62374,.12545,.25624,.03443,.47376,.07106,.72663,.04258,.33903-.03819,.69047-.06755,1.01823-.1717,.33984-.10799,.66736-.26133,.99232-.40575,.23303-.10356,.46629-.21449,.67542-.3617,.24917-.17539,.51068-.35782,.72743-.5749,.11006-.11023,.20088-.24337,.29472-.36483,.09308-.12048,.21224-.25129,.28562-.39278,.26672-.51429,.39058-.96083,.42444-1.53902,.01957-.33416-.02499-.68785-.1416-1.00185-.20495-.55187-.39775-.91579-.809-1.35413-.22498-.2398-.49986-.45181-.79061-.60582-.2805-.14858-.59618-.30306-.91528-.36468-.27369-.05286-.56518-.09658-.84426-.11023-.08501-.00416-.17016-.00094-.25479,.00776-.37115,.03817-.75221,.07634-1.11231,.18197-.17579,.05157-.34726,.11639-.51833,.18162-.32533,.07735-.60873,.22651-.85018,.44748-.27216,.17628-.48679,.41009-.64389,.70142-.18269,.28696-.28158,.59679-.29667,.9295-.07442,.3323-.05953,.6646,.04465,.9969,.19576,.60492,.57063,1.18855,1.1489,1.49408l.5972,.25202c.44307,.11907,.88613,.11907,1.3292,0,.2877-.1097,.57637-.21478,.8815-.26387l-.6646,.0893c.15186-.0202,.30058-.02461,.45302-.00811l-.6646-.0893c.1055,.01586,.20373,.04367,.30237,.08424l-.5972-.25202c.08307,.03799,.15979,.08239,.23391,.13588l-.50597-.39091c.07045,.05535,.13258,.1153,.18932,.18475l-.39091-.50597c.04333,.05858,.07901,.11828,.10916,.18453l-.25202-.5972c.02093,.05395,.03624,.10688,.04712,.16372l-.0893-.6646c.00928,.07327,.009,.14264-.00006,.21578l.0893-.6646c-.01014,.05532-.02432,.10728-.04362,.1601l.25202-.5972c-.0331,.0775-.0742,.14697-.12443,.21466l.39091-.50597c-.07353,.0912-.15668,.16968-.24833,.24244l.50597-.39091c-.25868,.19536-.55507,.3333-.85185,.46024l.5972-.25202c-.20896,.08643-.42067,.15665-.64474,.19099l.6646-.0893c-.13245,.01598-.26196,.01931-.39433,.00207l.6646,.0893c-.101-.01677-.19627-.04303-.29144-.0808l.5972,.25202c-.09252-.04074-.1762-.08926-.25634-.15094l.50597,.39091c-.05394-.04545-.10163-.09366-.14589-.14849l.39091,.50597c-.0416-.05735-.07506-.11575-.10316-.1807l.25202,.5972c-.02172-.05933-.0365-.11762-.04656-.17999l.0893,.6646c-.00797-.081-.00621-.158,.00448-.23854l-.0893,.6646c.0151-.08051,.03756-.15566,.0685-.23139l-.25202,.5972c.03472-.07443,.07482-.14244,.1231-.20877l-.39091,.50597c.06113-.07591,.12813-.1421,.20386-.20351l-.50597,.39091c.10418-.07806,.21452-.1402,.33392-.19187l-.5972,.25202c.14364-.05723,.29037-.09653,.44313-.12022l-.6646,.0893c.1131-.01351,.22307-.0165,.33661-.00583l-.6646-.0893c.09029,.01315,.17511,.03394,.26,.06725l-.5972-.25202c.07097,.0326,.13438,.07086,.19614,.11847l-.50597-.39091c.04673,.04059,.08756,.08295,.12604,.13144l-.39091-.50597c.02636,.03813,.04823,.07488,.06902,.11631l-.25202-.5972c.02391,.05795,.03939,.11353,.04909,.17546l-.0893-.6646c.0036,.04737,.00355,.09046-.00018,.13781l.0893-.6646c-.00943,.06163-.02445,.11841-.04597,.17691l.25202-.5972c-.03209,.07334-.07065,.13938-.11711,.20441l.39091-.50597c-.07136,.09091-.15049,.16868-.24085,.24063l.50597-.39091c-.11137,.08248-.22965,.14915-.3572,.20331l.5972-.25202c-.08389,.03178-.16703,.05564-.25526,.07148l.6646-.0893c-.08592,.01073-.1684,.01267-.25435,.0026l.6646,.0893c-.05891-.01059-.1139-.02573-.16996-.0467l.5972,.25202c-.05455-.02423-.10406-.05183-.15316-.08577l.50597,.39091c-.04627-.03671-.0859-.07525-.12338-.12091l.39091,.50597c-.02559-.03657-.04586-.07113-.06518-.11137l.25202,.5972c-.0151-.03985-.02532-.07509-.0329-.11694l.0893,.6646c-.00369-.04052-.00389-.07687-.0008-.11744l-.0893,.6646c.00835-.05315,.02173-.10106,.04214-.15084l-.25202,.5972c.0181-.03586,.03685-.0667,.06052-.09915l-.39091,.50597c.02611-.03002,.05116-.05414,.08231-.07887l-.50597,.39091c.02058-.01481,.04247-.02736,.06565-.03763l-.5972,.25202c.02359-.01042,.04804-.01812,.07334-.02309,.32533-.07735,.60873-.22651,.85018-.44748,.27216-.17628,.48679-.41009,.64389-.70142,.18269-.28696,.28158-.59679,.29667-.9295,.07442-.3323,.05953-.6646-.04465-.9969-.19576-.60492-.57063-1.18855-1.1489-1.49408-.60173-.31792-1.25672-.42293-1.9264-.25202h0Z" fill="#05c787"/></svg>