<svg xmlns="http://www.w3.org/2000/svg" width="36.02704" height="54.88953" viewBox="0 0 36.02704 54.88953" creator="Katerina Limpitsouni"><path d="M16.91295,24.98087c-3.30534,1.40349-5.86168,4.52371-9.50504,5.07505l3.0753,3.0753c.32418-2.1297,.64835-4.2594,.97253-6.38911,.1522-.9999,.30445-1.99996,.45936-2.99933,.17902-1.15491-.05452-1.83304-.64178-2.79725-1.97615-3.24456-4.57005-5.95283-7.60479-8.2168l-1.2618,4.65868c2.0179-.04484,4.04045-.2733,6.01423-.69975,1.02504-.22147,2.03843-.50148,3.03087-.84059,.94887-.32423,2.0796-.61986,2.81718-1.31151,.65565-.61482,.90016-1.42553,1.22791-2.23804l1.20497-2.98711,2.50263-6.204-4.56937,.5972c2.04879,2.79337,3.766,5.82166,4.99583,9.0638,.39588,1.04364,1.23632,1.8354,2.4107,1.8354,1.05444,0,2.18015-.77034,2.4107-1.8354l.05519-.25494-2.4107,1.8354c3.81272,.44416,7.62544,.88831,11.43816,1.33247l-1.76777-4.26777c-1.48405,1.56784-2.9681,3.13567-4.45216,4.70351-.74203,.78392-1.48405,1.56784-2.22608,2.35176-.59883,.63264-1.30044,1.2308-1.52303,2.1067-.48424,1.90545-.07984,4.35456,.16316,6.27659,.26419,2.08967,.6731,4.13521,1.27617,6.15409l3.0753-3.0753c-1.59601-.53873-3.1111-1.21795-4.57297-2.05771-1.15102-.66119-2.72904-1.44167-3.5651-2.50041-.83747-1.06051-2.65937-.87616-3.53553,0-1.04734,1.04734-.83962,2.4723,0,3.53553,1.05654,1.33793,3.11843,2.44434,4.57704,3.28223,1.82521,1.04847,3.77444,1.88904,5.76737,2.56175,1.80894,.61061,3.60099-1.31546,3.0753-3.0753-.5166-1.7294-.93647-3.49637-1.15458-5.29008-.11304-.92966-.17609-1.86791-.20514-2.80381-.01212-.39042-.01657-.78099-.01496-1.17157,.00098-.2378,.02791-.88994-.04073-.60583l-.64293,1.10317c2.51147-2.65326,5.02295-5.30652,7.53442-7.95979,1.60796-1.69874,.32621-4.02383-1.76777-4.26777-3.81272-.44416-7.62544-.88831-11.43816-1.33247-1.02466-.11937-2.19895,.8572-2.4107,1.8354l-.05519,.25494h4.8214c-1.3878-3.65858-3.18373-7.10033-5.49987-10.25819-1.33749-1.82356-3.73812-1.46348-4.56937,.5972-1.35945,3.37008-2.71891,6.74015-4.07836,10.11023l.64293-1.10317-.24613,.24789,1.10317-.64293c-3.01574,1.22815-6.14101,1.92582-9.398,1.99819-2.65394,.05897-3.17075,3.23456-1.2618,4.65868,2.56232,1.91154,4.645,4.38001,6.23229,7.14235l-.25202-1.9264c-.65163,3.1356-.98136,6.37335-1.46338,9.53999-.30449,2.00037,1.0764,3.37779,3.0753,3.0753,4.15506-.62878,6.96768-3.99454,10.69944-5.57909,1.24308-.52783,1.51663-2.3609,.89688-3.42047-.75253-1.28659-2.17249-1.42679-3.42047-.89688Z" fill="#05c787" origin="undraw"/><g><path d="M11.79528,29.87857c-2.22346,5.55612-1.4631,12.39808,2.06925,17.25982,3.57306,4.91778,9.40635,7.89254,15.50781,7.74595,3.21208-.07717,3.22407-5.07746,0-5-4.38406,.10533-8.8202-1.91141-11.38522-5.54331-2.72182-3.85393-3.10342-8.80283-1.37045-13.13327,.50182-1.25399-.54785-2.74605-1.7461-3.0753-1.42476-.39148-2.57162,.48748-3.0753,1.7461h0Z" fill="#05c787"/><path d="M18.56978,30.10072c-1.59815,3.99355-1.0303,8.97574,1.50161,12.4702,2.61377,3.60743,6.85421,5.82088,11.33801,5.71316,1.30635-.03139,2.56148-1.12742,2.5-2.5-.05946-1.32761-1.09937-2.53365-2.5-2.5-.42378,.01018-.84566,.00282-1.26815-.03429-.20292-.01782-.49912-.07898-.13606-.01125-.22727-.0424-.45326-.08244-.67869-.13433-.37464-.08623-.74526-.19273-1.1087-.31802-.03394-.0117-.73051-.28133-.263-.08384-.17717-.07484-.35056-.15972-.52244-.24578-.37868-.18961-.74658-.40007-1.1018-.63071-.16143-.10481-.31853-.21569-.47515-.32749-.2184-.15588,.20432,.18991-.12997-.10666-.3172-.2814-.62871-.56349-.91868-.87362-.13139-.14052-.25729-.2854-.38258-.4313-.4682-.54527,.22757,.37242-.16937-.22771-.21733-.32858-.42918-.65747-.61537-1.00515-.11138-.20799-.21394-.41961-.31314-.63362,.14929,.32205-.00346-.01403-.05906-.16646-.14815-.40624-.27233-.82081-.37245-1.24148-.04552-.19129-.08506-.38393-.12033-.57736-.03371-.18488-.06446-.52101-.02965-.15255-.04076-.43148-.06744-.86187-.06413-1.29552,.0015-.19655,.00735-.39308,.01938-.58929,.00253-.04121,.07514-.80663,.00755-.27316,.10847-.85603,.36396-1.69592,.68356-2.49456,.48714-1.2173-.53078-2.79849-1.7461-3.0753-1.44467-.32905-2.55365,.44259-3.0753,1.7461h0Z" fill="#05c787"/></g></svg>