<svg xmlns="http://www.w3.org/2000/svg" width="53.93828" height="53.027" viewBox="0 0 53.93828 53.027" creator="Katerina Limpitsouni"><path d="M1.84644,3.33409C.44163,18.46335-.16235,33.65823,.03716,48.85126c.01822,1.38782,1.13184,2.45038,2.5,2.5,15.38984,.5582,30.77967,1.1164,46.16951,1.67461,.99815,.0362,2.23685-.79527,2.4107-1.8354,2.55023-15.25771,3.40211-30.75002,2.42983-46.19129-.09244-1.46807-1.07978-2.33741-2.5-2.5C35.58294,.72875,20.02256-.10258,4.45769,.01009c-3.21609,.02328-3.22343,5.02333,0,5,15.56487-.11266,31.12525,.71866,46.58951,2.48908l-2.5-2.5c.94326,14.98048,.22371,30.05484-2.25123,44.8621l2.4107-1.8354c-15.38984-.5582-30.77967-1.1164-46.16951-1.67461l2.5,2.5c-.19951-15.19303,.40447-30.38791,1.80927-45.51717,.125-1.34626-1.2385-2.5-2.5-2.5C2.89028,.83409,1.9718,1.98399,1.84644,3.33409h0Z" fill="#05c787" origin="undraw"/><path d="M26.09755,9.71477c-.67563,.09297-1.22869,.2616-1.85808,.55587-.33826,.15815-.6428,.41502-.9196,.65719-.07795,.0682-.145,.14324-.21028,.22315-.18046,.22087-.38492,.44783-.51646,.70468-.28427,.55506-.43446,1.05018-.461,1.67389-.02683,.63044,.15245,1.13607,.40692,1.69291,.29449,.6444,.91302,1.23955,1.52986,1.57781,.70139,.38462,1.52368,.59779,2.32629,.54428,.68753-.04583,1.34793-.18864,2.005-.38273,.20238-.05978,.40121-.12578,.59672-.20532,.36839-.14987,.74949-.2863,1.07288-.5225,.51115-.37335,.85789-.67857,1.20192-1.21415,.20754-.32309,.37266-.69752,.4451-1.07549,.11443-.59707,.15207-1.10529-.00909-1.70186-.15142-.56053-.44916-1.06434-.85619-1.47663-.4019-.40709-.87861-.64408-1.41037-.83357-.36778-.13106-.77653-.16492-1.1639-.18089-.18763-.00774-.37512,.00673-.56154,.0269-.42683,.04618-.86442,.08467-1.28249,.1895-.86847,.21778-1.6247,.70625-2.16837,1.40994-.2921,.37808-.52592,.77815-.64223,1.2518-.06794,.27671-.10752,.56938-.10785,.85581-.00026,.22801,.05631,.50251,.09321,.7274,.01035,.06311,.02088,.11984,.03974,.18113,.27285,.8865,.90755,1.69607,1.73867,2.12593,.74993,.38786,1.5819,.55467,2.42467,.50292,.79803-.04901,1.52873-.15364,2.2435-.5266,1.2204-.63678,1.88318-2.09821,1.521-3.43398-.3773-1.39154-1.72355-2.32878-3.146-2.3185-.89595,.00648-1.76178,.35875-2.54725,.75634-.62502,.31638-1.1968,.75821-1.71414,1.22561-.46095,.41645-.73223,1.1597-.73223,1.76777,0,.61317,.27235,1.3456,.73223,1.76777,.47644,.43736,1.10194,.76206,1.76777,.73223,.68208-.03055,1.25736-.2711,1.76777-.73223,.11524-.10411,.23367-.2035,.35617-.29898l-.50597,.39091c.37276-.28195,.77403-.51462,1.20395-.69799l-.5972,.25202c.24917-.10204,.50226-.19379,.76844-.2392l-.6646,.0893c.11196-.01279,.2171-.01484,.32923-.00315l-.6646-.0893c.07352,.01438,.13387,.03051,.20305,.05809l-.5972-.25202c.06036,.03056,.11101,.06209,.16503,.10282l-.50597-.39091c.03313,.02733,.06339,.05754,.09076,.09064l-.39091-.50597c.03964,.05349,.06762,.10089,.09447,.16179l-.25202-.5972c.01455,.03906,.0238,.07933,.02773,.12083l-.0893-.6646c.00344,.03928,.00207,.07838-.00412,.11728l.0893-.6646c-.00532,.03417-.01427,.06735-.02687,.09955l.25202-.5972c-.02185,.04793-.04455,.08643-.07567,.12893l.39091-.50597c-.03523,.03978-.0699,.07258-.11112,.10615l.50597-.39091c-.06073,.04273-.12262,.07767-.18974,.1094l.5972-.25202c-.16424,.06853-.33422,.10853-.50996,.13394l.6646-.0893c-.36715,.04474-.74248,.07005-1.11055,.02495l.6646,.0893c-.1523-.02465-.29772-.06085-.4405-.11994l.5972,.25202c-.09837-.0463-.18838-.09958-.27612-.1636l.50597,.39091c-.08386-.06775-.15711-.13999-.22479-.22376l.39091,.50597c-.04914-.0686-.08972-.13754-.12504-.21419l.25202,.5972c-.03-.079-.04979-.15507-.06162-.23876l.0893,.6646c-.00409-.06585-.00293-.12553,.00352-.1912l-.0893,.6646c.01518-.0857,.03827-.16365,.0714-.24412l-.25202,.5972c.03862-.0787,.08238-.14982,.13448-.22031l-.39091,.50597c.07102-.08574,.14735-.15999,.23427-.22931l-.50597,.39091c.09674-.06966,.19618-.12522,.30439-.17494l-.5972,.25202c.24331-.0992,.49492-.15115,.75445-.18699l-.6646,.0893c.31645-.03967,.63245-.07091,.95068-.03312l-.6646-.0893c.12551,.01955,.24357,.04953,.36116,.0982l-.5972-.25202c.07405,.03599,.14012,.07633,.20536,.12659l-.50597-.39091c.04752,.04261,.08738,.08451,.12776,.13397l-.39091-.50597c.0369,.05362,.06567,.10393,.09301,.16298l-.25202-.5972c.02193,.05974,.03748,.11528,.04994,.17768l-.0893-.6646c.01054,.08434,.012,.16446,.00563,.2492l.0893-.6646c-.01481,.10827-.04098,.20868-.07929,.31083l.25202-.5972c-.0442,.10139-.09622,.19352-.16011,.28363l.39091-.50597c-.07169,.09067-.14984,.16787-.23837,.24193l.50597-.39091c-.15675,.11991-.32438,.21294-.50464,.29263l.5972-.25202c-.53238,.22042-1.11915,.38331-1.68797,.47206l.6646-.0893c-.25005,.03321-.49624,.04151-.74688,.01089l.6646,.0893c-.13534-.02208-.26265-.0548-.39091-.10376l.5972,.25202c-.14118-.06032-.26887-.13335-.39191-.2252l.50597,.39091c-.09978-.08113-.18725-.1687-.26658-.27009l.39091,.50597c-.06046-.08564-.10957-.17259-.15034-.26905l.25202,.5972c-.02801-.07879-.04772-.15576-.06078-.23836l.0893,.6646c-.00815-.08795-.00714-.17129,.00236-.25913l-.0893,.6646c.01559-.08866,.03844-.171,.07022-.25522l-.25202,.5972c.04619-.10384,.10115-.19738,.16783-.2892l-.39091,.50597c.08661-.10805,.18155-.20189,.28955-.28867l-.50597,.39091c.13876-.1024,.28341-.18065,.44214-.24801l-.5972,.25202c.37146-.14328,.76064-.2026,1.15311-.2566,.57384-.07896,1.21701-.67544,1.49408-1.1489,.31358-.53587,.44644-1.32563,.25202-1.9264-.19576-.60492-.57063-1.18855-1.1489-1.49408l-.5972-.25202c-.44307-.11907-.88613-.11907-1.3292,0h0Z" fill="#05c787"/><path d="M13.89001,28.52482l24.9408,.48724c3.21874,.06288,3.21864-4.93712,0-5l-24.9408-.48724c-3.21874-.06288-3.21864,4.93712,0,5h0Z" fill="#05c787"/><path d="M13.89001,40.18624l24.9408,.48724c3.21874,.06288,3.21864-4.93712,0-5l-24.9408-.48724c-3.21874-.06288-3.21864,4.93712,0,5h0Z" fill="#05c787"/></svg>