<svg xmlns="http://www.w3.org/2000/svg" width="17.71476" height="56.61306" viewBox="0 0 17.71476 56.61306" creator="Katerina Limpitsouni"><path d="M14.60428,.00845L6.57696,.77586c-2.56202,.24493-5.40822,.23748-6.22692,3.22589C.02025,5.20556,.15883,6.59597,.14419,7.83008c-.0167,1.40741-.03124,2.81485-.04363,4.2223-.02333,2.64934-.03896,5.29874-.04689,7.94817-.03214,10.74202-.19801,21.55442,.28226,32.28792,.06353,1.4199,.41237,2.86808,1.68886,3.68876,1.21668,.78223,2.62983,.63805,4.00858,.60171,3.08937-.08144,6.17875-.16288,9.26812-.24431,3.21138-.08465,3.22402-5.08499,0-5-2.27638,.06001-4.55276,.12001-6.82914,.18002-1.05689,.02786-2.11378,.05572-3.17067,.08358-.25241,.00665-.69712-.09556-.90248,.02-.70086,.39442,1.31778,.72502,.94978,1.0069,.17069-.13074-.0383-1.59597-.04277-1.82664-.0883-4.55282-.15407-9.10608-.19717-13.65955-.08776-9.27263-.08167-18.54614,.01829-27.81865,.00625-.57953,.01284-1.15905,.01982-1.73857,.00706-.58613,.15995-1.41421,.02537-1.9869l.00586-.187c.05986-.53723-.2008-.34042-.78197,.59042-.06915-.02498,.50111-.06222,.4778-.05959,.64725-.07284,1.29766-.12405,1.94602-.18604l7.78407-.74415c1.34403-.12849,2.5-1.05704,2.5-2.5C17.10428,1.25601,15.95641-.12081,14.60428,.00845h0Z" fill="#05c787" origin="undraw"/></svg>