<svg xmlns="http://www.w3.org/2000/svg" width="60.34769" height="23.65455" viewBox="0 0 60.34769 23.65455" creator="Katerina Limpitsouni"><path d="M.05011,11.98127c.94141,5.41939,6.42166,8.726,11.67216,8.07356,5.35344-.66523,9.7503-4.86259,11.28151-9.96699,.78874-2.62933,.46543-5.58872-1.56334-7.57433-2.05574-2.01201-5.30019-2.15683-7.43294-.189-4.45257,4.10827-.56668,10.57219,2.28444,14.35586,3.39496,4.5054,8.72502,7.58678,14.38779,5.35478,4.93537-1.94529,9.87284-6.12767,11.45675-11.32315,.77523-2.54288,.73859-5.59796-.70985-7.90327-1.6203-2.57884-4.96952-3.64633-7.65461-2.07171-5.0457,2.95896-3.0728,10.5302-.74181,14.60498,2.92419,5.11174,8.5748,8.58985,14.54327,8.29514,5.72843-.28286,10.67128-3.91588,12.65581-9.2803,.46853-1.26649-.52363-2.7394-1.7461-3.0753-1.39705-.38387-2.60507,.47502-3.0753,1.7461-2.24164,6.05942-9.9501,6.98375-14.76409,3.54554-2.61439-1.86722-4.20508-4.86019-4.83389-7.95658-.25377-1.24961-.36884-2.56231,.4857-3.56224,.16196-.18951,.50537-.04412,.12838-.12482,.26298,.0563,.39968,.12513,.58465,.3002,.42423,.40153,.55008,1.0867,.60824,1.64006,.35749,3.40152-2.30513,6.34321-4.83148,8.22601-2.67107,1.99065-5.76748,3.69733-8.98451,1.88934-2.89307-1.62593-5.01755-5.02022-6.34439-7.98096-.27273-.60858-.55056-1.36072-.47346-2.04191,.03142-.27767,.21455-1.02133,.57241-1.09651,.64332-.13514,.8718,1.22364,.86187,1.63864-.07822,3.26821-3.23419,6.58216-6.25726,7.40453-3.29896,.89743-6.68397-.7765-7.28856-4.25689-.23124-1.33119-1.86389-2.07901-3.0753-1.7461C.38972,9.2925-.1818,10.64623,.05011,11.98127H.05011Z" fill="#05c787" origin="undraw"/></svg>