<svg xmlns="http://www.w3.org/2000/svg" width="52.18113" height="54.16432" viewBox="0 0 52.18113 54.16432" creator="Katerina Limpitsouni"><path d="M25.19271,49.46081c-8.84125-4.89003-15.74061-13.09893-18.82232-22.74886-1.43731-4.50072-2.16634-9.79116-.25155-14.27424,1.73622-4.06501,5.72122-6.38472,10.09268-6.18084,2.08339,.09716,4.16292,.90088,5.70873,2.31137,.87755,.80073,1.58238,1.70487,2.15848,2.7424,.26448,.47632,.49193,.95835,.67302,1.47121,.22534,.63818,.26477,1.40107,.52732,2.00725,.15417,.35596-.10206,.21947,.10112,.08636,.50679-.332,.21922-.79844,1.01223-.9189,.29637-.04502,1.64799,.52605,1.23185,.65952,.27289-.08752-.08216,.28648,.08132-.04578,.20738-.42147,.01457-1.37193,.14808-1.9098,.17772-.71599,.4607-1.32711,.84859-1.9542,1.24599-2.01437,3.32094-3.37683,5.40503-4.40223,2.20274-1.08378,4.93726-1.76419,7.34398-.99945,2.13937,.67979,3.69298,2.45706,4.62712,4.44108,2.25757,4.79487,.80391,10.93044-.86279,15.69162-3.60419,10.29591-11.81439,19.54943-21.94928,23.77147-1.24544,.51883-2.13611,1.65611-1.7461,3.0753,.32315,1.17588,1.82109,2.26858,3.0753,1.7461,11.87322-4.9462,21.20457-15.14235,25.44148-27.26366,2.22112-6.35438,3.45997-14.23225-.06584-20.35015-1.65064-2.86416-4.34467-5.21698-7.5885-6.04417-3.53562-.9016-7.18108-.06498-10.42036,1.43479-3.00582,1.39168-5.81817,3.53161-7.5774,6.37572-1.59932,2.5856-3.10655,8.13838,.10168,10.17128,1.1633,.73713,2.69117,.76594,3.89931,.11374,1.71973-.92837,2.06942-2.66584,1.80417-4.44924-.48593-3.26719-2.08663-6.42275-4.46031-8.72774C21.07299,.76875,13.83824,.10313,8.17942,3.08863,2.40031,6.13759-.0784,12.67167,.00189,18.91644c.0912,7.09349,2.88352,14.18004,6.74899,20.04807,4.03435,6.12441,9.49554,11.2613,15.91824,14.81365,2.81795,1.55859,5.343-2.75796,2.5236-4.31735h0Z" fill="#05c787" origin="undraw"/></svg>