<svg xmlns="http://www.w3.org/2000/svg" width="55.90209" height="34.6858" viewBox="0 0 55.90209 34.6858" creator="Katerina Limpitsouni"><path d="M45.36189,29.12612c-9.08438,.16936-18.18242,.49977-27.26831,.49136-3.60971-.00334-7.5636-.25821-10.50914-2.59748-2.11868-1.6826-3.43129-4.50772-1.97089-7.03548,1.32696-2.29678,4.69467-2.17211,5.30349,.22825,.69568,2.74286,4.91281,2.15213,4.9107-.6646-.00371-4.93822,.02234-12.56512,5.90146-14.27636,2.42208-.705,5.10864-.20143,6.90179,1.63071,1.75255,1.79066,2.43231,4.43792,1.79094,6.84485-.67233,2.52316,2.34798,4.02345,4.17846,2.43237,4.46862-3.88419,12.24315-5.06495,15.49937,.9347,3.33571,6.14611-4.21957,9.84343-8.77921,11.81614-1.23941,.53622-1.51991,2.3553-.89688,3.42047,.74888,1.28034,2.17624,1.43519,3.42047,.89688,5.65866-2.44819,12.45443-6.43865,12.03986-13.57872-.40907-7.04537-6.93619-12.21163-13.82317-11.76913-4.1324,.26551-7.89605,2.04963-10.99597,4.74413l4.17846,2.43237c1.04759-3.93146,.01967-8.11683-2.6128-11.19829C29.86934,.64613,25.53667-.51785,21.44108,.2077c-4.07474,.72185-7.27539,3.68188-8.86592,7.41484-1.59692,3.74796-1.75045,7.90579-1.74742,11.92563l4.9107-.6646c-1.07148-4.2245-6.01976-6.61315-10.06459-5.14907C1.31779,15.31123-.8218,20.3918,.29094,24.7429c1.15409,4.51278,5.27301,7.65228,9.57348,8.91989,5.16599,1.52273,10.85724,.92268,16.16508,.82373l19.33239-.36041c3.21356-.05991,3.22406-5.0601,0-5h0Z" fill="#05c787" origin="undraw"/></svg>