<svg xmlns="http://www.w3.org/2000/svg" width="59.76692" height="5" viewBox="0 0 59.76692 5" creator="Katerina Limpitsouni"><path d="M2.5021,5c3.93815,0,7.8763,0,11.81445,0,1.30769,0,2.56047-1.14989,2.5-2.5C16.75589,1.1455,15.7181,0,14.31656,0H2.5021C1.19441,0-.05837,1.14989,.0021,2.5c.06067,1.3545,1.09846,2.5,2.5,2.5h0Z" fill="#05c787" origin="undraw"/><path d="M23.97623,5c3.93815,0,7.8763,0,11.81445,0,1.30769,0,2.56047-1.14989,2.5-2.5C38.23002,1.1455,37.19223,0,35.79068,0h-11.81445c-1.30769,0-2.56047,1.14989-2.5,2.5,.06067,1.3545,1.09846,2.5,2.5,2.5h0Z" fill="#05c787"/><path d="M45.45036,5c3.93815,0,7.8763,0,11.81445,0,1.30769,0,2.56047-1.14989,2.5-2.5C59.70414,1.1455,58.66635,0,57.26481,0h-11.81445c-1.30769,0-2.56047,1.14989-2.5,2.5,.06067,1.3545,1.09846,2.5,2.5,2.5h0Z" fill="#05c787"/></svg>