<svg xmlns="http://www.w3.org/2000/svg" width="30.50641" height="40.71066" viewBox="0 0 30.50641 40.71066" creator="Katerina Limpitsouni"><path d="M14.20992,.00978c-3.31555,.33409-6.3085,2.16815-7.93355,5.12854-1.67999,3.06046-1.55237,6.81918,.27816,9.79308,3.84927,6.25357,13.1934,6.60872,17.79538,1.00598,1.48042-1.80235,2.50462-4.01167,2.0712-6.39039-.35523-1.9496-1.97549-3.87442-4.00999-4.15522-1.28943-.17797-2.74849,.31126-3.0753,1.7461-.26795,1.17641,.36062,2.88408,1.7461,3.0753,.10986,.01516,.21692,.03936,.3257,.05679,.32768,.05251-.11572-.02811-.08981-.05706-.13348,.1491,.64818,.0263,.02513-.00362l.07763,.07963c.09677,.10514,.10307,.10655,.01891,.00423-.10214,.04477,.03331-.12386,.058,.11765-.00374-.03657-.1179-.35986-.02645-.08036,.03497,.10689,.06788,.21471,.09086,.32503-.05958-.28606-.01279-.06605-.0231,.10111,.00013-.00212-.05769,.41916-.01515,.20785,.05049-.25079-.0957,.2872-.10957,.3327-.07805,.25591-.02439,.11068,.0017,.04619-.05146,.12718-.12319,.25081-.18853,.37121-.13025,.24001-.27707,.46772-.42951,.69401-.15723,.23341-.01853,.03854,.01664-.00669-.12743,.16386-.26897,.31801-.41085,.46919-.17087,.18208-.3492,.35642-.53488,.52336-.09279,.08342-.18673,.16568-.28302,.24506,.04207-.03468,.24261-.17704,.01085-.011-.4731,.33896-.97905,.63651-1.50995,.87574-.26513,.11948-.02773,.00718,.02157-.01092-.11723,.04306-.23467,.08482-.35326,.12397-.23711,.07827-.47699,.14648-.71989,.20438-.11838,.02822-.84778,.14229-.44149,.10027-.29798,.03082-.59763,.04444-.89712,.04328-.25981-.00101-.51896-.01386-.7776-.0385-.42961-.04093,.31648,.06647-.10653-.01917-.12729-.02577-.25478-.04955-.38132-.07911-.25254-.059-.50305-.12946-.74926-.21094-.12298-.0407-.2456-.08395-.36612-.13146-.39329-.15507,.26036,.1351-.11529-.05836-.26913-.1386-.53469-.27996-.79011-.44285-.07726-.04927-.55931-.41342-.3288-.22125-.19897-.16588-.389-.34434-.56915-.53043-.09035-.09333-.17577-.19079-.26264-.28725-.10829-.13071-.11359-.1305-.0159,.00064l-.15039-.21163c-.14376-.21645-.28295-.43519-.40814-.66306-.04442-.08086-.30779-.64015-.18641-.34278-.11385-.27892-.20176-.57189-.27683-.86306-.03169-.12291-.14956-.84151-.11375-.4808-.02552-.25716-.03541-.51728-.03167-.77565,.00227-.15662,.06141-.72564-.00792-.28142,.04124-.26424,.10187-.52579,.17532-.78282,.03851-.13477,.27914-.76669,.10256-.37043,.12443-.27923,.27027-.55084,.42939-.8117,.05992-.09823,.12283-.19462,.18711-.29002,.02528-.03751,.29955-.4011,.14585-.21057-.16285,.20188,.08415-.08866,.09772-.10268,.10692-.11052,.20744-.22682,.31622-.33573,.09514-.09525,.71571-.62854,.36542-.36182,.42353-.32248,.89657-.59963,1.38344-.81455-.39986,.17651,.32271-.08993,.48129-.13159,.15324-.04026,.95193-.15524,.46709-.10639,1.2972-.13071,2.56467-1.05617,2.5-2.5-.05563-1.24211-1.10653-2.64041-2.5-2.5h0Z" fill="#05c787" origin="undraw"/><path d="M5.01081,36.78038c-.04827-2.67812-.26279-5.99586,1.63669-8.16373,1.90023-2.16873,5.55766-1.6212,8.1205-1.59631,1.79104,.0174,3.58208,.0348,5.37312,.0522,.37229,.00362,.75401-.0194,1.12527,.01453,1.19872,.10956-.12664,.04573,.15624-.21783,.00702-.00654,.67633,1.77904,.70341,1.86028,1.13932,3.41801,2.27865,6.83602,3.41797,10.25403,1.01251,3.03757,5.84298,1.73558,4.8214-1.3292-.70891-2.12676-1.41783-4.25352-2.12674-6.38029-.69387-2.08164-1.24311-4.3001-2.1697-6.29182-1.00008-2.14968-2.95715-2.84615-5.19514-2.90259-2.19645-.05539-4.39722-.04272-6.59428-.06406-3.9236-.03812-8.2937-.0762-11.16757,3.06552C.17275,28.29427-.06367,32.64778,.01081,36.78038c.05792,3.21372,5.05811,3.22405,5,0h0Z" fill="#05c787"/></svg>