<svg xmlns="http://www.w3.org/2000/svg" width="28.3223" height="37.63574" viewBox="0 0 28.3223 37.63574" creator="Katerina Limpitsouni"><path d="M6.52883,23.49051l10.63838,13.41783c.81783,1.0315,2.69904,.90619,3.53553,0,2.05386-2.22497,4.10772-4.44995,6.16158-6.67492,.92066-.99736,.98036-2.54113,0-3.53553-3.95468-4.01131-7.90936-8.02262-11.86403-12.03393l-3.02956,3.92644c.38089,.25401,.75402,.55247,1.15577,.77077,1.50516,.81785,3.42243-.21637,4.913-.68305,2.83344-.88712,5.66688-1.77424,8.50032-2.66136,2.32609-.72827,2.4267-4.13586,0-4.8214C18.37679,8.88934,10.71853,5.23266,3.76189,.3804,2.17876-.72384-.01647,.75341,.00009,2.53908,.07929,11.07741,.15848,19.61574,.23767,28.15407c.01749,1.88525,2.11372,3.12841,3.7618,2.15868,1.5233-.89631,2.51473-2.37258,3.64053-3.71231,.71592-.85196,1.4412-1.697,2.14816-2.55638,.80694-.98092,1.13006-1.69082,.91914-2.98591-.2172-1.33366-1.87372-2.07631-3.0753-1.7461-1.41738,.38952-1.96394,1.73771-1.7461,3.0753l.03067,.18834,.64293-2.43237-3.0688,3.65197c-.74726,.88926-1.20888,1.72588-2.01483,2.2001l3.7618,2.15868c-.07919-8.53833-.15839-17.07666-.23758-25.61499L1.2383,4.69775c7.28765,5.08313,15.42265,8.90376,23.97232,11.31901v-4.8214c-3.82897,1.19881-7.65795,2.39762-11.48692,3.59643l1.9264,.25202-1.15577-.77077c-2.4017-1.60166-4.98692,1.94105-3.02956,3.92644,3.95468,4.01131,7.90936,8.02262,11.86403,12.03393v-3.53553c-2.05386,2.22497-4.10772,4.44995-6.16158,6.67492h3.53553c-3.54613-4.47261-7.09225-8.94522-10.63838-13.41783-.83953-1.05887-2.65807-.87747-3.53553,0-1.04585,1.04585-.84167,2.47396,0,3.53553Z" fill="#05c787" origin="undraw"/></svg>