<svg xmlns="http://www.w3.org/2000/svg" width="57.15108" height="61.69571" viewBox="0 0 57.15108 61.69571" creator="Katerina Limpitsouni"><path d="M19.57448,10.78298c-9.12472,3.58848-15.55292,12.5679-15.14188,22.51572,.43141,10.44055,7.66591,19.2877,17.71302,22.03976,9.98365,2.73468,20.9529-.88394,27.30353-9.03911,5.8537-7.51704,7.40016-17.98648,2.83455-26.53802-2.55787-4.79099-7.00688-8.14091-12.21816-9.56952-5.53771-1.5181-11.38944-1.06266-17.02759-.50048-1.34346,.13396-2.5,1.05313-2.5,2.5,0,1.24803,1.14825,2.63478,2.5,2.5,7.74793-.77254,17.29983-1.71007,23.01298,4.76112,4.95545,5.61296,4.9434,14.30025,1.51512,20.64849-4.01415,7.4331-11.91981,11.69894-20.33928,11.08201-8.33891-.61103-15.511-6.51216-17.36714-14.69079-1.9401-8.54858,2.85531-17.66739,11.04405-20.88778,1.25572-.49384,2.13101-1.67469,1.7461-3.0753-.32885-1.19662-1.81171-2.24303-3.0753-1.7461h0Z" fill="#05c787" origin="undraw"/><path d="M27.02037,23.57991l-1.2757,9.54303c-.07832,.58587,.336,1.37153,.73223,1.76777,.43361,.43361,1.14502,.76013,1.76777,.73223,.64656-.02896,1.31714-.24134,1.76777-.73223,.48067-.52362,.63899-1.07022,.73223-1.76777l1.2757-9.54303c.07832-.58587-.336-1.37153-.73223-1.76777-.43361-.43361-1.14502-.76013-1.76777-.73223-.64656,.02896-1.31714,.24134-1.76777,.73223-.48067,.52362-.63899,1.07022-.73223,1.76777h0Z" fill="#05c787"/><path d="M26.73666,35.23583c3.22481,3.57866,6.44963,7.15733,9.67444,10.73599,.87798,.97431,2.6546,.95964,3.53553,0,.95536-1.04072,.93652-2.49625,0-3.53553-3.22481-3.57866-6.44963-7.15733-9.67444-10.73599-.87798-.97431-2.6546-.95964-3.53553,0-.95536,1.04072-.93652,2.49625,0,3.53553h0Z" fill="#05c787"/><path d="M14.96336,49.94008c-1.99231,2.66253-3.98462,5.32505-5.97693,7.98758-.36328,.48549-.40521,1.37012-.25202,1.9264,.15969,.5799,.60807,1.20833,1.1489,1.49408,.5802,.30655,1.28308,.46021,1.9264,.25202,.65811-.21297,1.08241-.59875,1.49408-1.1489,1.99231-2.66253,3.98462-5.32505,5.97693-7.98758,.36328-.48549,.40521-1.37012,.25202-1.9264-.15969-.5799-.60807-1.20833-1.1489-1.49408-.5802-.30655-1.28308-.46021-1.9264-.25202-.65811,.21297-1.08241,.59875-1.49408,1.1489h0Z" fill="#05c787"/><path d="M40.00685,52.56146c1.44271,2.43763,2.88542,4.87526,4.32813,7.31289,.66612,1.12548,2.28133,1.6313,3.42047,.89688,1.13301-.73047,1.60969-2.21609,.89688-3.42047-1.44271-2.43763-2.88542-4.87526-4.32813-7.31289-.66612-1.12548-2.28133-1.6313-3.42047-.89688-1.13301,.73047-1.60969,2.21609-.89688,3.42047h0Z" fill="#05c787"/><path d="M4.86854,9.12681c2.34598,2.421,4.69197,4.842,7.03795,7.263,.91173,.94088,2.63199,.98427,3.53553,0,.92802-1.01094,.97276-2.53167,0-3.53553-2.34598-2.421-4.69197-4.842-7.03795-7.263-.91173-.94088-2.63199-.98427-3.53553,0-.92802,1.01094-.97276,2.53167,0,3.53553h0Z" fill="#05c787"/><path d="M5.4416,15.10966c3.53905-2.11409,6.81728-4.70596,9.67896-7.67375,.55838-.57909,.79371-1.31022,.68758-2.10007-.11245-.83687-.54411-1.32866-1.19355-1.82638l-.09551-.0732,.89688,.89688C13.46769,1.17,9.47754-.28024,5.91132,.63964,2.24556,1.5852-.1211,5.15196,.00479,8.87191c.07215,2.13203,.8706,4.21447,2.40307,5.72422l-.73223-1.76777,.00418,.12261c.04449,1.30557,1.11804,2.5619,2.5,2.5,1.31636-.05896,2.54771-1.09994,2.5-2.5-.02818-.82695-.34418-1.46743-.90311-2.05855-.17231-.18223-.38069-.58061,.01277,.05637-.09197-.14888-.20237-.28619-.29305-.43673-.0703-.1167-.13638-.23592-.19776-.35756-.27184-.53862,.1468,.43812,.01622,.06278-.10971-.31538-.20992-.62907-.27618-.95703-.01553-.07688-.02608-.15495-.04239-.23157-.0636-.29872,.0609,.61926,.04182,.3142-.00984-.15735-.0279-.31316-.03333-.47099-.00742-.21559-.08627-.82088,.04209-1.00283,.01103-.01563-.12292,.70656-.03779,.31406,.01666-.07681,.02852-.15478,.04489-.23169,.0327-.15362,.07103-.30615,.11503-.45693,.03848-.13188,.08486-.26058,.12843-.39077,.03383-.10107,.14871-.3686-.018,.02601-.17736,.41982-.02829,.07406,.01881-.02145,.1387-.28124,.30493-.54149,.48022-.80064,.11654-.17228,.24928-.16571-.17677,.22855,.05455-.05048,.10398-.12283,.15304-.17705,.11828-.13075,.24337-.25516,.37454-.37294,.05851-.05254,.12284-.09972,.17963-.15381,.184-.17529-.28986,.25906-.27583,.21356,.02468-.08005,.31387-.21038,.38423-.25214,.1315-.07805,.26892-.14294,.40307-.21575,.34307-.1862-.29797,.13152-.28413,.11381,.04105-.05253,.20776-.07913,.26713-.09962,.28968-.09997,.5842-.16756,.88413-.22772,.53632-.10756-.55105,.04067-.15329,.02147,.19176-.00926,.38195-.02535,.57426-.02501,.15366,.00027,.3074,.00609,.46064,.01732,.03357,.00246,.22281,.00817,.22982,.02094,.01465,.02669-.60916-.09964-.3785-.05148,.3218,.06718,.64007,.12236,.95507,.22063,.12099,.03775,.69033,.2619,.24238,.07077-.44989-.19196,.11688,.06133,.22174,.11652,.16883,.08885,.33364,.18563,.49321,.29019,.06372,.04175,.12505,.08711,.18865,.12895,.28716,.18891-.22297-.18265-.2333-.18389,.11843,.01426,.33986,.29663,.42422,.3808,.1219,.12162,.22948,.25391,.34555,.38049,.19694,.21478-.32725-.48524-.1813-.23304,.04692,.08107,.10903,.16147,.16121,.23892,.30976,.45981,.62564,.74106,1.05312,1.06868l-.50597-3.92644c-1.34061,1.39031-2.76741,2.69502-4.27792,3.89887-.08507,.0678-.17038,.13527-.25595,.20243-.05818,.04566-.36001,.28318-.0692,.05472,.31326-.2461-.06843,.05016-.13634,.10124-.08693,.06538-.1741,.13045-.2615,.19521-.39329,.2914-.79154,.57617-1.19446,.85409-.80604,.55598-1.63105,1.08323-2.47164,1.58537-1.12262,.67061-1.63336,2.27814-.89688,3.42047,.72802,1.12922,2.21908,1.61454,3.42047,.89688Z" fill="#05c787"/><path d="M48.75995,5.22043c-2.34598,2.421-4.69197,4.842-7.03795,7.263-.91088,.94001-1.00567,2.61235,0,3.53553,.98506,.90426,2.56327,1.00336,3.53553,0,2.34598-2.421,4.69197-4.842,7.03795-7.263,.91088-.94001,1.00567-2.61235,0-3.53553-.98506-.90426-2.56327-1.00336-3.53553,0h0Z" fill="#05c787"/><path d="M42.04346,7.06507c2.86169,2.96779,6.13989,5.55964,9.67896,7.67375,1.67583,1.00108,3.69842-.29861,3.7618-2.15868l.00418-.12261-.73223,1.76777c2.68833-2.64848,3.10573-7.02251,1.29086-10.27008-1.84354-3.29887-5.8677-4.63178-9.4218-3.62809-2.01622,.56938-3.77608,1.84751-4.87716,3.63519l.89688-.89688-.09551,.0732c-.5403,.41408-.96037,.80947-1.1489,1.49408-.16479,.59843-.09039,1.39529,.25202,1.9264,.34415,.53381,.85662,1.00371,1.49408,1.1489,.60817,.13852,1.40645,.14646,1.9264-.25202,.39015-.299,.71247-.56585,.99239-.97008,.05011-.07236,.17176-.35249,.2554-.38429,.0174-.00662-.44013,.5204-.17839,.23561,.05155-.05609,.09943-.11549,.15104-.17163,.11587-.12603,.2381-.24605,.36548-.36039,.05637-.05059,.11888-.09597,.17288-.14878,.18425-.18016-.30649,.26738-.28161,.21479,.04398-.09299,.29175-.20423,.37721-.25788,.1293-.08118,.26185-.15736,.39696-.22846,.11107-.05846,.67064-.30805,.22174-.11652-.46051,.19649,.09111-.0221,.18751-.05312,.1465-.04714,.29447-.08898,.44394-.12563,.14991-.03676,.30054-.0651,.45204-.09411,.51366-.09834-.65594,.05751-.03471,.012,.30618-.02243,.61417-.02327,.92041-.0015,.05671,.00403,.11486,.01381,.17161,.01484,.30226,.00549-.62027-.10436-.32338-.04586,.1687,.03324,.33743,.05973,.50466,.10099,.14774,.03645,.29418,.0787,.43853,.12687,.24599,.08208,.58245,.33705-.06649-.04389,.27954,.1641,.56594,.31358,.84363,.48295,.24931,.15207-.44162-.38538-.22876-.18033,.04214,.0406,.09166,.07574,.13574,.1144,.1179,.1034,.23102,.21246,.33884,.32633,.05357,.05657,.10303,.11772,.15714,.17373,.26779,.27722-.17696-.23804-.1706-.23319,.11485,.08757,.22174,.31418,.29545,.43432,.08155,.13291,.15733,.26897,.2277,.40812,.03519,.06959,.06556,.14182,.1014,.21095,.1369,.26407-.20891-.55583-.11553-.27317,.10515,.31829,.21472,.62839,.28479,.95755,.05165,.24261,.0476,.73816,.0071-.08237,.00678,.13737,.02816,.27445,.03576,.41208,.0186,.33675-.00023,.66725-.0207,1.00309-.02439,.40033,.03617-.33106,.04504-.31367,.02054,.04029-.04092,.23556-.05192,.28969-.03509,.1727-.07694,.34397-.12663,.51307-.04316,.14687-.08723,.44012-.19236,.55282-.00945,.01013,.29634-.62062,.11055-.27645-.03694,.06842-.06869,.13979-.10521,.20851-.09134,.17187-.19184,.33907-.30127,.50003-.03321,.04885-.09298,.16197-.13585,.19056,.07428-.04952,.42179-.49376,.13173-.18722-.23085,.24397-.52556,.51918-.67656,.80498-.2308,.43684-.32871,.89154-.3455,1.38441l3.7618-2.15868c-.81723-.48818-1.61983-.99998-2.4044-1.53916-.40342-.27724-.80216-.56124-1.19605-.85186-.15914-.11742-.49217-.27636-.58719-.44079,.05163,.08934,.39012,.30587,.11868,.09157-.10672-.08426-.21379-.16806-.32013-.2528-1.51052-1.20386-2.93731-2.50856-4.27792-3.89887-.90947-.94319-2.63353-.9826-3.53553,0-.92988,1.01296-.97033,2.52923,0,3.53553Z" fill="#05c787"/></svg>