<svg xmlns="http://www.w3.org/2000/svg" width="58.47125" height="61.27805" viewBox="0 0 58.47125 61.27805" creator="Katerina Limpitsouni"><path d="M28.90769,.00787c-6.07761-.09003-12.40074,1.06636-17.54875,4.45708C6.92101,7.38797,3.72996,11.63288,1.87415,16.58637-1.72573,26.19511,.12855,37.6432,5.14993,46.39538c5.24091,9.13481,14.75711,15.71155,25.59413,14.79794,6.91784-.58321,13.60371-3.53175,18.6472-8.30504,5.3445-5.05817,8.48566-11.98427,9.00498-19.29893,1.0496-14.78379-9.02708-28.67242-23.27063-32.51665C33.09215,.52389,31.00332,.20071,28.90769,.00787c-1.34635-.12389-2.5,1.2377-2.5,2.5,0,1.45526,1.14981,2.37575,2.5,2.5,6.65332,.61224,12.8849,3.53313,17.44,8.43101,1.18938,1.27889,1.79365,2.05443,2.74015,3.51992,.8461,1.31004,1.58286,2.68668,2.21498,4.11202,.19303,.43525-.21162-.53383,.09146,.21385,.06297,.15533,.12474,.3112,.18511,.46755,.13573,.35148,.2645,.70561,.38674,1.062,.27111,.79043,.50876,1.59208,.71203,2.40261,.40745,1.62465,.59442,2.81121,.69891,4.13754,.12403,1.57429,.11957,3.15914-.02049,4.73223-.01361,.15291-.13577,1.19771-.08344,.82269-.04604,.32991-.10087,.65875-.1603,.9865-.14901,.82176-.33597,1.63676-.5607,2.44112-.79897,2.85973-2.23314,5.75244-3.95975,8.01096-2.09782,2.74409-4.6581,5.02349-7.62347,6.62458-2.44487,1.32007-4.74807,2.20956-7.73824,2.84201-.34205,.07235-.68548,.13821-1.0301,.19713-.20264,.03465-.91065,.13677-.35268,.06365-.66205,.08676-1.32817,.14555-1.99513,.17693-1.21755,.05727-2.42809,.00598-3.63997-.11547-.73962-.07412,.25118,.06295-.35065-.04926-.27221-.05075-.54588-.09244-.81756-.14653-.59666-.11879-1.18841-.26249-1.77311-.43056-.52038-.14958-1.03523-.31851-1.54317-.50602-.25266-.09327-.50244-.19327-.75236-.29358-.35339-.14185,.55912,.25646,.02087,.0059-.16209-.07545-.32592-.14702-.48761-.22342-1.02189-.48288-2.00739-1.04209-2.94929-1.66662-.4471-.29645-.88234-.60924-1.31081-.93189,.43779,.32967-.01945-.01818-.19757-.16364-.25505-.20828-.506-.42152-.75308-.63918-.85947-.75713-1.66992-1.56923-2.43042-2.4256-.36375-.4096-.70951-.83271-1.05576-1.25697-.37065-.45416,.19388,.28144-.2233-.2931-.18007-.24799-.36186-.49451-.5375-.74572-1.35033-1.93133-2.4823-4.00765-3.41299-6.17152,.25851,.60105-.08323-.21297-.13976-.35616-.10331-.26173-.20364-.52462-.30085-.78868-.21619-.58721-.41734-1.17999-.6033-1.77746-.3531-1.13447-.65152-2.28604-.89332-3.44933-.1142-.54941-.21578-1.10146-.30441-1.65556-.02118-.13239-.13767-.95016-.09026-.59077,.0559,.42371-.02143-.18645-.02538-.22215-.0205-.18489-.04194-.36963-.06072-.55472-.11506-1.13439-.175-2.27446-.17605-3.41471-.00106-1.15621,.05833-2.31253,.18339-3.46203,.01821-.16741,.14146-1.04027,.0344-.32224,.03985-.26726,.07997-.53429,.1255-.80068,.09554-.55906,.20731-1.11535,.3364-1.66765,.25541-1.09277,.57768-2.17027,.97143-3.22126,.10284-.2745,.2112-.54674,.32304-.81769-.21197,.5135-.0037,.01833,.09956-.20627,.2436-.52986,.50677-1.05081,.78976-1.56074,.25437-.45835,.52465-.90792,.81081-1.34713,.15911-.2442,.3231-.48528,.49193-.72286,.10901-.1534,.65837-.86142,.23894-.33582,.70013-.87734,1.45627-1.70485,2.28355-2.46427,.39885-.36613,.81253-.71524,1.23775-1.05029-.51417,.40514,.17479-.12119,.30084-.21062,.27711-.19661,.55883-.38667,.84499-.56987,.99849-.63922,2.04763-1.18388,3.12966-1.6665,.36755-.16394-.56039,.21773,.0451-.01763,.12499-.04859,.24918-.09913,.37441-.14714,.31738-.12168,.63729-.23678,.95931-.3456,.63087-.21318,1.27019-.40107,1.91527-.56619,.63733-.16314,1.2803-.30342,1.92724-.42279,.33418-.06166,.66935-.11615,1.0051-.16842,.49294-.07675,.12344-.01986,.02112-.00644,.23235-.03048,.46522-.05734,.69822-.08238,1.56632-.16834,3.14095-.22238,4.71556-.19906,3.21861,.04768,3.21982-4.9523,0-5Z" fill="#05c787" origin="undraw"/><path d="M25.48675,18.38186c.70999,7.83165,1.2175,15.67967,1.52212,23.53753,.12432,3.20707,5.12495,3.22314,5,0-.30462-7.85786-.81213-15.70588-1.52212-23.53753-.1219-1.34468-1.06175-2.5-2.5-2.5-1.25776,0-2.62262,1.14744-2.5,2.5h0Z" fill="#05c787"/><path d="M20.79945,36.17891c1.2101,1.26991,2.4202,2.53982,3.63031,3.80973,.5569,.58442,1.11879,1.16458,1.66714,1.75705,.25242,.27273,.5019,.54841,.74283,.83139,.14425,.16943,.28721,.3407,.42433,.51598-.2669-.34117,.06219,.10082,.13875,.20997,.51823,.73882,1.2205,1.2382,2.15868,1.2382,.79533,0,1.82455-.45773,2.15868-1.2382,.63849-1.49144,1.39654-2.92703,2.28101-4.28756,.21127-.32499,.42971-.6453,.6545-.96109,.10218-.14354,.20556-.28622,.31045-.42778,.10282-.13877,.39548-.50453,.12287-.16574,.53094-.65984,1.07986-1.3003,1.66138-1.91631,.89818-.95145,1.01454-2.6042,0-3.53553-.97432-.89441-2.5766-1.01581-3.53553,0-2.4217,2.56534-4.42273,5.5252-5.81202,8.77042h4.31735c-1.06216-1.51427-2.33268-2.83384-3.60464-4.16866-1.26018-1.32247-2.52036-2.64493-3.78054-3.9674-.90403-.94872-2.63722-.97858-3.53553,0-.93435,1.01783-.96448,2.52339,0,3.53553h0Z" fill="#05c787"/></svg>