<svg xmlns="http://www.w3.org/2000/svg" width="57.56536" height="65.42346" viewBox="0 0 57.56536 65.42346" creator="Katerina Limpitsouni"><path d="M13.31512,65.42346c10.18426,0,20.36852,0,30.55278,0,3.21726,0,3.22259-5,0-5-10.18426,0-20.36852,0-30.55278,0-3.21726,0-3.22259,5,0,5h0Z" fill="#05c787" origin="undraw"/><path d="M28.90699,62.92346c.20417-2.31759,.19827-4.66658,.219-6.99113,.0217-2.43393,.16315-5.00038-.40581-7.38778-.93127-3.90767-4.1253-7.37391-8.37816-7.25193-2.10487,.06037-3.80173,1.13309-5.24665,2.59011-.58362,.58851-1.2491,1.06216-1.83769,1.6046-.31005,.28575-.22584-.38725,.02786,.18128,.03251,.07286,.0447,.24253-.04395,.3468,1.79583-2.11237-.43509-5.34442-3.02956-3.92644-.84718,.46302-2.22684,1.41153-3.25644,1.07059-.68075-.22542-.9336-1.05487-1.12337-1.68315-.78112-2.58611-.94566-5.36337-.74305-8.04555,.242-3.2037,1.92549-12.05543,6.93523-10.21869,1.26782,.46483,2.73866-.52094,3.0753-1.7461,.38303-1.39398-.47369-2.60879-1.7461-3.0753-3.97055-1.45574-8.01913,.93345-10.14981,4.24736C1.11813,25.88201,.27688,30.08405,.05919,33.87904c-.20442,3.56376,.05117,7.99365,1.8799,11.16314,1.00405,1.74018,2.67777,2.88004,4.67985,3.09225,2.22208,.23553,4.21339-.68789,6.11669-1.72812l-3.02956-3.92644c-1.60063,1.88276-1.9281,4.55523-.17601,6.48646,1.62826,1.79473,4.18691,1.93967,6.25123,.83835,.992-.52923,1.8036-1.31412,2.58236-2.10996,.46627-.4765,.94345-1.09984,1.597-1.31842,1.44984-.4849,2.77439,.74787,3.38776,1.93303,.16871,.32598,.29533,.64971,.40194,1.00398,.04228,.14049,.32007,1.39396,.25579,.9546,.06044,.41314,.06648,.83876,.08288,1.25524,.05193,1.31882,.04876,2.6404,.04038,3.95997-.0157,2.4725-.00521,4.97504-.2224,7.44034-.11865,1.34678,1.23395,2.5,2.5,2.5,1.45105,0,2.38102-1.14938,2.5-2.5h0Z" fill="#05c787"/><path d="M11.47766,19.89847c-1.65119-5.43876,.86043-11.3114,6.15641-13.57952,2.65882-1.13869,5.67835-1.31378,8.53151-1.23685,1.26796,.03419,2.69289,.10047,3.81105,.7727,.57834,.34769,1.40964,1.10559,1.2769,1.86116-.19451,1.10719,.1291,2.22679,1.1489,2.82328,.89732,.52484,2.32718,.4502,3.02956-.39091,.82153-.9838,1.88062-1.27742,3.13627-1.30453,1.36392-.02946,2.95192,.00328,4.26719,.42304,2.50034,.79797-1.08364,3.66478-1.95748,4.3857-1.04223,.85984-.89048,2.64505,0,3.53553,1.03105,1.03105,2.49073,.86197,3.53553,0,1.81081-1.49391,3.6135-3.23961,4.10575-5.63714,.52295-2.54702-.42063-5.17213-2.75789-6.46137-2.01642-1.11226-4.71042-1.25221-6.96422-1.24591-2.54255,.0071-5.21604,.75176-6.9007,2.76915l4.17846,2.43237c.78389-4.46206-2.60048-7.8983-6.81729-8.66286-3.88603-.70459-8.41353-.4383-12.15889,.82419C8.81676,3.99819,4.09408,12.78823,6.65626,21.22767c.93222,3.07057,5.7598,1.76176,4.8214-1.3292h0Z" fill="#05c787"/><path d="M43.62309,16.78281c4.03747,2.07936,7.12614,5.61655,8.3582,10.02284,.66429,2.37572,.82237,4.94209,.33034,7.36762-.16639,.82023-.32283,1.95402-1.06792,2.45978-.68233,.46315-1.8404,.38888-2.62321,.40795-5.39991,.13159-11.28068,.36861-15.40178,4.37129-2.6013,2.52655-3.1369,6.4106-3.58106,9.83914-.48942,3.77792-.61106,7.59437-.64988,11.40013-.03282,3.21834,4.96715,3.22084,5,0,.0356-3.4905,.14128-6.98847,.53508-10.45927,.17504-1.54272,.47215-3.35318,.9664-4.96668,.10738-.35053,.22056-.70308,.3617-1.04193-.18024,.43271,.19253-.34968,.26157-.47379,.07804-.14029,.16828-.27352,.2603-.40487-.12079,.17241-.45318,.47267,.09989-.07297,.42271-.41703,.84037-.8056,1.34328-1.12538,2.2334-1.42013,4.85946-1.83404,7.45973-1.97186,2.69893-.14305,5.68073,.22673,8.17829-1.02009,2.62938-1.31263,3.50983-4.21025,3.89264-6.91198,.40269-2.84202,.25432-5.73512-.48738-8.51416-1.51472-5.67543-5.50084-10.53899-10.71262-13.22314-2.85603-1.4709-5.38827,2.842-2.5236,4.31735h0Z" fill="#05c787"/></svg>