<svg xmlns="http://www.w3.org/2000/svg" width="43.79825" height="50.38082" viewBox="0 0 43.79825 50.38082" creator="Katerina Limpitsouni"><path d="M30.27235,12.32844c-4.8843,.65204-9.82763,1.29502-14.76422,.95209-2.35377-.16351-4.67513-.61717-6.90197-1.40473-1.24718-.44109-3.26333-1.28404-3.60973-2.71979-.22204-.92031,.89751-1.71568,1.91248-1.79767,1.49815-.12102,2.75131,1.34713,3.37694,2.61992,.94404,1.92054,.86026,4.21865,.73651,6.29742-.16372,2.75024-.43358,5.49708-.65687,8.24305-.4945,6.08124-.98901,12.16248-1.48351,18.24372l1.2382-2.15868c-1.99805,1.04135-4.00856-1.74675-2.12831-3.2535,1.2014-.96275,3.17253-.81265,4.60154-.76502,2.22928,.07431,4.45789,.20136,6.68607,.3037,2.28888,.10513,4.57776,.21026,6.86664,.31539,2.03004,.09324,4.10962,.0881,6.11539,.44264,2.643,.46719,6.73138,2.05001,6.55064,5.27759-.04717,.84244-.52653,1.96018-1.246,2.30918-1.12734,.54684-2.44525-.3709-3.13871-1.22951-1.04264-1.29095-1.28021-3.09671-1.36251-4.69932-.11193-2.1796-.03533-4.37544-.02872-6.55705,.01399-4.61594,.02797-9.23189,.04196-13.84783,.00724-2.3904,.01449-4.7808,.02173-7.1712,.0052-1.71543-.17304-3.59489,.37872-5.25045,.42493-1.27503,1.25285-1.6626,2.25026-1.4184,1.2015,.29417,1.93958,1.31354,1.82682,2.70366-.25493,3.14273-3.94336,4.60748-6.51537,3.0824-2.77415-1.64494-5.29217,2.67572-2.5236,4.31735,3.43728,2.03814,7.84419,1.60038,10.90698-.92192,3.03255-2.49739,4.14974-7.30113,2.07021-10.73932-1.90976-3.15751-6.34086-4.51411-9.60537-2.66458-3.85847,2.18604-3.77699,7.04036-3.78865,10.89125-.01474,4.86323-.02947,9.72645-.04421,14.58968-.01387,4.57879-.34493,9.28737,.06853,13.85063,.38597,4.25991,2.25359,8.4601,6.61026,9.88411,3.92074,1.28152,7.81801-1.35269,8.80676-5.19695,1.03527-4.02514-1.17667-7.79127-4.48915-9.9735-3.71048-2.44443-8.38283-2.47073-12.66073-2.66722-4.65909-.214-9.32215-.50602-13.98427-.63673-4.02895-.11296-8.51203,.96297-9.83967,5.29853-1.28903,4.20948,1.64529,8.41341,5.93928,8.8827,1.98152,.21656,4.91273-.37559,5.33063-2.66536,.42806-2.34545,.41265-4.85784,.60598-7.23533,.39427-4.84856,.78853-9.69711,1.1828-14.54567,.36562-4.49625,1.132-9.30009-.86665-13.53629-1.67327-3.54654-5.47122-6.19045-9.48186-5.19506C1.39016,3.54721-1.14743,7.58068,.52155,11.39955c1.65819,3.79418,6.20097,5.39504,9.94786,6.19365,4.37998,.93354,8.88,.90958,13.31953,.50348,2.1676-.19828,4.32624-.48027,6.48341-.76824,1.33801-.17862,2.5-1.02115,2.5-2.5,0-1.21189-1.15205-2.67995-2.5-2.5h0Z" fill="#05c787" origin="undraw"/></svg>