<svg xmlns="http://www.w3.org/2000/svg" width="44.74667" height="38.65742" viewBox="0 0 44.74667 38.65742" creator="Katerina Limpitsouni"><path d="M4.25645,23.45273c2.20166-2.18592,4.47931-4.29407,6.83494-6.31328,1.14402-.98063,2.30577-1.94057,3.48429-2.87946,1.22055-.97237,2.13571-1.66858,3.50814-2.67633,1.05105-.77177,1.6812-2.20393,.89688-3.42047-.67111-1.04094-2.29312-1.72468-3.42047-.89688C10.3127,11.11952,5.34146,15.3297,.72092,19.9172c-.9294,.92276-.99253,2.62441,0,3.53553,1.00095,.91885,2.54377,.98467,3.53553,0h0Z" fill="#05c787" origin="undraw"/><path d="M40.48742,.71291C27.89286,11.58048,15.6195,22.81622,3.6846,34.40436c-2.31273,2.24554,1.22471,5.77922,3.53553,3.53553C19.15504,26.35175,31.42839,15.11601,44.02296,4.24845c1.0228-.88255,.90533-2.63021,0-3.53553-1.01417-1.01417-2.5102-.88474-3.53553,0h0Z" fill="#05c787"/></svg>