<svg xmlns="http://www.w3.org/2000/svg" width="42.2143" height="32.4279" viewBox="0 0 42.2143 32.4279" creator="Katerina Limpitsouni"><path d="M22.37443,27.76346c-6.20669-3.52991-12.41338-7.05982-18.62008-10.58973l.50597,3.92644c6.12249-5.62735,12.24498-11.2547,18.36748-16.88205,2.37424-2.18223-1.16877-5.71089-3.53553-3.53553C12.96978,6.30994,6.84729,11.93729,.72479,17.56464c-1.18328,1.08759-.84943,3.15559,.50597,3.92644,6.20669,3.52991,12.41338,7.05982,18.62008,10.58973,2.80121,1.59312,5.32345-2.725,2.5236-4.31735h0Z" fill="#05c787" origin="undraw"/><path d="M40.99451,27.76346c-6.20669-3.52991-12.41338-7.05982-18.62008-10.58973l.50597,3.92644c6.12249-5.62735,12.24498-11.2547,18.36748-16.88205,2.37424-2.18223-1.16877-5.71089-3.53553-3.53553-6.12249,5.62735-12.24498,11.2547-18.36748,16.88205-1.18328,1.08759-.84943,3.15559,.50597,3.92644,6.20669,3.52991,12.41338,7.05982,18.62008,10.58973,2.80121,1.59312,5.32345-2.725,2.5236-4.31735h0Z" fill="#05c787"/></svg>