<svg xmlns="http://www.w3.org/2000/svg" width="51.49637" height="43.76344" viewBox="0 0 51.49637 43.76344" creator="Katerina Limpitsouni"><path d="M26.92503,17.31962c-1.26777-.08074-2.49548-.0889-3.7517,.14945-1.20935,.22946-2.32466,.82242-3.24683,1.62702-2.03749,1.77774-2.42519,5.35563-.34193,7.26681,2.02745,1.85999,4.96434,1.4375,7.37873,.68881,1.07966-.33479,2.23339-.73862,3.15064-1.41379,1.29012-.94963,2.24386-2.30316,2.24107-3.96533-.00261-1.55742-.94931-3.05379-2.36553-3.71125-1.49638-.69467-2.96262-.58891-4.54739-.35417-1.08455,.16064-2.15149,.43903-3.17611,.82925-1.50683,.57387-2.95258,1.30487-3.48692,2.95655-.60062,1.85653,.47129,3.83501,2.35466,4.34922,1.11107,.30335,2.31704,.06845,3.43745-.04991,1.20793-.12761,2.50958-.16062,3.57976-.81126,1.62768-.98958,2.20922-3.00587,1.23995-4.68103-.91738-1.58548-2.77718-1.93421-4.45538-1.84815-1.9357,.09927-3.81346,.99808-4.34992,3.01663-.51334,1.93157,.83792,3.89673,2.7496,4.30188,1.83159,.38817,3.35137-.48774,4.633-1.7162,.72502-.69494,.89684-1.83069,.51692-2.73097-.38797-.91935-1.27759-1.51942-2.28469-1.5368-.50332-.00869-1.00663-.01737-1.50995-.02606-1.30821-.02258-2.55975,1.16603-2.5,2.5,.06153,1.37383,1.0982,2.47581,2.5,2.5,.50332,.00869,1.00663,.01737,1.50995,.02606l-1.76777-4.26777c-.10325,.09897-.20638,.19821-.31314,.29343-.07115,.06406-.14377,.12641-.21788,.18703,.30231-.22589,.37579-.2852,.22043-.1779-.0871,.04971-.54107,.27881-.13116,.11149,.41349-.16877-.10461,.00932-.20857,.02693l.6646-.0893c-.11498,.01022-.22027,.01145-.3355,.00438l.6646,.0893c-.08785-.01182-.19102-.05462-.27574-.05339-.12145-.03712-.0741-.01429,.14205,.06848,.22632,.10477,.25973,.115,.10021,.0307,.02058,.01485,.48014,.41913,.25638,.18928,.16692,.15031,.28257,.33038,.34695,.5402,.08644,.23889,.10518,.27106,.05621,.09653l.0893,.6646c-.01516-.08158-.01934-.16371-.01256-.24639l-.0893,.6646c.04192-.29049,.18638-.35074-.10048,.13229-.26423,.31092-.33115,.39532-.20074,.2532,.13333-.13731,.04474-.07746-.26578,.17953l.10725-.06939c.21669-.11246,.14667-.08442-.21005,.08413,.03875,.0269,.38547-.08784,.43321-.09579l-.6646,.0893c.5351-.06577,1.09368-.07803,1.63065-.02782l-.6646-.0893c.09621,.014,.19042,.03516,.28617,.05072,.4199,.06826-.37423-.20431-.16188-.07609,.10717,.06758,.07138,.03865-.10737-.08678-.12006-.06565-.21288-.15854-.27846-.27867-.12471-.18029-.1546-.21668-.08969-.10915,.09755,.17198,.0493,.0631-.14476-.32665l-.0893-.6646c.01621,.07715,.02072,.15499,.01352,.23351l.0893-.6646c-.04796,.24857,.00893,.14548,.17067-.30928-.12543,.21017-.05219,.11929,.21972-.27264,.38509-.2756,.47343-.34454,.26502-.2068-.15694,.08249-.12123,.07243,.10712-.03019,.46504-.19013-.01672-.00672-.12075,.02028-.14442,.03748-.2909,.06286-.43827,.08527l.6646-.0893c-.67052,.08568-1.34405,.15249-2.0167,.21898-.59152,.05847-1.20158,.16041-1.79648,.10543l.6646,.0893c-.11765-.01783-.59143-.17642-.13768,.00234,.20585,.06076,.38409,.1709,.53473,.33045,.4037,.87005,.54957,1.09971,.43762,.68896l.0893,.6646c-.01361-.12712-.01154-.23063,.00505-.35745l-.0893,.6646c.07749-.32179-.10781,.20168-.13079,.25079,.18122-.38719-.29669,.34155-.12075,.15721,.18371-.19248-.43556,.26166-.19271,.14825,.0996-.04651,.19221-.11417,.29144-.16379,.0673-.03365,.1693-.10388,.24396-.11277l-.32577,.13857c.07429-.03027,.1489-.05975,.22382-.08843,.22444-.08684,.45089-.16852,.67922-.24456,.91473-.30464,1.85525-.51614,2.81001-.64722l-.6646,.0893c.53665-.06787,1.06914-.11526,1.60941-.06406l-.6646-.0893c.15132,.0214,.45538,.15521,.5947,.13004-.39613-.18007-.47788-.21329-.24526-.09967,.07524,.04014,.1479,.08451,.21797,.13311-.33073-.27041-.40284-.31907-.21636-.14597,.1693,.19113,.11566,.12142-.16094-.20913,.12016,.22602,.08766,.14323-.09752-.24837,.02443,.08289,.0417,.16725,.05182,.25308l-.0893-.6646c.01041,.13291,.01039,.25419,.00057,.38715l.0893-.6646c-.0194,.13332-.04826,.25357-.08229,.38368-.1041,.39796,.23199-.40215,.06509-.1732-.27438,.37638,.13587-.04415,.12516-.12727,.00717,.05569-.26566,.25508-.29599,.2951,.30905-.22838,.38613-.28743,.23125-.17717-.05663,.04098-.11463,.07996-.174,.11692-.09877,.06284-.20066,.12066-.3037,.17614-.10345,.05571-.20852,.10827-.31484,.15828-.06373,.03007-.12792,.05912-.19257,.08716-.17126,.07505-.08548,.03878,.25734-.10883-.20812-.00018-.53856,.20683-.74041,.27551-.29919,.10181-.6017,.19392-.90697,.27574-.55259,.14811-1.11349,.2612-1.67963,.3429l.6646-.0893c-.45512,.05837-.90634,.08223-1.36371,.03579l.6646,.0893c-.14199-.0198-.54997-.03748-.64601-.14761,.0889,.10195,.57967,.21353,.18436,.05538-.20972-.08391,.41444,.40463,.14876,.1163-.23374-.25367,.16465,.20381,.16158,.23475,.00267-.02684-.12601-.2144-.14925-.25369-.14031-.23709,.17035,.59743,.10297,.21113-.02055-.1178-.05294-.23275-.07091-.35171l.0893,.6646c-.02507-.24469-.02139-.48092,.00983-.72507l-.0893,.6646c.02611-.1501,.10752-.32435,.11578-.47242-.18321,.4065-.2197,.4941-.10947,.2628,.03845-.07433,.08033-.14667,.12563-.21704,.14549-.21132,.09172-.14665-.1613,.19398,.05525-.06582,.11304-.12932,.17339-.19051,.06042-.06125,.12308-.12012,.18797-.17661,.19692-.16353,.13032-.11291-.1998,.15186,.14944-.05284,.3026-.19551,.4459-.27086,.0775-.04067,.15612-.07904,.23587-.1151-.39716,.16207-.47425,.19692-.23127,.10455,.36912-.11166,.72777-.20643,1.11048-.26372l-.6646,.0893c.92083-.11566,1.8433-.06684,2.76643-.00805,1.30769,.08328,2.55781-1.20938,2.5-2.5-.06386-1.42571-1.09917-2.41079-2.5-2.5h0Z" fill="#05c787" origin="undraw"/><path d="M24.80794,19.05376c-.34554-3.03496-.3778-6.10081-.01927-9.1369,.15305-1.29609,.29608-2.74633,.81723-3.95671,.11675-.27116,.26984-.54899,.44557-.76895,.00877-.01098,.24197-.33539,.30802-.26905,.02843,.02855-.68749,.13317-.51464,.03117,.00295-.00174-.06197-.06802-.04739-.08457,.01655-.01879,.26544,.41905,.30565,.52514,.08795,.23205,.18116,.75341,.21028,.95197,.19772,1.34796,.13848,2.78838,.03286,4.14166-.2084,2.67036-.97334,5.32538-2.15203,7.72602l4.56937,1.9264c.87223-3.05114,2.19531-5.90046,3.97669-8.52989,.99596-1.4701,3.10523-4.95241,5.23808-3.36121,2.01675,1.50458,1.30071,4.15716-.08845,5.83457-1.98398,2.39564-5.17014,3.36819-8.01268,4.31229-2.79248,.92747-2.09114,4.60528,.6646,4.9107,3.58498,.39733,7.16997,.79465,10.75495,1.19198,1.43529,.15907,2.93547,.20471,4.34131,.54872,.68317,.16717,1.17185,.26681,.63747,.96312-.67274,.87658-2.26092,1.09225-3.26575,1.23818-1.322,.19198-2.73469,.19201-4.05823,.0084-2.588-.35901-5.16924-1.41443-7.20755-3.05883-.79745-.64334-1.73361-.95534-2.73097-.51692-.85267,.37482-1.61187,1.29018-1.5368,2.28469,.23194,3.07281,1.79966,5.398,3.2411,8.01858,.53103,.96543,1.12469,2.09507,1.02208,3.23532-.04521,.50235-.26727,1.41904-.87875,1.551-1.53324,.33088-2.22925-2.34602-2.32907-3.37749-.28677-2.96319,.31288-5.88136-.60954-8.7892-.5906-1.86181-2.74893-2.36025-4.17846-1.10317-2.20183,1.93621-2.86382,4.79177-3.39205,7.54848-.27176,1.41826-.87876,4.97971-2.76581,4.94605-2.09786-.03742-2.11188-2.90011-1.42975-4.25104,1.31629-2.60684,4.32799-3.84542,6.87175-4.91397,1.24388-.52251,2.13687-1.65337,1.7461-3.0753-.3508-1.27651-1.77949-2.14352-3.0753-1.7461-3.08635,.94659-6.25596,1.67103-9.46806,2.02261-1.97057,.21569-5.93798,.897-7.07202-1.41206-.93738-1.90864,1.8349-2.9178,3.27106-2.68539,2.88178,.46635,4.93512,3.03997,6.74233,5.10069,1.63576,1.86522,4.95371-.10303,4.17846-2.43237-1.03763-3.11769-2.07526-6.23538-3.11289-9.35308-.42192-1.26772-.97661-2.58953-1.08999-3.93069-.04372-.5171,.035-2.14595,.90902-2.1329,.04213,.00063,.01411,.01813-.04236,.0026,.30176,.08298,.57883,.7746,.68767,1.04181,.43106,1.05831,.58062,2.2646,.80201,3.37898,.62139,3.12779,1.24279,6.25558,1.86418,9.38337,.26323,1.32497,1.84139,2.0852,3.0753,1.7461,1.38158-.37968,2.01009-1.7465,1.7461-3.0753-.77512-3.90155-1.34614-7.91762-2.36532-11.76253-.87204-3.2898-3.42431-6.54296-7.23943-5.47865-4.16762,1.16264-4.96425,5.89873-4.00666,9.51687,1.07158,4.04884,2.62846,8.01895,3.95098,11.99261l4.17846-2.43237c-2.84922-3.24891-6.16251-6.44717-10.7531-6.60885C3.77794,16.74325-.40382,20.15752,.03125,24.56668c.46353,4.69763,5.29429,6.7519,9.4777,6.66931,4.54251-.08968,9.18993-1.07803,13.51884-2.40572l-1.3292-4.8214c-3.85238,1.61825-7.95756,3.44445-9.94977,7.38161-1.89318,3.74144-1.17963,8.69548,2.80148,10.78379,3.75925,1.97193,7.70227-.11664,9.37598-3.74289,.76674-1.66122,1.09451-3.35706,1.45484-5.13375,.32048-1.58019,.64422-3.15878,1.89806-4.26136l-4.17846-1.10317c1.08599,3.42351-.20634,7.12697,1.009,10.56933,1.13427,3.21271,4.4394,6.04169,8.04692,5.0651,3.40432-.92158,4.97549-4.57782,4.46597-7.85362-.28084-1.80561-1.1111-3.45338-2.02641-5.01664-.8537-1.45804-1.98862-2.99206-2.11992-4.73158l-4.26777,1.76777c3.24111,2.61476,6.98213,4.17164,11.13596,4.56501,3.82105,.36185,9.26902-.25686,11.37078-3.95986,1.12238-1.97747,1.08816-4.4956-.44882-6.24285-1.37589-1.56412-3.40252-1.95991-5.37316-2.1976-4.77773-.57626-9.56833-1.06167-14.35143-1.59179l.6646,4.9107c4.24328-1.40933,8.55407-3.04363,11.20549-6.86256,2.51219-3.61839,2.54378-8.77089-1.00955-11.73749-8.51466-7.10872-15.65086,7.86451-17.46019,14.19371-.76069,2.66098,3.29622,4.51942,4.56937,1.9264,1.74507-3.55417,2.76582-7.37267,2.89608-11.3391,.10916-3.32384-.21847-8.07617-4.07112-9.20225-3.81745-1.1158-6.32292,2.76172-6.97374,5.96219-.86217,4.23981-1.04394,8.60004-.55486,12.8958,.15272,1.34136,1.0397,2.5,2.5,2.5,1.23287,0,2.65373-1.1497,2.5-2.5h0Z" fill="#05c787"/></svg>